<ttFont>
    <TTGlyph name="A" xMin="5" yMin="0" xMax="728" yMax="700">
      <contour>
        <pt x="519" y="689" on="1"/>
        <pt x="520" y="679" on="1"/>
        <pt x="520" y="638" on="0"/>
        <pt x="507" y="609" on="1"/>
        <pt x="494" y="599" on="0"/>
        <pt x="466" y="593" on="1"/>
        <pt x="633" y="99" on="1"/>
        <pt x="728" y="87" on="1"/>
        <pt x="728" y="46" on="0"/>
        <pt x="705" y="0" on="1"/>
        <pt x="462" y="0" on="1"/>
        <pt x="453" y="55" on="1"/>
        <pt x="495" y="71" on="0"/>
        <pt x="508" y="76" on="1"/>
        <pt x="468" y="189" on="1"/>
        <pt x="243" y="189" on="1"/>
        <pt x="213" y="100" on="0"/>
        <pt x="211" y="96" on="1"/>
        <pt x="280" y="87" on="1"/>
        <pt x="280" y="66" on="0"/>
        <pt x="264" y="11" on="0"/>
        <pt x="257" y="0" on="1"/>
        <pt x="14" y="0" on="1"/>
        <pt x="5" y="55" on="1"/>
        <pt x="50" y="74" on="0"/>
        <pt x="86" y="83" on="1"/>
        <pt x="254" y="597" on="1"/>
        <pt x="187" y="607" on="0"/>
        <pt x="153" y="623" on="1"/>
        <pt x="153" y="652" on="0"/>
        <pt x="162" y="674" on="1"/>
        <pt x="183" y="681" on="0"/>
        <pt x="338" y="700" on="0"/>
        <pt x="479" y="700" on="0"/>
      </contour>
      <contour>
        <pt x="390" y="414" on="1"/>
        <pt x="361" y="546" on="1"/>
        <pt x="351" y="546" on="1"/>
        <pt x="319" y="408" on="1"/>
        <pt x="272" y="283" on="1"/>
        <pt x="439" y="283" on="1"/>
      </contour>
    </TTGlyph>
    <TTGlyph name="AE" xMin="5" yMin="0" xMax="884" yMax="700">
      <contour>
        <pt x="459" y="84" on="1"/>
        <pt x="459" y="149" on="0"/>
        <pt x="457" y="189" on="1"/>
        <pt x="273" y="189" on="1"/>
        <pt x="222" y="95" on="1"/>
        <pt x="289" y="86" on="1"/>
        <pt x="289" y="46" on="0"/>
        <pt x="266" y="0" on="1"/>
        <pt x="13" y="0" on="1"/>
        <pt x="5" y="56" on="1"/>
        <pt x="45" y="75" on="0"/>
        <pt x="92" y="84" on="1"/>
        <pt x="368" y="614" on="1"/>
        <pt x="296" y="636" on="1"/>
        <pt x="304" y="700" on="1"/>
        <pt x="866" y="700" on="1"/>
        <pt x="870" y="672" on="0"/>
        <pt x="870" y="646" on="1"/>
        <pt x="870" y="597" on="0"/>
        <pt x="855" y="518" on="1"/>
        <pt x="824" y="511" on="0"/>
        <pt x="796" y="511" on="1"/>
        <pt x="761" y="512" on="1"/>
        <pt x="738" y="601" on="1"/>
        <pt x="589" y="601" on="1"/>
        <pt x="587" y="534" on="0"/>
        <pt x="585" y="404" on="1"/>
        <pt x="687" y="404" on="1"/>
        <pt x="697" y="473" on="1"/>
        <pt x="748" y="473" on="0"/>
        <pt x="796" y="448" on="1"/>
        <pt x="796" y="244" on="1"/>
        <pt x="730" y="244" on="1"/>
        <pt x="706" y="281" on="0"/>
        <pt x="701" y="308" on="1"/>
        <pt x="584" y="308" on="1"/>
        <pt x="581" y="96" on="1"/>
        <pt x="752" y="96" on="1"/>
        <pt x="775" y="184" on="1"/>
        <pt x="810" y="185" on="1"/>
        <pt x="869" y="178" on="1"/>
        <pt x="884" y="113" on="0"/>
        <pt x="884" y="28" on="0"/>
        <pt x="880" y="0" on="1"/>
        <pt x="384" y="0" on="1"/>
        <pt x="387" y="56" on="1"/>
        <pt x="420" y="77" on="0"/>
      </contour>
      <contour>
        <pt x="455" y="283" on="1"/>
        <pt x="455" y="329" on="0"/>
        <pt x="451" y="500" on="0"/>
        <pt x="451" y="527" on="1"/>
        <pt x="387" y="403" on="1"/>
        <pt x="321" y="283" on="1"/>
      </contour>
    </TTGlyph>
    <TTGlyph name="Aacute" xMin="5" yMin="0" xMax="728" yMax="939">
      <contour>
        <pt x="519" y="689" on="1"/>
        <pt x="520" y="679" on="1"/>
        <pt x="520" y="638" on="0"/>
        <pt x="507" y="609" on="1"/>
        <pt x="494" y="599" on="0"/>
        <pt x="466" y="593" on="1"/>
        <pt x="633" y="99" on="1"/>
        <pt x="728" y="87" on="1"/>
        <pt x="728" y="46" on="0"/>
        <pt x="705" y="0" on="1"/>
        <pt x="462" y="0" on="1"/>
        <pt x="453" y="55" on="1"/>
        <pt x="495" y="71" on="0"/>
        <pt x="508" y="76" on="1"/>
        <pt x="468" y="189" on="1"/>
        <pt x="243" y="189" on="1"/>
        <pt x="213" y="100" on="0"/>
        <pt x="211" y="96" on="1"/>
        <pt x="280" y="87" on="1"/>
        <pt x="280" y="66" on="0"/>
        <pt x="264" y="11" on="0"/>
        <pt x="257" y="0" on="1"/>
        <pt x="14" y="0" on="1"/>
        <pt x="5" y="55" on="1"/>
        <pt x="50" y="74" on="0"/>
        <pt x="86" y="83" on="1"/>
        <pt x="254" y="597" on="1"/>
        <pt x="187" y="607" on="0"/>
        <pt x="153" y="623" on="1"/>
        <pt x="153" y="652" on="0"/>
        <pt x="162" y="674" on="1"/>
        <pt x="183" y="681" on="0"/>
        <pt x="338" y="700" on="0"/>
        <pt x="479" y="700" on="0"/>
      </contour>
      <contour>
        <pt x="390" y="414" on="1"/>
        <pt x="361" y="546" on="1"/>
        <pt x="351" y="546" on="1"/>
        <pt x="319" y="408" on="1"/>
        <pt x="272" y="283" on="1"/>
        <pt x="439" y="283" on="1"/>
      </contour>
      <contour>
        <pt x="291" y="808" on="1"/>
        <pt x="449" y="939" on="1"/>
        <pt x="508" y="892" on="0"/>
        <pt x="512" y="852" on="1"/>
        <pt x="486" y="827" on="0"/>
        <pt x="407" y="773" on="0"/>
        <pt x="353" y="745" on="1"/>
        <pt x="321" y="769" on="0"/>
      </contour>
    </TTGlyph>
    <TTGlyph name="Abreve" xMin="5" yMin="0" xMax="728" yMax="700">
      <contour>
        <pt x="519" y="689" on="1"/>
        <pt x="520" y="679" on="1"/>
        <pt x="520" y="638" on="0"/>
        <pt x="507" y="609" on="1"/>
        <pt x="494" y="599" on="0"/>
        <pt x="466" y="593" on="1"/>
        <pt x="633" y="99" on="1"/>
        <pt x="728" y="87" on="1"/>
        <pt x="728" y="46" on="0"/>
        <pt x="705" y="0" on="1"/>
        <pt x="462" y="0" on="1"/>
        <pt x="453" y="55" on="1"/>
        <pt x="495" y="71" on="0"/>
        <pt x="508" y="76" on="1"/>
        <pt x="468" y="189" on="1"/>
        <pt x="243" y="189" on="1"/>
        <pt x="213" y="100" on="0"/>
        <pt x="211" y="96" on="1"/>
        <pt x="280" y="87" on="1"/>
        <pt x="280" y="66" on="0"/>
        <pt x="264" y="11" on="0"/>
        <pt x="257" y="0" on="1"/>
        <pt x="14" y="0" on="1"/>
        <pt x="5" y="55" on="1"/>
        <pt x="50" y="74" on="0"/>
        <pt x="86" y="83" on="1"/>
        <pt x="254" y="597" on="1"/>
        <pt x="187" y="607" on="0"/>
        <pt x="153" y="623" on="1"/>
        <pt x="153" y="652" on="0"/>
        <pt x="162" y="674" on="1"/>
        <pt x="183" y="681" on="0"/>
        <pt x="338" y="700" on="0"/>
        <pt x="479" y="700" on="0"/>
      </contour>
      <contour>
        <pt x="390" y="414" on="1"/>
        <pt x="361" y="546" on="1"/>
        <pt x="351" y="546" on="1"/>
        <pt x="319" y="408" on="1"/>
        <pt x="272" y="283" on="1"/>
        <pt x="439" y="283" on="1"/>
      </contour>
    </TTGlyph>
    <TTGlyph name="Acircumflex" xMin="5" yMin="0" xMax="728" yMax="938">
      <component glyphName="A" x="0" y="0" flags="0x1004"/>
      <component glyphName="circumflex" x="114" y="192" flags="0x1004"/>
    </TTGlyph>
    <TTGlyph name="Adieresis" xMin="5" yMin="0" xMax="728" yMax="878">
      <component glyphName="A" x="0" y="0" flags="0x1004"/>
      <component glyphName="dieresis" x="12" y="192" flags="0x1004"/>
    </TTGlyph>
    <TTGlyph name="Agrave" xMin="5" yMin="0" xMax="728" yMax="939">
      <component glyphName="A" x="0" y="0" flags="0x1004"/>
      <component glyphName="grave" x="21" y="192" flags="0x1004"/>
    </TTGlyph>
    <TTGlyph name="Amacron" xMin="5" yMin="0" xMax="728" yMax="896">
      <contour>
        <pt x="519" y="689" on="1"/>
        <pt x="520" y="679" on="1"/>
        <pt x="520" y="638" on="0"/>
        <pt x="507" y="609" on="1"/>
        <pt x="494" y="599" on="0"/>
        <pt x="466" y="593" on="1"/>
        <pt x="633" y="99" on="1"/>
        <pt x="728" y="87" on="1"/>
        <pt x="728" y="46" on="0"/>
        <pt x="705" y="0" on="1"/>
        <pt x="462" y="0" on="1"/>
        <pt x="453" y="55" on="1"/>
        <pt x="495" y="71" on="0"/>
        <pt x="508" y="76" on="1"/>
        <pt x="468" y="189" on="1"/>
        <pt x="243" y="189" on="1"/>
        <pt x="213" y="100" on="0"/>
        <pt x="211" y="96" on="1"/>
        <pt x="280" y="87" on="1"/>
        <pt x="280" y="66" on="0"/>
        <pt x="264" y="11" on="0"/>
        <pt x="257" y="0" on="1"/>
        <pt x="14" y="0" on="1"/>
        <pt x="5" y="55" on="1"/>
        <pt x="50" y="74" on="0"/>
        <pt x="86" y="83" on="1"/>
        <pt x="254" y="597" on="1"/>
        <pt x="187" y="607" on="0"/>
        <pt x="153" y="623" on="1"/>
        <pt x="153" y="652" on="0"/>
        <pt x="162" y="674" on="1"/>
        <pt x="183" y="681" on="0"/>
        <pt x="338" y="700" on="0"/>
        <pt x="479" y="700" on="0"/>
      </contour>
      <contour>
        <pt x="390" y="414" on="1"/>
        <pt x="361" y="546" on="1"/>
        <pt x="351" y="546" on="1"/>
        <pt x="319" y="408" on="1"/>
        <pt x="272" y="283" on="1"/>
        <pt x="439" y="283" on="1"/>
      </contour>
      <contour>
        <pt x="264" y="889" on="1"/>
        <pt x="333" y="896" on="0"/>
        <pt x="438" y="896" on="0"/>
        <pt x="512" y="889" on="1"/>
        <pt x="514" y="880" on="0"/>
        <pt x="514" y="850" on="1"/>
        <pt x="511" y="802" on="1"/>
        <pt x="442" y="796" on="0"/>
        <pt x="398" y="796" on="1"/>
        <pt x="265" y="801" on="1"/>
        <pt x="260" y="824" on="0"/>
        <pt x="260" y="841" on="1"/>
      </contour>
    </TTGlyph>
    <TTGlyph name="Aring" xMin="5" yMin="0" xMax="728" yMax="982">
      <component glyphName="A" x="0" y="0" flags="0x1004"/>
      <component glyphName="ring" x="128" y="179" flags="0x1004"/>
    </TTGlyph>
    <TTGlyph name="Atilde" xMin="5" yMin="0" xMax="728" yMax="904">
      <component glyphName="A" x="0" y="0" flags="0x1004"/>
      <component glyphName="tilde" x="41" y="192" flags="0x1004"/>
    </TTGlyph>
    <TTGlyph name="B" xMin="30" yMin="-1" xMax="586" yMax="699">
      <contour>
        <pt x="299" y="92" on="1"/>
        <pt x="454" y="92" on="0"/>
        <pt x="454" y="203" on="1"/>
        <pt x="454" y="284" on="0"/>
        <pt x="379" y="327" on="0"/>
        <pt x="248" y="327" on="1"/>
        <pt x="244" y="94" on="1"/>
        <pt x="278" y="92" on="0"/>
      </contour>
      <contour>
        <pt x="370" y="411" on="0"/>
        <pt x="434" y="447" on="0"/>
        <pt x="434" y="562" on="0"/>
        <pt x="360" y="600" on="0"/>
        <pt x="285" y="600" on="1"/>
        <pt x="249" y="600" on="1"/>
        <pt x="247" y="474" on="0"/>
        <pt x="247" y="410" on="1"/>
        <pt x="293" y="409" on="1"/>
      </contour>
      <contour>
        <pt x="294" y="-1" on="1"/>
        <pt x="47" y="-1" on="1"/>
        <pt x="38" y="54" on="1"/>
        <pt x="90" y="75" on="0"/>
        <pt x="122" y="83" on="1"/>
        <pt x="122" y="86" on="0"/>
        <pt x="113" y="612" on="1"/>
        <pt x="97" y="616" on="0"/>
        <pt x="30" y="638" on="1"/>
        <pt x="38" y="699" on="1"/>
        <pt x="315" y="699" on="1"/>
        <pt x="434" y="699" on="0"/>
        <pt x="566" y="607" on="0"/>
        <pt x="566" y="520" on="1"/>
        <pt x="566" y="478" on="0"/>
        <pt x="521" y="380" on="0"/>
        <pt x="492" y="371" on="1"/>
        <pt x="536" y="347" on="0"/>
        <pt x="586" y="261" on="0"/>
        <pt x="586" y="205" on="1"/>
        <pt x="586" y="113" on="0"/>
        <pt x="436" y="-1" on="0"/>
      </contour>
    </TTGlyph>
    <TTGlyph name="C" xMin="20" yMin="-13" xMax="557" yMax="712">
      <contour>
        <pt x="477" y="474" on="1"/>
        <pt x="446" y="475" on="1"/>
        <pt x="417" y="595" on="1"/>
        <pt x="359" y="605" on="0"/>
        <pt x="330" y="605" on="1"/>
        <pt x="273" y="605" on="0"/>
        <pt x="202" y="582" on="1"/>
        <pt x="181" y="543" on="0"/>
        <pt x="157" y="421" on="0"/>
        <pt x="157" y="367" on="1"/>
        <pt x="157" y="91" on="0"/>
        <pt x="316" y="91" on="1"/>
        <pt x="384" y="91" on="0"/>
        <pt x="424" y="111" on="1"/>
        <pt x="445" y="233" on="1"/>
        <pt x="508" y="233" on="0"/>
        <pt x="541" y="226" on="1"/>
        <pt x="557" y="117" on="0"/>
        <pt x="557" y="49" on="1"/>
        <pt x="533" y="31" on="0"/>
        <pt x="388" y="-13" on="0"/>
        <pt x="318" y="-13" on="1"/>
        <pt x="20" y="-13" on="0"/>
        <pt x="20" y="355" on="1"/>
        <pt x="20" y="530" on="0"/>
        <pt x="165" y="712" on="0"/>
        <pt x="324" y="712" on="1"/>
        <pt x="403" y="712" on="0"/>
        <pt x="464" y="689" on="1"/>
        <pt x="518" y="669" on="0"/>
        <pt x="556" y="645" on="1"/>
        <pt x="556" y="577" on="0"/>
        <pt x="541" y="481" on="1"/>
        <pt x="513" y="474" on="0"/>
      </contour>
    </TTGlyph>
    <TTGlyph name="Ccedilla" xMin="20" yMin="-213" xMax="557" yMax="712">
      <contour>
        <pt x="477" y="474" on="1"/>
        <pt x="446" y="475" on="1"/>
        <pt x="417" y="595" on="1"/>
        <pt x="359" y="605" on="0"/>
        <pt x="330" y="605" on="1"/>
        <pt x="273" y="605" on="0"/>
        <pt x="202" y="582" on="1"/>
        <pt x="181" y="543" on="0"/>
        <pt x="157" y="421" on="0"/>
        <pt x="157" y="367" on="1"/>
        <pt x="157" y="91" on="0"/>
        <pt x="316" y="91" on="1"/>
        <pt x="384" y="91" on="0"/>
        <pt x="424" y="111" on="1"/>
        <pt x="445" y="233" on="1"/>
        <pt x="508" y="233" on="0"/>
        <pt x="541" y="226" on="1"/>
        <pt x="557" y="117" on="0"/>
        <pt x="557" y="49" on="1"/>
        <pt x="536" y="33" on="0"/>
        <pt x="408" y="-8" on="0"/>
        <pt x="342" y="-12" on="1"/>
        <pt x="339" y="-26" on="1"/>
        <pt x="410" y="-64" on="0"/>
        <pt x="410" y="-124" on="0"/>
        <pt x="340" y="-197" on="0"/>
        <pt x="295" y="-213" on="1"/>
        <pt x="269" y="-182" on="1"/>
        <pt x="271" y="-177" on="0"/>
        <pt x="281" y="-158" on="1"/>
        <pt x="305" y="-114" on="0"/>
        <pt x="305" y="-101" on="1"/>
        <pt x="305" y="-95" on="0"/>
        <pt x="247" y="-72" on="1"/>
        <pt x="247" y="-48" on="0"/>
        <pt x="260" y="-9" on="1"/>
        <pt x="20" y="24" on="0"/>
        <pt x="20" y="355" on="1"/>
        <pt x="20" y="530" on="0"/>
        <pt x="165" y="712" on="0"/>
        <pt x="324" y="712" on="1"/>
        <pt x="403" y="712" on="0"/>
        <pt x="464" y="689" on="1"/>
        <pt x="518" y="669" on="0"/>
        <pt x="556" y="645" on="1"/>
        <pt x="556" y="577" on="0"/>
        <pt x="541" y="481" on="1"/>
        <pt x="513" y="474" on="0"/>
      </contour>
    </TTGlyph>
    <TTGlyph name="D" xMin="30" yMin="0" xMax="635" yMax="700">
      <contour>
        <pt x="635" y="365" on="1"/>
        <pt x="635" y="145" on="0"/>
        <pt x="530" y="59" on="1"/>
        <pt x="487" y="25" on="0"/>
        <pt x="387" y="0" on="0"/>
        <pt x="306" y="0" on="1"/>
        <pt x="47" y="0" on="1"/>
        <pt x="38" y="55" on="1"/>
        <pt x="114" y="83" on="0"/>
        <pt x="122" y="84" on="1"/>
        <pt x="122" y="87" on="0"/>
        <pt x="113" y="613" on="1"/>
        <pt x="69" y="624" on="0"/>
        <pt x="30" y="639" on="1"/>
        <pt x="36" y="691" on="0"/>
        <pt x="38" y="700" on="1"/>
        <pt x="303" y="700" on="1"/>
        <pt x="401" y="700" on="0"/>
        <pt x="518" y="660" on="0"/>
        <pt x="563" y="609" on="1"/>
        <pt x="635" y="525" on="0"/>
      </contour>
      <contour>
        <pt x="429" y="97" on="0"/>
        <pt x="504" y="207" on="0"/>
        <pt x="504" y="477" on="0"/>
        <pt x="420" y="600" on="0"/>
        <pt x="322" y="600" on="1"/>
        <pt x="249" y="600" on="1"/>
        <pt x="245" y="263" on="0"/>
        <pt x="244" y="97" on="1"/>
        <pt x="315" y="97" on="1"/>
      </contour>
    </TTGlyph>
    <TTGlyph name="Delta" xMin="19" yMin="0" xMax="634" yMax="706">
      <contour>
        <pt x="269" y="704" on="1"/>
        <pt x="287" y="706" on="0"/>
        <pt x="365" y="706" on="0"/>
        <pt x="383" y="703" on="1"/>
        <pt x="608" y="124" on="0"/>
        <pt x="634" y="53" on="0"/>
        <pt x="634" y="18" on="0"/>
        <pt x="631" y="0" on="1"/>
        <pt x="22" y="0" on="1"/>
        <pt x="19" y="30" on="0"/>
        <pt x="19" y="49" on="0"/>
        <pt x="29" y="80" on="1"/>
      </contour>
      <contour>
        <pt x="328" y="547" on="1"/>
        <pt x="317" y="547" on="1"/>
        <pt x="147" y="96" on="1"/>
        <pt x="496" y="96" on="1"/>
      </contour>
    </TTGlyph>
    <TTGlyph name="E" xMin="30" yMin="0" xMax="546" yMax="700">
      <contour>
        <pt x="249" y="600" on="1"/>
        <pt x="249" y="486" on="0"/>
        <pt x="247" y="404" on="1"/>
        <pt x="349" y="404" on="1"/>
        <pt x="359" y="473" on="1"/>
        <pt x="410" y="473" on="0"/>
        <pt x="458" y="448" on="1"/>
        <pt x="458" y="248" on="1"/>
        <pt x="392" y="245" on="1"/>
        <pt x="368" y="281" on="0"/>
        <pt x="364" y="308" on="1"/>
        <pt x="246" y="308" on="1"/>
        <pt x="244" y="168" on="0"/>
        <pt x="244" y="97" on="1"/>
        <pt x="415" y="97" on="1"/>
        <pt x="437" y="184" on="1"/>
        <pt x="499" y="184" on="0"/>
        <pt x="531" y="178" on="1"/>
        <pt x="546" y="121" on="0"/>
        <pt x="546" y="28" on="0"/>
        <pt x="543" y="0" on="1"/>
        <pt x="47" y="0" on="1"/>
        <pt x="38" y="55" on="1"/>
        <pt x="103" y="80" on="0"/>
        <pt x="122" y="84" on="1"/>
        <pt x="121" y="143" on="0"/>
        <pt x="120" y="250" on="1"/>
        <pt x="116" y="490" on="0"/>
        <pt x="113" y="613" on="1"/>
        <pt x="30" y="639" on="1"/>
        <pt x="38" y="700" on="1"/>
        <pt x="529" y="700" on="1"/>
        <pt x="532" y="673" on="0"/>
        <pt x="532" y="592" on="0"/>
        <pt x="517" y="520" on="1"/>
        <pt x="486" y="510" on="0"/>
        <pt x="423" y="510" on="1"/>
        <pt x="400" y="600" on="1"/>
      </contour>
    </TTGlyph>
    <TTGlyph name="Eacute" xMin="30" yMin="0" xMax="546" yMax="939">
      <component glyphName="E" x="0" y="0" flags="0x1004"/>
      <component glyphName="acute" x="139" y="192" flags="0x1004"/>
    </TTGlyph>
    <TTGlyph name="Ebreve" xMin="30" yMin="0" xMax="546" yMax="928">
      <component glyphName="E" x="0" y="0" flags="0x1004"/>
      <component glyphName="breve" x="105" y="191" flags="0x1004"/>
    </TTGlyph>
    <TTGlyph name="Ecircumflex" xMin="30" yMin="0" xMax="546" yMax="938">
      <contour>
        <pt x="249" y="600" on="1"/>
        <pt x="249" y="486" on="0"/>
        <pt x="247" y="404" on="1"/>
        <pt x="349" y="404" on="1"/>
        <pt x="359" y="473" on="1"/>
        <pt x="410" y="473" on="0"/>
        <pt x="458" y="448" on="1"/>
        <pt x="458" y="248" on="1"/>
        <pt x="392" y="245" on="1"/>
        <pt x="368" y="281" on="0"/>
        <pt x="364" y="308" on="1"/>
        <pt x="246" y="308" on="1"/>
        <pt x="244" y="168" on="0"/>
        <pt x="244" y="97" on="1"/>
        <pt x="415" y="97" on="1"/>
        <pt x="437" y="184" on="1"/>
        <pt x="499" y="184" on="0"/>
        <pt x="531" y="178" on="1"/>
        <pt x="546" y="121" on="0"/>
        <pt x="546" y="28" on="0"/>
        <pt x="543" y="0" on="1"/>
        <pt x="47" y="0" on="1"/>
        <pt x="38" y="55" on="1"/>
        <pt x="103" y="80" on="0"/>
        <pt x="122" y="84" on="1"/>
        <pt x="121" y="143" on="0"/>
        <pt x="120" y="250" on="1"/>
        <pt x="116" y="490" on="0"/>
        <pt x="113" y="613" on="1"/>
        <pt x="30" y="639" on="1"/>
        <pt x="38" y="700" on="1"/>
        <pt x="529" y="700" on="1"/>
        <pt x="532" y="673" on="0"/>
        <pt x="532" y="592" on="0"/>
        <pt x="517" y="520" on="1"/>
        <pt x="486" y="510" on="0"/>
        <pt x="423" y="510" on="1"/>
        <pt x="400" y="600" on="1"/>
      </contour>
      <contour>
        <pt x="420" y="747" on="1"/>
        <pt x="347" y="784" on="0"/>
        <pt x="315" y="808" on="1"/>
        <pt x="297" y="794" on="0"/>
        <pt x="210" y="747" on="1"/>
        <pt x="172" y="783" on="0"/>
        <pt x="157" y="807" on="1"/>
        <pt x="315" y="938" on="1"/>
        <pt x="474" y="807" on="1"/>
        <pt x="460" y="785" on="0"/>
      </contour>
    </TTGlyph>
    <TTGlyph name="Edieresis" xMin="30" yMin="0" xMax="546" yMax="878">
      <contour>
        <pt x="249" y="600" on="1"/>
        <pt x="249" y="486" on="0"/>
        <pt x="247" y="404" on="1"/>
        <pt x="349" y="404" on="1"/>
        <pt x="359" y="473" on="1"/>
        <pt x="410" y="473" on="0"/>
        <pt x="458" y="448" on="1"/>
        <pt x="458" y="248" on="1"/>
        <pt x="392" y="245" on="1"/>
        <pt x="368" y="281" on="0"/>
        <pt x="364" y="308" on="1"/>
        <pt x="246" y="308" on="1"/>
        <pt x="244" y="168" on="0"/>
        <pt x="244" y="97" on="1"/>
        <pt x="415" y="97" on="1"/>
        <pt x="437" y="184" on="1"/>
        <pt x="499" y="184" on="0"/>
        <pt x="531" y="178" on="1"/>
        <pt x="546" y="121" on="0"/>
        <pt x="546" y="28" on="0"/>
        <pt x="543" y="0" on="1"/>
        <pt x="47" y="0" on="1"/>
        <pt x="38" y="55" on="1"/>
        <pt x="103" y="80" on="0"/>
        <pt x="122" y="84" on="1"/>
        <pt x="121" y="143" on="0"/>
        <pt x="120" y="250" on="1"/>
        <pt x="116" y="490" on="0"/>
        <pt x="113" y="613" on="1"/>
        <pt x="30" y="639" on="1"/>
        <pt x="38" y="700" on="1"/>
        <pt x="529" y="700" on="1"/>
        <pt x="532" y="673" on="0"/>
        <pt x="532" y="592" on="0"/>
        <pt x="517" y="520" on="1"/>
        <pt x="486" y="510" on="0"/>
        <pt x="423" y="510" on="1"/>
        <pt x="400" y="600" on="1"/>
      </contour>
      <contour>
        <pt x="301" y="875" on="1"/>
        <pt x="309" y="841" on="0"/>
        <pt x="309" y="800" on="0"/>
        <pt x="306" y="773" on="1"/>
        <pt x="276" y="765" on="0"/>
        <pt x="225" y="765" on="0"/>
        <pt x="192" y="768" on="1"/>
        <pt x="184" y="802" on="0"/>
        <pt x="184" y="843" on="0"/>
        <pt x="187" y="870" on="1"/>
        <pt x="217" y="878" on="0"/>
        <pt x="268" y="878" on="0"/>
      </contour>
      <contour>
        <pt x="464" y="875" on="1"/>
        <pt x="472" y="841" on="0"/>
        <pt x="472" y="800" on="0"/>
        <pt x="469" y="773" on="1"/>
        <pt x="439" y="765" on="0"/>
        <pt x="388" y="765" on="0"/>
        <pt x="355" y="768" on="1"/>
        <pt x="347" y="802" on="0"/>
        <pt x="347" y="843" on="0"/>
        <pt x="350" y="870" on="1"/>
        <pt x="380" y="878" on="0"/>
        <pt x="431" y="878" on="0"/>
      </contour>
    </TTGlyph>
    <TTGlyph name="Egrave" xMin="30" yMin="0" xMax="546" yMax="939">
      <contour>
        <pt x="249" y="600" on="1"/>
        <pt x="249" y="486" on="0"/>
        <pt x="247" y="404" on="1"/>
        <pt x="349" y="404" on="1"/>
        <pt x="359" y="473" on="1"/>
        <pt x="410" y="473" on="0"/>
        <pt x="458" y="448" on="1"/>
        <pt x="458" y="248" on="1"/>
        <pt x="392" y="245" on="1"/>
        <pt x="368" y="281" on="0"/>
        <pt x="364" y="308" on="1"/>
        <pt x="246" y="308" on="1"/>
        <pt x="244" y="168" on="0"/>
        <pt x="244" y="97" on="1"/>
        <pt x="415" y="97" on="1"/>
        <pt x="437" y="184" on="1"/>
        <pt x="499" y="184" on="0"/>
        <pt x="531" y="178" on="1"/>
        <pt x="546" y="121" on="0"/>
        <pt x="546" y="28" on="0"/>
        <pt x="543" y="0" on="1"/>
        <pt x="47" y="0" on="1"/>
        <pt x="38" y="55" on="1"/>
        <pt x="103" y="80" on="0"/>
        <pt x="122" y="84" on="1"/>
        <pt x="121" y="143" on="0"/>
        <pt x="120" y="250" on="1"/>
        <pt x="116" y="490" on="0"/>
        <pt x="113" y="613" on="1"/>
        <pt x="30" y="639" on="1"/>
        <pt x="38" y="700" on="1"/>
        <pt x="529" y="700" on="1"/>
        <pt x="532" y="673" on="0"/>
        <pt x="532" y="592" on="0"/>
        <pt x="517" y="520" on="1"/>
        <pt x="486" y="510" on="0"/>
        <pt x="423" y="510" on="1"/>
        <pt x="400" y="600" on="1"/>
      </contour>
      <contour>
        <pt x="218" y="939" on="1"/>
        <pt x="376" y="808" on="1"/>
        <pt x="348" y="772" on="0"/>
        <pt x="314" y="745" on="1"/>
        <pt x="213" y="795" on="0"/>
        <pt x="155" y="852" on="1"/>
        <pt x="157" y="870" on="0"/>
        <pt x="188" y="913" on="0"/>
      </contour>
    </TTGlyph>
    <TTGlyph name="Emacron" xMin="30" yMin="0" xMax="546" yMax="896">
      <contour>
        <pt x="249" y="600" on="1"/>
        <pt x="249" y="486" on="0"/>
        <pt x="247" y="404" on="1"/>
        <pt x="349" y="404" on="1"/>
        <pt x="359" y="473" on="1"/>
        <pt x="410" y="473" on="0"/>
        <pt x="458" y="448" on="1"/>
        <pt x="458" y="248" on="1"/>
        <pt x="392" y="245" on="1"/>
        <pt x="368" y="281" on="0"/>
        <pt x="364" y="308" on="1"/>
        <pt x="246" y="308" on="1"/>
        <pt x="244" y="168" on="0"/>
        <pt x="244" y="97" on="1"/>
        <pt x="415" y="97" on="1"/>
        <pt x="437" y="184" on="1"/>
        <pt x="499" y="184" on="0"/>
        <pt x="531" y="178" on="1"/>
        <pt x="546" y="121" on="0"/>
        <pt x="546" y="28" on="0"/>
        <pt x="543" y="0" on="1"/>
        <pt x="47" y="0" on="1"/>
        <pt x="38" y="55" on="1"/>
        <pt x="103" y="80" on="0"/>
        <pt x="122" y="84" on="1"/>
        <pt x="121" y="143" on="0"/>
        <pt x="120" y="250" on="1"/>
        <pt x="116" y="490" on="0"/>
        <pt x="113" y="613" on="1"/>
        <pt x="30" y="639" on="1"/>
        <pt x="38" y="700" on="1"/>
        <pt x="529" y="700" on="1"/>
        <pt x="532" y="673" on="0"/>
        <pt x="532" y="592" on="0"/>
        <pt x="517" y="520" on="1"/>
        <pt x="486" y="510" on="0"/>
        <pt x="423" y="510" on="1"/>
        <pt x="400" y="600" on="1"/>
      </contour>
      <contour>
        <pt x="191" y="889" on="1"/>
        <pt x="260" y="896" on="0"/>
        <pt x="366" y="896" on="0"/>
        <pt x="439" y="889" on="1"/>
        <pt x="441" y="880" on="0"/>
        <pt x="441" y="850" on="1"/>
        <pt x="438" y="802" on="1"/>
        <pt x="369" y="796" on="0"/>
        <pt x="325" y="796" on="1"/>
        <pt x="192" y="801" on="1"/>
        <pt x="187" y="824" on="0"/>
        <pt x="187" y="841" on="1"/>
      </contour>
    </TTGlyph>
    <TTGlyph name="Eng" xMin="30" yMin="-242" xMax="777" yMax="700">
      <contour>
        <pt x="710" y="611" on="1"/>
        <pt x="707" y="2" on="1"/>
        <pt x="707" y="-132" on="0"/>
        <pt x="664" y="-188" on="1"/>
        <pt x="647" y="-211" on="0"/>
        <pt x="583" y="-242" on="0"/>
        <pt x="482" y="-242" on="0"/>
        <pt x="367" y="-206" on="0"/>
        <pt x="342" y="-182" on="1"/>
        <pt x="343" y="-109" on="0"/>
        <pt x="358" y="-16" on="1"/>
        <pt x="398" y="-5" on="0"/>
        <pt x="456" y="-5" on="1"/>
        <pt x="475" y="-132" on="1"/>
        <pt x="491" y="-136" on="0"/>
        <pt x="522" y="-136" on="1"/>
        <pt x="585" y="-136" on="0"/>
        <pt x="585" y="-40" on="1"/>
        <pt x="585" y="-10" on="1"/>
        <pt x="249" y="538" on="1"/>
        <pt x="245" y="245" on="0"/>
        <pt x="244" y="96" on="1"/>
        <pt x="313" y="87" on="1"/>
        <pt x="313" y="46" on="0"/>
        <pt x="290" y="0" on="1"/>
        <pt x="47" y="0" on="1"/>
        <pt x="38" y="55" on="1"/>
        <pt x="94" y="78" on="0"/>
        <pt x="122" y="84" on="1"/>
        <pt x="122" y="87" on="0"/>
        <pt x="113" y="613" on="1"/>
        <pt x="30" y="639" on="1"/>
        <pt x="38" y="700" on="1"/>
        <pt x="298" y="700" on="1"/>
        <pt x="589" y="178" on="1"/>
        <pt x="574" y="613" on="1"/>
        <pt x="491" y="639" on="1"/>
        <pt x="499" y="700" on="1"/>
        <pt x="758" y="700" on="1"/>
        <pt x="774" y="673" on="0"/>
        <pt x="777" y="621" on="1"/>
        <pt x="726" y="613" on="0"/>
      </contour>
    </TTGlyph>
    <TTGlyph name="Eth" xMin="30" yMin="0" xMax="635" yMax="700">
      <contour>
        <pt x="635" y="365" on="1"/>
        <pt x="635" y="145" on="0"/>
        <pt x="530" y="59" on="1"/>
        <pt x="487" y="25" on="0"/>
        <pt x="387" y="0" on="0"/>
        <pt x="306" y="0" on="1"/>
        <pt x="47" y="0" on="1"/>
        <pt x="38" y="55" on="1"/>
        <pt x="114" y="83" on="0"/>
        <pt x="122" y="84" on="1"/>
        <pt x="120" y="234" on="0"/>
        <pt x="118" y="309" on="1"/>
        <pt x="39" y="312" on="1"/>
        <pt x="36" y="328" on="0"/>
        <pt x="31" y="380" on="0"/>
        <pt x="30" y="389" on="1"/>
        <pt x="77" y="402" on="0"/>
        <pt x="117" y="403" on="1"/>
        <pt x="115" y="473" on="0"/>
        <pt x="113" y="613" on="1"/>
        <pt x="69" y="624" on="0"/>
        <pt x="30" y="639" on="1"/>
        <pt x="36" y="691" on="0"/>
        <pt x="38" y="700" on="1"/>
        <pt x="303" y="700" on="1"/>
        <pt x="401" y="700" on="0"/>
        <pt x="518" y="660" on="0"/>
        <pt x="563" y="609" on="1"/>
        <pt x="635" y="525" on="0"/>
      </contour>
      <contour>
        <pt x="245" y="306" on="1"/>
        <pt x="244" y="97" on="1"/>
        <pt x="315" y="97" on="1"/>
        <pt x="429" y="97" on="0"/>
        <pt x="504" y="207" on="0"/>
        <pt x="504" y="477" on="0"/>
        <pt x="420" y="600" on="0"/>
        <pt x="322" y="600" on="1"/>
        <pt x="249" y="600" on="1"/>
        <pt x="246" y="403" on="1"/>
        <pt x="364" y="399" on="1"/>
        <pt x="371" y="381" on="0"/>
        <pt x="371" y="338" on="0"/>
        <pt x="366" y="313" on="1"/>
        <pt x="298" y="306" on="0"/>
        <pt x="254" y="306" on="1"/>
      </contour>
    </TTGlyph>
    <TTGlyph name="Euro" xMin="15" yMin="-12" xMax="559" yMax="712">
      <contour>
        <pt x="398" y="234" on="1"/>
        <pt x="334" y="222" on="0"/>
        <pt x="250" y="222" on="0"/>
        <pt x="229" y="223" on="1"/>
        <pt x="240" y="159" on="0"/>
        <pt x="299" y="92" on="0"/>
        <pt x="416" y="92" on="0"/>
        <pt x="440" y="108" on="1"/>
        <pt x="461" y="198" on="1"/>
        <pt x="544" y="195" on="1"/>
        <pt x="559" y="92" on="0"/>
        <pt x="559" y="28" on="1"/>
        <pt x="540" y="13" on="0"/>
        <pt x="431" y="-12" on="0"/>
        <pt x="358" y="-12" on="1"/>
        <pt x="243" y="-12" on="0"/>
        <pt x="110" y="100" on="0"/>
        <pt x="91" y="226" on="1"/>
        <pt x="18" y="229" on="1"/>
        <pt x="15" y="252" on="0"/>
        <pt x="15" y="276" on="1"/>
        <pt x="18" y="308" on="1"/>
        <pt x="49" y="316" on="0"/>
        <pt x="85" y="319" on="1"/>
        <pt x="84" y="334" on="0"/>
        <pt x="84" y="366" on="1"/>
        <pt x="18" y="369" on="1"/>
        <pt x="15" y="392" on="0"/>
        <pt x="15" y="416" on="1"/>
        <pt x="18" y="448" on="1"/>
        <pt x="52" y="456" on="0"/>
        <pt x="89" y="459" on="1"/>
        <pt x="122" y="712" on="0"/>
        <pt x="364" y="712" on="1"/>
        <pt x="426" y="712" on="0"/>
        <pt x="487" y="690" on="0"/>
        <pt x="502" y="681" on="1"/>
        <pt x="521" y="670" on="0"/>
        <pt x="548" y="645" on="1"/>
        <pt x="548" y="589" on="0"/>
        <pt x="534" y="503" on="1"/>
        <pt x="502" y="500" on="0"/>
        <pt x="451" y="500" on="1"/>
        <pt x="421" y="603" on="1"/>
        <pt x="401" y="613" on="0"/>
        <pt x="367" y="613" on="1"/>
        <pt x="300" y="613" on="0"/>
        <pt x="274" y="599" on="1"/>
        <pt x="264" y="594" on="1"/>
        <pt x="225" y="541" on="0"/>
        <pt x="225" y="459" on="1"/>
        <pt x="398" y="453" on="1"/>
        <pt x="400" y="442" on="0"/>
        <pt x="400" y="424" on="1"/>
        <pt x="398" y="374" on="1"/>
        <pt x="334" y="362" on="0"/>
        <pt x="248" y="362" on="0"/>
        <pt x="221" y="363" on="1"/>
        <pt x="221" y="338" on="0"/>
        <pt x="222" y="319" on="1"/>
        <pt x="398" y="313" on="1"/>
        <pt x="400" y="302" on="0"/>
        <pt x="400" y="284" on="1"/>
      </contour>
    </TTGlyph>
    <TTGlyph name="F" xMin="30" yMin="0" xMax="532" yMax="700">
      <contour>
        <pt x="249" y="600" on="1"/>
        <pt x="249" y="460" on="0"/>
        <pt x="247" y="380" on="1"/>
        <pt x="349" y="380" on="1"/>
        <pt x="359" y="449" on="1"/>
        <pt x="410" y="449" on="0"/>
        <pt x="458" y="424" on="1"/>
        <pt x="458" y="226" on="1"/>
        <pt x="392" y="221" on="1"/>
        <pt x="368" y="257" on="0"/>
        <pt x="364" y="284" on="1"/>
        <pt x="246" y="284" on="1"/>
        <pt x="244" y="96" on="1"/>
        <pt x="343" y="85" on="1"/>
        <pt x="343" y="46" on="0"/>
        <pt x="320" y="0" on="1"/>
        <pt x="47" y="0" on="1"/>
        <pt x="38" y="55" on="1"/>
        <pt x="103" y="80" on="0"/>
        <pt x="122" y="84" on="1"/>
        <pt x="121" y="143" on="0"/>
        <pt x="120" y="250" on="1"/>
        <pt x="116" y="490" on="0"/>
        <pt x="113" y="613" on="1"/>
        <pt x="30" y="639" on="1"/>
        <pt x="38" y="700" on="1"/>
        <pt x="529" y="700" on="1"/>
        <pt x="532" y="673" on="0"/>
        <pt x="532" y="590" on="0"/>
        <pt x="517" y="518" on="1"/>
        <pt x="495" y="511" on="0"/>
        <pt x="450" y="511" on="1"/>
        <pt x="428" y="512" on="1"/>
        <pt x="423" y="512" on="1"/>
        <pt x="400" y="600" on="1"/>
      </contour>
    </TTGlyph>
    <TTGlyph name="G" xMin="20" yMin="-13" xMax="636" yMax="712">
      <contour>
        <pt x="318" y="-13" on="1"/>
        <pt x="182" y="-13" on="0"/>
        <pt x="20" y="171" on="0"/>
        <pt x="20" y="531" on="0"/>
        <pt x="161" y="712" on="0"/>
        <pt x="319" y="712" on="1"/>
        <pt x="386" y="712" on="0"/>
        <pt x="509" y="676" on="0"/>
        <pt x="553" y="651" on="0"/>
        <pt x="566" y="641" on="1"/>
        <pt x="566" y="577" on="0"/>
        <pt x="550" y="499" on="1"/>
        <pt x="524" y="487" on="0"/>
        <pt x="473" y="487" on="0"/>
        <pt x="455" y="489" on="1"/>
        <pt x="434" y="593" on="1"/>
        <pt x="390" y="605" on="0"/>
        <pt x="348" y="605" on="1"/>
        <pt x="289" y="605" on="0"/>
        <pt x="201" y="581" on="1"/>
        <pt x="157" y="493" on="0"/>
        <pt x="157" y="367" on="1"/>
        <pt x="157" y="91" on="0"/>
        <pt x="319" y="91" on="1"/>
        <pt x="400" y="91" on="0"/>
        <pt x="448" y="118" on="1"/>
        <pt x="450" y="170" on="0"/>
        <pt x="452" y="278" on="1"/>
        <pt x="368" y="304" on="1"/>
        <pt x="376" y="365" on="1"/>
        <pt x="618" y="365" on="1"/>
        <pt x="630" y="343" on="0"/>
        <pt x="636" y="286" on="1"/>
        <pt x="602" y="279" on="0"/>
        <pt x="563" y="276" on="1"/>
        <pt x="569" y="147" on="0"/>
        <pt x="569" y="54" on="1"/>
        <pt x="540" y="35" on="0"/>
        <pt x="388" y="-13" on="0"/>
      </contour>
    </TTGlyph>
    <TTGlyph name="Gbreve" xMin="20" yMin="-13" xMax="636" yMax="928">
      <contour>
        <pt x="318" y="-13" on="1"/>
        <pt x="182" y="-13" on="0"/>
        <pt x="20" y="171" on="0"/>
        <pt x="20" y="531" on="0"/>
        <pt x="161" y="712" on="0"/>
        <pt x="319" y="712" on="1"/>
        <pt x="386" y="712" on="0"/>
        <pt x="509" y="676" on="0"/>
        <pt x="553" y="651" on="0"/>
        <pt x="566" y="641" on="1"/>
        <pt x="566" y="577" on="0"/>
        <pt x="550" y="499" on="1"/>
        <pt x="524" y="487" on="0"/>
        <pt x="473" y="487" on="0"/>
        <pt x="455" y="489" on="1"/>
        <pt x="434" y="593" on="1"/>
        <pt x="390" y="605" on="0"/>
        <pt x="348" y="605" on="1"/>
        <pt x="289" y="605" on="0"/>
        <pt x="201" y="581" on="1"/>
        <pt x="157" y="493" on="0"/>
        <pt x="157" y="367" on="1"/>
        <pt x="157" y="91" on="0"/>
        <pt x="319" y="91" on="1"/>
        <pt x="400" y="91" on="0"/>
        <pt x="448" y="118" on="1"/>
        <pt x="450" y="170" on="0"/>
        <pt x="452" y="278" on="1"/>
        <pt x="368" y="304" on="1"/>
        <pt x="376" y="365" on="1"/>
        <pt x="618" y="365" on="1"/>
        <pt x="630" y="343" on="0"/>
        <pt x="636" y="286" on="1"/>
        <pt x="602" y="279" on="0"/>
        <pt x="563" y="276" on="1"/>
        <pt x="569" y="147" on="0"/>
        <pt x="569" y="54" on="1"/>
        <pt x="540" y="35" on="0"/>
        <pt x="388" y="-13" on="0"/>
      </contour>
      <contour>
        <pt x="480" y="928" on="1"/>
        <pt x="480" y="864" on="0"/>
        <pt x="394" y="766" on="0"/>
        <pt x="251" y="766" on="0"/>
        <pt x="170" y="863" on="0"/>
        <pt x="170" y="928" on="1"/>
        <pt x="252" y="928" on="1"/>
        <pt x="252" y="900" on="0"/>
        <pt x="287" y="859" on="0"/>
        <pt x="324" y="859" on="1"/>
        <pt x="387" y="859" on="0"/>
        <pt x="387" y="928" on="1"/>
      </contour>
    </TTGlyph>
    <TTGlyph name="H" xMin="30" yMin="0" xMax="706" yMax="700">
      <contour>
        <pt x="512" y="84" on="1"/>
        <pt x="508" y="320" on="1"/>
        <pt x="246" y="320" on="1"/>
        <pt x="244" y="170" on="0"/>
        <pt x="244" y="96" on="1"/>
        <pt x="313" y="87" on="1"/>
        <pt x="313" y="46" on="0"/>
        <pt x="290" y="0" on="1"/>
        <pt x="47" y="0" on="1"/>
        <pt x="38" y="55" on="1"/>
        <pt x="94" y="78" on="0"/>
        <pt x="122" y="84" on="1"/>
        <pt x="122" y="87" on="0"/>
        <pt x="113" y="613" on="1"/>
        <pt x="30" y="639" on="1"/>
        <pt x="38" y="700" on="1"/>
        <pt x="297" y="700" on="1"/>
        <pt x="313" y="673" on="0"/>
        <pt x="316" y="621" on="1"/>
        <pt x="265" y="613" on="0"/>
        <pt x="249" y="611" on="1"/>
        <pt x="247" y="481" on="0"/>
        <pt x="247" y="416" on="1"/>
        <pt x="506" y="416" on="1"/>
        <pt x="503" y="613" on="1"/>
        <pt x="420" y="639" on="1"/>
        <pt x="428" y="700" on="1"/>
        <pt x="687" y="700" on="1"/>
        <pt x="703" y="673" on="0"/>
        <pt x="706" y="621" on="1"/>
        <pt x="655" y="613" on="0"/>
        <pt x="639" y="611" on="1"/>
        <pt x="634" y="96" on="1"/>
        <pt x="703" y="87" on="1"/>
        <pt x="703" y="46" on="0"/>
        <pt x="680" y="0" on="1"/>
        <pt x="437" y="0" on="1"/>
        <pt x="428" y="55" on="1"/>
        <pt x="484" y="78" on="0"/>
      </contour>
    </TTGlyph>
    <TTGlyph name="I" xMin="55" yMin="0" xMax="341" yMax="700">
      <contour>
        <pt x="323" y="700" on="1"/>
        <pt x="322" y="700" on="0"/>
        <pt x="325" y="696" on="0"/>
        <pt x="330" y="683" on="0"/>
        <pt x="333" y="674" on="1"/>
        <pt x="339" y="658" on="0"/>
        <pt x="341" y="621" on="1"/>
        <pt x="290" y="613" on="0"/>
        <pt x="274" y="611" on="1"/>
        <pt x="269" y="96" on="1"/>
        <pt x="338" y="87" on="1"/>
        <pt x="338" y="46" on="0"/>
        <pt x="315" y="0" on="1"/>
        <pt x="72" y="0" on="1"/>
        <pt x="63" y="55" on="1"/>
        <pt x="119" y="78" on="0"/>
        <pt x="147" y="84" on="1"/>
        <pt x="146" y="143" on="0"/>
        <pt x="144" y="250" on="1"/>
        <pt x="141" y="490" on="0"/>
        <pt x="138" y="613" on="1"/>
        <pt x="55" y="639" on="1"/>
        <pt x="63" y="700" on="1"/>
      </contour>
    </TTGlyph>
    <TTGlyph name="IJ" xMin="55" yMin="-13" xMax="817" yMax="700">
      <contour>
        <pt x="323" y="700" on="1"/>
        <pt x="322" y="700" on="0"/>
        <pt x="325" y="696" on="0"/>
        <pt x="330" y="683" on="0"/>
        <pt x="333" y="674" on="1"/>
        <pt x="339" y="658" on="0"/>
        <pt x="341" y="621" on="1"/>
        <pt x="290" y="613" on="0"/>
        <pt x="274" y="611" on="1"/>
        <pt x="269" y="96" on="1"/>
        <pt x="338" y="87" on="1"/>
        <pt x="338" y="46" on="0"/>
        <pt x="315" y="0" on="1"/>
        <pt x="72" y="0" on="1"/>
        <pt x="63" y="55" on="1"/>
        <pt x="119" y="78" on="0"/>
        <pt x="147" y="84" on="1"/>
        <pt x="146" y="143" on="0"/>
        <pt x="144" y="250" on="1"/>
        <pt x="141" y="490" on="0"/>
        <pt x="138" y="613" on="1"/>
        <pt x="55" y="639" on="1"/>
        <pt x="63" y="700" on="1"/>
      </contour>
      <contour>
        <pt x="562" y="93" on="1"/>
        <pt x="625" y="93" on="0"/>
        <pt x="625" y="189" on="1"/>
        <pt x="625" y="225" on="0"/>
        <pt x="614" y="613" on="1"/>
        <pt x="531" y="639" on="1"/>
        <pt x="539" y="700" on="1"/>
        <pt x="799" y="700" on="1"/>
        <pt x="817" y="661" on="0"/>
        <pt x="817" y="621" on="1"/>
        <pt x="757" y="611" on="0"/>
        <pt x="750" y="611" on="1"/>
        <pt x="749" y="553" on="0"/>
        <pt x="748" y="255" on="0"/>
        <pt x="744" y="86" on="0"/>
        <pt x="660" y="-13" on="0"/>
        <pt x="580" y="-13" on="1"/>
        <pt x="522" y="-13" on="0"/>
        <pt x="407" y="23" on="0"/>
        <pt x="382" y="47" on="1"/>
        <pt x="383" y="120" on="0"/>
        <pt x="398" y="213" on="1"/>
        <pt x="438" y="224" on="0"/>
        <pt x="496" y="224" on="1"/>
        <pt x="515" y="97" on="1"/>
        <pt x="531" y="93" on="0"/>
      </contour>
    </TTGlyph>
    <TTGlyph name="Iacute" xMin="55" yMin="0" xMax="377" yMax="939">
      <contour>
        <pt x="323" y="700" on="1"/>
        <pt x="322" y="700" on="0"/>
        <pt x="325" y="696" on="0"/>
        <pt x="330" y="683" on="0"/>
        <pt x="333" y="674" on="1"/>
        <pt x="339" y="658" on="0"/>
        <pt x="341" y="621" on="1"/>
        <pt x="290" y="613" on="0"/>
        <pt x="274" y="611" on="1"/>
        <pt x="269" y="96" on="1"/>
        <pt x="338" y="87" on="1"/>
        <pt x="338" y="46" on="0"/>
        <pt x="315" y="0" on="1"/>
        <pt x="72" y="0" on="1"/>
        <pt x="63" y="55" on="1"/>
        <pt x="119" y="78" on="0"/>
        <pt x="147" y="84" on="1"/>
        <pt x="146" y="143" on="0"/>
        <pt x="144" y="250" on="1"/>
        <pt x="141" y="490" on="0"/>
        <pt x="138" y="613" on="1"/>
        <pt x="55" y="639" on="1"/>
        <pt x="63" y="700" on="1"/>
      </contour>
      <contour>
        <pt x="156" y="808" on="1"/>
        <pt x="314" y="939" on="1"/>
        <pt x="373" y="892" on="0"/>
        <pt x="377" y="852" on="1"/>
        <pt x="351" y="827" on="0"/>
        <pt x="272" y="773" on="0"/>
        <pt x="218" y="745" on="1"/>
        <pt x="186" y="769" on="0"/>
      </contour>
    </TTGlyph>
    <TTGlyph name="Ibreve" xMin="55" yMin="0" xMax="365" yMax="928">
      <component glyphName="I" x="0" y="0" flags="0x1004"/>
      <component glyphName="breve" x="10" y="191" flags="0x1004"/>
    </TTGlyph>
    <TTGlyph name="Icircumflex" xMin="49" yMin="0" xMax="366" yMax="938">
      <component glyphName="I" x="0" y="0" flags="0x1004"/>
      <component glyphName="circumflex" x="-47" y="192" flags="0x1004"/>
    </TTGlyph>
    <TTGlyph name="Idieresis" xMin="55" yMin="0" xMax="374" yMax="878">
      <component glyphName="I" x="0" y="0" flags="0x1004"/>
      <component glyphName="dieresis" x="-122" y="192" flags="0x1004"/>
    </TTGlyph>
    <TTGlyph name="Igrave" xMin="50" yMin="0" xMax="341" yMax="939">
      <component glyphName="I" x="0" y="0" flags="0x1004"/>
      <component glyphName="grave" x="-146" y="192" flags="0x1004"/>
    </TTGlyph>
    <TTGlyph name="Imacron" xMin="55" yMin="0" xMax="341" yMax="896">
      <contour>
        <pt x="323" y="700" on="1"/>
        <pt x="322" y="700" on="0"/>
        <pt x="325" y="696" on="0"/>
        <pt x="330" y="683" on="0"/>
        <pt x="333" y="674" on="1"/>
        <pt x="339" y="658" on="0"/>
        <pt x="341" y="621" on="1"/>
        <pt x="290" y="613" on="0"/>
        <pt x="274" y="611" on="1"/>
        <pt x="269" y="96" on="1"/>
        <pt x="338" y="87" on="1"/>
        <pt x="338" y="46" on="0"/>
        <pt x="315" y="0" on="1"/>
        <pt x="72" y="0" on="1"/>
        <pt x="63" y="55" on="1"/>
        <pt x="119" y="78" on="0"/>
        <pt x="147" y="84" on="1"/>
        <pt x="146" y="143" on="0"/>
        <pt x="144" y="250" on="1"/>
        <pt x="141" y="490" on="0"/>
        <pt x="138" y="613" on="1"/>
        <pt x="55" y="639" on="1"/>
        <pt x="63" y="700" on="1"/>
      </contour>
      <contour>
        <pt x="79" y="889" on="1"/>
        <pt x="148" y="896" on="0"/>
        <pt x="254" y="896" on="0"/>
        <pt x="327" y="889" on="1"/>
        <pt x="329" y="880" on="0"/>
        <pt x="329" y="850" on="1"/>
        <pt x="326" y="802" on="1"/>
        <pt x="257" y="796" on="0"/>
        <pt x="213" y="796" on="1"/>
        <pt x="80" y="801" on="1"/>
        <pt x="75" y="824" on="0"/>
        <pt x="75" y="841" on="1"/>
      </contour>
    </TTGlyph>
    <TTGlyph name="Itilde" xMin="18" yMin="0" xMax="393" yMax="904">
      <contour>
        <pt x="323" y="700" on="1"/>
        <pt x="322" y="700" on="0"/>
        <pt x="325" y="696" on="0"/>
        <pt x="330" y="683" on="0"/>
        <pt x="333" y="674" on="1"/>
        <pt x="339" y="658" on="0"/>
        <pt x="341" y="621" on="1"/>
        <pt x="290" y="613" on="0"/>
        <pt x="274" y="611" on="1"/>
        <pt x="269" y="96" on="1"/>
        <pt x="338" y="87" on="1"/>
        <pt x="338" y="46" on="0"/>
        <pt x="315" y="0" on="1"/>
        <pt x="72" y="0" on="1"/>
        <pt x="63" y="55" on="1"/>
        <pt x="119" y="78" on="0"/>
        <pt x="147" y="84" on="1"/>
        <pt x="146" y="143" on="0"/>
        <pt x="144" y="250" on="1"/>
        <pt x="141" y="490" on="0"/>
        <pt x="138" y="613" on="1"/>
        <pt x="55" y="639" on="1"/>
        <pt x="63" y="700" on="1"/>
      </contour>
      <contour>
        <pt x="50" y="757" on="1"/>
        <pt x="31" y="782" on="0"/>
        <pt x="18" y="810" on="1"/>
        <pt x="36" y="835" on="0"/>
        <pt x="109" y="890" on="1"/>
        <pt x="128" y="904" on="0"/>
        <pt x="164" y="904" on="0"/>
        <pt x="254" y="864" on="0"/>
        <pt x="271" y="860" on="1"/>
        <pt x="359" y="902" on="0"/>
        <pt x="360" y="903" on="1"/>
        <pt x="384" y="869" on="0"/>
        <pt x="393" y="850" on="1"/>
        <pt x="365" y="809" on="0"/>
        <pt x="300" y="767" on="1"/>
        <pt x="280" y="753" on="0"/>
        <pt x="265" y="753" on="1"/>
        <pt x="242" y="760" on="0"/>
        <pt x="164" y="793" on="0"/>
        <pt x="144" y="798" on="1"/>
        <pt x="129" y="789" on="0"/>
        <pt x="65" y="764" on="0"/>
      </contour>
    </TTGlyph>
    <TTGlyph name="J" xMin="5" yMin="-13" xMax="440" yMax="700">
      <contour>
        <pt x="185" y="93" on="1"/>
        <pt x="248" y="93" on="0"/>
        <pt x="248" y="189" on="1"/>
        <pt x="248" y="225" on="0"/>
        <pt x="237" y="613" on="1"/>
        <pt x="154" y="639" on="1"/>
        <pt x="162" y="700" on="1"/>
        <pt x="422" y="700" on="1"/>
        <pt x="440" y="661" on="0"/>
        <pt x="440" y="621" on="1"/>
        <pt x="380" y="611" on="0"/>
        <pt x="373" y="611" on="1"/>
        <pt x="372" y="553" on="0"/>
        <pt x="371" y="255" on="0"/>
        <pt x="367" y="86" on="0"/>
        <pt x="283" y="-13" on="0"/>
        <pt x="203" y="-13" on="1"/>
        <pt x="145" y="-13" on="0"/>
        <pt x="30" y="23" on="0"/>
        <pt x="5" y="47" on="1"/>
        <pt x="6" y="120" on="0"/>
        <pt x="21" y="213" on="1"/>
        <pt x="61" y="224" on="0"/>
        <pt x="119" y="224" on="1"/>
        <pt x="138" y="97" on="1"/>
        <pt x="154" y="93" on="0"/>
      </contour>
    </TTGlyph>
    <TTGlyph name="Jcircumflex" xMin="-45" yMin="-13" xMax="483" yMax="938">
      <contour>
        <pt x="135" y="93" on="1"/>
        <pt x="198" y="93" on="0"/>
        <pt x="198" y="189" on="1"/>
        <pt x="198" y="225" on="0"/>
        <pt x="187" y="613" on="1"/>
        <pt x="104" y="639" on="1"/>
        <pt x="112" y="700" on="1"/>
        <pt x="372" y="700" on="1"/>
        <pt x="390" y="661" on="0"/>
        <pt x="390" y="621" on="1"/>
        <pt x="330" y="611" on="0"/>
        <pt x="323" y="611" on="1"/>
        <pt x="322" y="553" on="0"/>
        <pt x="321" y="255" on="0"/>
        <pt x="317" y="86" on="0"/>
        <pt x="233" y="-13" on="0"/>
        <pt x="153" y="-13" on="1"/>
        <pt x="95" y="-13" on="0"/>
        <pt x="-20" y="23" on="0"/>
        <pt x="-45" y="47" on="1"/>
        <pt x="-44" y="120" on="0"/>
        <pt x="-29" y="213" on="1"/>
        <pt x="11" y="224" on="0"/>
        <pt x="69" y="224" on="1"/>
        <pt x="88" y="97" on="1"/>
        <pt x="104" y="93" on="0"/>
      </contour>
      <contour>
        <pt x="429" y="747" on="1"/>
        <pt x="356" y="784" on="0"/>
        <pt x="324" y="808" on="1"/>
        <pt x="306" y="794" on="0"/>
        <pt x="219" y="747" on="1"/>
        <pt x="181" y="783" on="0"/>
        <pt x="166" y="807" on="1"/>
        <pt x="324" y="938" on="1"/>
        <pt x="483" y="807" on="1"/>
        <pt x="469" y="785" on="0"/>
      </contour>
    </TTGlyph>
    <TTGlyph name="K" xMin="30" yMin="0" xMax="691" yMax="700">
      <contour>
        <pt x="245" y="216" on="1"/>
        <pt x="244" y="96" on="1"/>
        <pt x="313" y="87" on="1"/>
        <pt x="313" y="46" on="0"/>
        <pt x="290" y="0" on="1"/>
        <pt x="47" y="0" on="1"/>
        <pt x="38" y="55" on="1"/>
        <pt x="94" y="78" on="0"/>
        <pt x="122" y="84" on="1"/>
        <pt x="122" y="87" on="0"/>
        <pt x="113" y="613" on="1"/>
        <pt x="30" y="639" on="1"/>
        <pt x="38" y="700" on="1"/>
        <pt x="297" y="700" on="1"/>
        <pt x="313" y="673" on="0"/>
        <pt x="316" y="621" on="1"/>
        <pt x="265" y="613" on="0"/>
        <pt x="249" y="611" on="1"/>
        <pt x="246" y="385" on="1"/>
        <pt x="443" y="611" on="1"/>
        <pt x="380" y="621" on="1"/>
        <pt x="380" y="651" on="0"/>
        <pt x="398" y="700" on="1"/>
        <pt x="658" y="700" on="1"/>
        <pt x="664" y="664" on="0"/>
        <pt x="666" y="639" on="1"/>
        <pt x="613" y="619" on="0"/>
        <pt x="583" y="613" on="1"/>
        <pt x="400" y="375" on="1"/>
        <pt x="602" y="97" on="1"/>
        <pt x="691" y="88" on="1"/>
        <pt x="691" y="46" on="0"/>
        <pt x="668" y="0" on="1"/>
        <pt x="525" y="0" on="1"/>
        <pt x="319" y="296" on="1"/>
      </contour>
    </TTGlyph>
    <TTGlyph name="L" xMin="69" yMin="0" xMax="577" yMax="700">
      <contour>
        <pt x="467" y="182" on="1"/>
        <pt x="491" y="186" on="0"/>
        <pt x="516" y="186" on="0"/>
        <pt x="558" y="179" on="1"/>
        <pt x="562" y="171" on="0"/>
        <pt x="577" y="85" on="0"/>
        <pt x="577" y="32" on="0"/>
        <pt x="571" y="0" on="1"/>
        <pt x="86" y="0" on="1"/>
        <pt x="77" y="55" on="1"/>
        <pt x="126" y="75" on="0"/>
        <pt x="161" y="84" on="1"/>
        <pt x="161" y="87" on="0"/>
        <pt x="152" y="613" on="1"/>
        <pt x="69" y="639" on="1"/>
        <pt x="77" y="700" on="1"/>
        <pt x="337" y="700" on="1"/>
        <pt x="336" y="700" on="0"/>
        <pt x="339" y="696" on="0"/>
        <pt x="344" y="683" on="0"/>
        <pt x="347" y="674" on="1"/>
        <pt x="353" y="658" on="0"/>
        <pt x="355" y="621" on="1"/>
        <pt x="304" y="613" on="0"/>
        <pt x="288" y="611" on="1"/>
        <pt x="284" y="266" on="0"/>
        <pt x="283" y="96" on="1"/>
        <pt x="445" y="96" on="1"/>
      </contour>
    </TTGlyph>
    <TTGlyph name="Ldotaccent" xMin="69" yMin="0" xMax="577" yMax="700">
      <component glyphName="L" x="0" y="0" flags="0x1004"/>
      <component glyphName="dotaccent" x="403" y="-316" flags="0x1004"/>
    </TTGlyph>
    <TTGlyph name="Ll" xMin="49" yMin="0" xMax="795" yMax="700">
      <contour>
        <pt x="685" y="182" on="1"/>
        <pt x="709" y="186" on="0"/>
        <pt x="734" y="186" on="0"/>
        <pt x="776" y="179" on="1"/>
        <pt x="780" y="171" on="0"/>
        <pt x="795" y="85" on="0"/>
        <pt x="795" y="32" on="0"/>
        <pt x="789" y="0" on="1"/>
        <pt x="66" y="0" on="1"/>
        <pt x="57" y="55" on="1"/>
        <pt x="106" y="75" on="0"/>
        <pt x="141" y="84" on="1"/>
        <pt x="141" y="87" on="0"/>
        <pt x="132" y="613" on="1"/>
        <pt x="49" y="639" on="1"/>
        <pt x="57" y="700" on="1"/>
        <pt x="317" y="700" on="1"/>
        <pt x="316" y="700" on="0"/>
        <pt x="319" y="696" on="0"/>
        <pt x="324" y="683" on="0"/>
        <pt x="327" y="674" on="1"/>
        <pt x="333" y="658" on="0"/>
        <pt x="335" y="621" on="1"/>
        <pt x="284" y="613" on="0"/>
        <pt x="268" y="611" on="1"/>
        <pt x="264" y="266" on="0"/>
        <pt x="263" y="96" on="1"/>
        <pt x="663" y="96" on="1"/>
      </contour>
      <contour>
        <pt x="684" y="415" on="1"/>
        <pt x="708" y="419" on="0"/>
        <pt x="733" y="419" on="0"/>
        <pt x="775" y="412" on="1"/>
        <pt x="779" y="404" on="0"/>
        <pt x="794" y="318" on="0"/>
        <pt x="794" y="264" on="0"/>
        <pt x="788" y="233" on="1"/>
        <pt x="383" y="233" on="1"/>
        <pt x="374" y="288" on="1"/>
        <pt x="423" y="308" on="0"/>
        <pt x="458" y="317" on="1"/>
        <pt x="457" y="378" on="0"/>
        <pt x="450" y="583" on="0"/>
        <pt x="449" y="613" on="1"/>
        <pt x="366" y="639" on="1"/>
        <pt x="374" y="700" on="1"/>
        <pt x="634" y="700" on="1"/>
        <pt x="633" y="700" on="0"/>
        <pt x="636" y="696" on="0"/>
        <pt x="641" y="683" on="0"/>
        <pt x="644" y="674" on="1"/>
        <pt x="650" y="658" on="0"/>
        <pt x="652" y="621" on="1"/>
        <pt x="601" y="613" on="0"/>
        <pt x="585" y="611" on="1"/>
        <pt x="581" y="393" on="0"/>
        <pt x="580" y="329" on="1"/>
        <pt x="662" y="329" on="1"/>
      </contour>
    </TTGlyph>
    <TTGlyph name="Lslash" xMin="63" yMin="0" xMax="577" yMax="700">
      <contour>
        <pt x="156" y="364" on="1"/>
        <pt x="152" y="613" on="1"/>
        <pt x="69" y="639" on="1"/>
        <pt x="77" y="700" on="1"/>
        <pt x="336" y="700" on="1"/>
        <pt x="352" y="673" on="0"/>
        <pt x="355" y="621" on="1"/>
        <pt x="304" y="613" on="0"/>
        <pt x="288" y="611" on="1"/>
        <pt x="288" y="588" on="0"/>
        <pt x="287" y="546" on="1"/>
        <pt x="285" y="464" on="0"/>
        <pt x="285" y="407" on="1"/>
        <pt x="307" y="415" on="0"/>
        <pt x="356" y="428" on="1"/>
        <pt x="378" y="382" on="0"/>
        <pt x="383" y="345" on="1"/>
        <pt x="329" y="319" on="0"/>
        <pt x="284" y="305" on="1"/>
        <pt x="283" y="235" on="0"/>
        <pt x="283" y="96" on="1"/>
        <pt x="445" y="96" on="1"/>
        <pt x="467" y="182" on="1"/>
        <pt x="491" y="186" on="0"/>
        <pt x="516" y="186" on="0"/>
        <pt x="558" y="179" on="1"/>
        <pt x="562" y="171" on="0"/>
        <pt x="577" y="85" on="0"/>
        <pt x="577" y="32" on="0"/>
        <pt x="571" y="0" on="1"/>
        <pt x="86" y="0" on="1"/>
        <pt x="77" y="55" on="1"/>
        <pt x="126" y="75" on="0"/>
        <pt x="161" y="84" on="1"/>
        <pt x="161" y="183" on="0"/>
        <pt x="158" y="264" on="1"/>
        <pt x="93" y="243" on="1"/>
        <pt x="73" y="277" on="0"/>
        <pt x="63" y="323" on="1"/>
        <pt x="113" y="348" on="0"/>
      </contour>
    </TTGlyph>
    <TTGlyph name="Lu" xMin="49" yMin="0" xMax="965" yMax="700">
      <contour>
        <pt x="785" y="182" on="1"/>
        <pt x="809" y="186" on="0"/>
        <pt x="834" y="186" on="0"/>
        <pt x="876" y="179" on="1"/>
        <pt x="880" y="171" on="0"/>
        <pt x="895" y="85" on="0"/>
        <pt x="895" y="32" on="0"/>
        <pt x="889" y="0" on="1"/>
        <pt x="66" y="0" on="1"/>
        <pt x="57" y="55" on="1"/>
        <pt x="106" y="75" on="0"/>
        <pt x="141" y="84" on="1"/>
        <pt x="141" y="87" on="0"/>
        <pt x="132" y="613" on="1"/>
        <pt x="49" y="639" on="1"/>
        <pt x="57" y="700" on="1"/>
        <pt x="317" y="700" on="1"/>
        <pt x="316" y="700" on="0"/>
        <pt x="319" y="696" on="0"/>
        <pt x="324" y="683" on="0"/>
        <pt x="327" y="674" on="1"/>
        <pt x="333" y="658" on="0"/>
        <pt x="335" y="621" on="1"/>
        <pt x="284" y="613" on="0"/>
        <pt x="268" y="611" on="1"/>
        <pt x="264" y="266" on="0"/>
        <pt x="263" y="96" on="1"/>
        <pt x="763" y="96" on="1"/>
      </contour>
      <contour>
        <pt x="947" y="700" on="1"/>
        <pt x="962" y="670" on="0"/>
        <pt x="965" y="621" on="1"/>
        <pt x="965" y="611" on="0"/>
        <pt x="898" y="611" on="1"/>
        <pt x="896" y="477" on="1"/>
        <pt x="894" y="366" on="0"/>
        <pt x="787" y="228" on="0"/>
        <pt x="549" y="228" on="0"/>
        <pt x="445" y="355" on="0"/>
        <pt x="443" y="469" on="1"/>
        <pt x="441" y="557" on="0"/>
        <pt x="439" y="613" on="1"/>
        <pt x="356" y="639" on="1"/>
        <pt x="364" y="700" on="1"/>
        <pt x="624" y="700" on="1"/>
        <pt x="623" y="700" on="0"/>
        <pt x="626" y="696" on="0"/>
        <pt x="631" y="683" on="0"/>
        <pt x="634" y="674" on="1"/>
        <pt x="640" y="658" on="0"/>
        <pt x="642" y="621" on="1"/>
        <pt x="591" y="613" on="0"/>
        <pt x="575" y="611" on="1"/>
        <pt x="572" y="477" on="1"/>
        <pt x="572" y="407" on="0"/>
        <pt x="613" y="334" on="0"/>
        <pt x="668" y="334" on="1"/>
        <pt x="766" y="334" on="0"/>
        <pt x="766" y="483" on="1"/>
        <pt x="766" y="483" on="0"/>
        <pt x="762" y="613" on="1"/>
        <pt x="679" y="639" on="1"/>
        <pt x="687" y="700" on="1"/>
      </contour>
    </TTGlyph>
    <TTGlyph name="M" xMin="15" yMin="0" xMax="936" yMax="700">
      <contour>
        <pt x="519" y="204" on="1"/>
        <pt x="611" y="700" on="1"/>
        <pt x="871" y="700" on="1"/>
        <pt x="879" y="657" on="0"/>
        <pt x="879" y="639" on="1"/>
        <pt x="831" y="622" on="0"/>
        <pt x="796" y="613" on="1"/>
        <pt x="867" y="96" on="1"/>
        <pt x="936" y="87" on="1"/>
        <pt x="936" y="46" on="0"/>
        <pt x="913" y="0" on="1"/>
        <pt x="670" y="0" on="1"/>
        <pt x="661" y="55" on="1"/>
        <pt x="717" y="78" on="0"/>
        <pt x="745" y="84" on="1"/>
        <pt x="668" y="492" on="1"/>
        <pt x="566" y="49" on="1"/>
        <pt x="464" y="49" on="1"/>
        <pt x="306" y="538" on="1"/>
        <pt x="221" y="96" on="1"/>
        <pt x="290" y="87" on="1"/>
        <pt x="290" y="46" on="0"/>
        <pt x="267" y="0" on="1"/>
        <pt x="24" y="0" on="1"/>
        <pt x="15" y="55" on="1"/>
        <pt x="71" y="78" on="0"/>
        <pt x="99" y="84" on="1"/>
        <pt x="170" y="613" on="1"/>
        <pt x="87" y="639" on="1"/>
        <pt x="95" y="700" on="1"/>
        <pt x="375" y="700" on="1"/>
        <pt x="509" y="204" on="1"/>
      </contour>
    </TTGlyph>
    <TTGlyph name="N" xMin="30" yMin="0" xMax="777" yMax="700">
      <contour>
        <pt x="710" y="611" on="1"/>
        <pt x="707" y="0" on="1"/>
        <pt x="579" y="0" on="1"/>
        <pt x="249" y="538" on="1"/>
        <pt x="245" y="245" on="0"/>
        <pt x="244" y="96" on="1"/>
        <pt x="313" y="87" on="1"/>
        <pt x="313" y="46" on="0"/>
        <pt x="290" y="0" on="1"/>
        <pt x="47" y="0" on="1"/>
        <pt x="38" y="55" on="1"/>
        <pt x="94" y="78" on="0"/>
        <pt x="122" y="84" on="1"/>
        <pt x="122" y="87" on="0"/>
        <pt x="113" y="613" on="1"/>
        <pt x="30" y="639" on="1"/>
        <pt x="38" y="700" on="1"/>
        <pt x="298" y="700" on="1"/>
        <pt x="589" y="178" on="1"/>
        <pt x="574" y="613" on="1"/>
        <pt x="491" y="639" on="1"/>
        <pt x="499" y="700" on="1"/>
        <pt x="759" y="700" on="1"/>
        <pt x="758" y="700" on="0"/>
        <pt x="761" y="696" on="0"/>
        <pt x="766" y="683" on="0"/>
        <pt x="769" y="674" on="1"/>
        <pt x="775" y="658" on="0"/>
        <pt x="777" y="621" on="1"/>
        <pt x="726" y="613" on="0"/>
      </contour>
    </TTGlyph>
    <TTGlyph name="Nacute" xMin="30" yMin="0" xMax="777" yMax="939">
      <component glyphName="N" x="0" y="0" flags="0x1004"/>
      <component glyphName="acute" x="316" y="192" flags="0x1004"/>
    </TTGlyph>
    <TTGlyph name="Ntilde" xMin="30" yMin="0" xMax="777" yMax="904">
      <contour>
        <pt x="710" y="611" on="1"/>
        <pt x="707" y="0" on="1"/>
        <pt x="579" y="0" on="1"/>
        <pt x="249" y="538" on="1"/>
        <pt x="245" y="245" on="0"/>
        <pt x="244" y="96" on="1"/>
        <pt x="313" y="87" on="1"/>
        <pt x="313" y="46" on="0"/>
        <pt x="290" y="0" on="1"/>
        <pt x="47" y="0" on="1"/>
        <pt x="38" y="55" on="1"/>
        <pt x="94" y="78" on="0"/>
        <pt x="122" y="84" on="1"/>
        <pt x="122" y="87" on="0"/>
        <pt x="113" y="613" on="1"/>
        <pt x="30" y="639" on="1"/>
        <pt x="38" y="700" on="1"/>
        <pt x="298" y="700" on="1"/>
        <pt x="589" y="178" on="1"/>
        <pt x="574" y="613" on="1"/>
        <pt x="491" y="639" on="1"/>
        <pt x="499" y="700" on="1"/>
        <pt x="759" y="700" on="1"/>
        <pt x="758" y="700" on="0"/>
        <pt x="761" y="696" on="0"/>
        <pt x="766" y="683" on="0"/>
        <pt x="769" y="674" on="1"/>
        <pt x="775" y="658" on="0"/>
        <pt x="777" y="621" on="1"/>
        <pt x="726" y="613" on="0"/>
      </contour>
      <contour>
        <pt x="251" y="757" on="1"/>
        <pt x="232" y="782" on="0"/>
        <pt x="219" y="810" on="1"/>
        <pt x="237" y="835" on="0"/>
        <pt x="310" y="890" on="1"/>
        <pt x="329" y="904" on="0"/>
        <pt x="365" y="904" on="0"/>
        <pt x="455" y="864" on="0"/>
        <pt x="472" y="860" on="1"/>
        <pt x="560" y="902" on="0"/>
        <pt x="561" y="903" on="1"/>
        <pt x="585" y="869" on="0"/>
        <pt x="594" y="850" on="1"/>
        <pt x="566" y="809" on="0"/>
        <pt x="501" y="767" on="1"/>
        <pt x="481" y="753" on="0"/>
        <pt x="466" y="753" on="1"/>
        <pt x="443" y="760" on="0"/>
        <pt x="365" y="793" on="0"/>
        <pt x="345" y="798" on="1"/>
        <pt x="330" y="789" on="0"/>
        <pt x="266" y="764" on="0"/>
      </contour>
    </TTGlyph>
    <TTGlyph name="O" xMin="20" yMin="-12" xMax="633" yMax="712">
      <contour>
        <pt x="330" y="94" on="1"/>
        <pt x="496" y="94" on="0"/>
        <pt x="496" y="604" on="0"/>
        <pt x="330" y="604" on="1"/>
        <pt x="258" y="604" on="0"/>
        <pt x="204" y="582" on="1"/>
        <pt x="158" y="486" on="0"/>
        <pt x="158" y="233" on="0"/>
        <pt x="234" y="94" on="0"/>
      </contour>
      <contour>
        <pt x="330" y="712" on="1"/>
        <pt x="497" y="712" on="0"/>
        <pt x="633" y="537" on="0"/>
        <pt x="633" y="357" on="1"/>
        <pt x="633" y="244" on="0"/>
        <pt x="575" y="84" on="0"/>
        <pt x="437" y="-12" on="0"/>
        <pt x="330" y="-12" on="1"/>
        <pt x="167" y="-12" on="0"/>
        <pt x="20" y="170" on="0"/>
        <pt x="20" y="344" on="1"/>
        <pt x="20" y="712" on="0"/>
      </contour>
    </TTGlyph>
    <TTGlyph name="OE" xMin="20" yMin="-4" xMax="820" yMax="700">
      <contour>
        <pt x="710" y="184" on="1"/>
        <pt x="746" y="185" on="1"/>
        <pt x="804" y="178" on="1"/>
        <pt x="820" y="113" on="0"/>
        <pt x="820" y="28" on="0"/>
        <pt x="816" y="0" on="1"/>
        <pt x="421" y="0" on="1"/>
        <pt x="385" y="-4" on="0"/>
        <pt x="329" y="-4" on="1"/>
        <pt x="175" y="-4" on="0"/>
        <pt x="20" y="162" on="0"/>
        <pt x="20" y="517" on="0"/>
        <pt x="164" y="700" on="0"/>
        <pt x="324" y="700" on="1"/>
        <pt x="802" y="700" on="1"/>
        <pt x="806" y="672" on="0"/>
        <pt x="806" y="646" on="1"/>
        <pt x="806" y="592" on="0"/>
        <pt x="790" y="518" on="1"/>
        <pt x="759" y="511" on="0"/>
        <pt x="732" y="511" on="1"/>
        <pt x="696" y="512" on="1"/>
        <pt x="674" y="601" on="1"/>
        <pt x="525" y="601" on="1"/>
        <pt x="523" y="519" on="0"/>
        <pt x="521" y="404" on="1"/>
        <pt x="623" y="404" on="1"/>
        <pt x="633" y="473" on="1"/>
        <pt x="683" y="473" on="0"/>
        <pt x="731" y="448" on="1"/>
        <pt x="731" y="244" on="1"/>
        <pt x="666" y="244" on="1"/>
        <pt x="642" y="281" on="0"/>
        <pt x="637" y="308" on="1"/>
        <pt x="520" y="308" on="1"/>
        <pt x="517" y="96" on="1"/>
        <pt x="688" y="96" on="1"/>
      </contour>
      <contour>
        <pt x="387" y="596" on="1"/>
        <pt x="358" y="604" on="0"/>
        <pt x="328" y="604" on="1"/>
        <pt x="264" y="604" on="0"/>
        <pt x="205" y="583" on="1"/>
        <pt x="160" y="501" on="0"/>
        <pt x="160" y="344" on="1"/>
        <pt x="160" y="95" on="0"/>
        <pt x="329" y="95" on="1"/>
        <pt x="362" y="95" on="0"/>
        <pt x="396" y="107" on="1"/>
      </contour>
    </TTGlyph>
    <TTGlyph name="Oacute" xMin="20" yMin="-12" xMax="633" yMax="939">
      <component glyphName="O" x="0" y="0" flags="0x1004"/>
      <component glyphName="acute" x="198" y="192" flags="0x1004"/>
    </TTGlyph>
    <TTGlyph name="Obreve" xMin="20" yMin="-12" xMax="633" yMax="928">
      <contour>
        <pt x="330" y="94" on="1"/>
        <pt x="496" y="94" on="0"/>
        <pt x="496" y="604" on="0"/>
        <pt x="330" y="604" on="1"/>
        <pt x="258" y="604" on="0"/>
        <pt x="204" y="582" on="1"/>
        <pt x="158" y="486" on="0"/>
        <pt x="158" y="233" on="0"/>
        <pt x="234" y="94" on="0"/>
      </contour>
      <contour>
        <pt x="330" y="712" on="1"/>
        <pt x="497" y="712" on="0"/>
        <pt x="633" y="537" on="0"/>
        <pt x="633" y="357" on="1"/>
        <pt x="633" y="244" on="0"/>
        <pt x="575" y="84" on="0"/>
        <pt x="437" y="-12" on="0"/>
        <pt x="330" y="-12" on="1"/>
        <pt x="167" y="-12" on="0"/>
        <pt x="20" y="170" on="0"/>
        <pt x="20" y="344" on="1"/>
        <pt x="20" y="712" on="0"/>
      </contour>
      <contour>
        <pt x="480" y="928" on="1"/>
        <pt x="480" y="864" on="0"/>
        <pt x="394" y="766" on="0"/>
        <pt x="251" y="766" on="0"/>
        <pt x="170" y="863" on="0"/>
        <pt x="170" y="928" on="1"/>
        <pt x="252" y="928" on="1"/>
        <pt x="252" y="900" on="0"/>
        <pt x="287" y="859" on="0"/>
        <pt x="324" y="859" on="1"/>
        <pt x="387" y="859" on="0"/>
        <pt x="387" y="928" on="1"/>
      </contour>
    </TTGlyph>
    <TTGlyph name="Ocircumflex" xMin="20" yMin="-12" xMax="633" yMax="938">
      <component glyphName="O" x="0" y="0" flags="0x1004"/>
      <component glyphName="circumflex" x="71" y="192" flags="0x1004"/>
    </TTGlyph>
    <TTGlyph name="Odieresis" xMin="20" yMin="-12" xMax="633" yMax="878">
      <contour>
        <pt x="330" y="94" on="1"/>
        <pt x="496" y="94" on="0"/>
        <pt x="496" y="604" on="0"/>
        <pt x="330" y="604" on="1"/>
        <pt x="258" y="604" on="0"/>
        <pt x="204" y="582" on="1"/>
        <pt x="158" y="486" on="0"/>
        <pt x="158" y="233" on="0"/>
        <pt x="234" y="94" on="0"/>
      </contour>
      <contour>
        <pt x="330" y="712" on="1"/>
        <pt x="497" y="712" on="0"/>
        <pt x="633" y="537" on="0"/>
        <pt x="633" y="357" on="1"/>
        <pt x="633" y="244" on="0"/>
        <pt x="575" y="84" on="0"/>
        <pt x="437" y="-12" on="0"/>
        <pt x="330" y="-12" on="1"/>
        <pt x="167" y="-12" on="0"/>
        <pt x="20" y="170" on="0"/>
        <pt x="20" y="344" on="1"/>
        <pt x="20" y="712" on="0"/>
      </contour>
      <contour>
        <pt x="300" y="875" on="1"/>
        <pt x="308" y="841" on="0"/>
        <pt x="308" y="800" on="0"/>
        <pt x="305" y="773" on="1"/>
        <pt x="275" y="765" on="0"/>
        <pt x="224" y="765" on="0"/>
        <pt x="191" y="768" on="1"/>
        <pt x="183" y="802" on="0"/>
        <pt x="183" y="843" on="0"/>
        <pt x="186" y="870" on="1"/>
        <pt x="216" y="878" on="0"/>
        <pt x="267" y="878" on="0"/>
      </contour>
      <contour>
        <pt x="463" y="875" on="1"/>
        <pt x="471" y="841" on="0"/>
        <pt x="471" y="800" on="0"/>
        <pt x="468" y="773" on="1"/>
        <pt x="438" y="765" on="0"/>
        <pt x="387" y="765" on="0"/>
        <pt x="354" y="768" on="1"/>
        <pt x="346" y="802" on="0"/>
        <pt x="346" y="843" on="0"/>
        <pt x="349" y="870" on="1"/>
        <pt x="379" y="878" on="0"/>
        <pt x="430" y="878" on="0"/>
      </contour>
    </TTGlyph>
    <TTGlyph name="Ograve" xMin="20" yMin="-12" xMax="633" yMax="939">
      <contour>
        <pt x="330" y="94" on="1"/>
        <pt x="496" y="94" on="0"/>
        <pt x="496" y="604" on="0"/>
        <pt x="330" y="604" on="1"/>
        <pt x="258" y="604" on="0"/>
        <pt x="204" y="582" on="1"/>
        <pt x="158" y="486" on="0"/>
        <pt x="158" y="233" on="0"/>
        <pt x="234" y="94" on="0"/>
      </contour>
      <contour>
        <pt x="330" y="712" on="1"/>
        <pt x="497" y="712" on="0"/>
        <pt x="633" y="537" on="0"/>
        <pt x="633" y="357" on="1"/>
        <pt x="633" y="244" on="0"/>
        <pt x="575" y="84" on="0"/>
        <pt x="437" y="-12" on="0"/>
        <pt x="330" y="-12" on="1"/>
        <pt x="167" y="-12" on="0"/>
        <pt x="20" y="170" on="0"/>
        <pt x="20" y="344" on="1"/>
        <pt x="20" y="712" on="0"/>
      </contour>
      <contour>
        <pt x="255" y="939" on="1"/>
        <pt x="413" y="808" on="1"/>
        <pt x="385" y="772" on="0"/>
        <pt x="351" y="745" on="1"/>
        <pt x="250" y="795" on="0"/>
        <pt x="192" y="852" on="1"/>
        <pt x="194" y="870" on="0"/>
        <pt x="225" y="913" on="0"/>
      </contour>
    </TTGlyph>
    <TTGlyph name="Omacron" xMin="20" yMin="-12" xMax="633" yMax="896">
      <contour>
        <pt x="330" y="94" on="1"/>
        <pt x="496" y="94" on="0"/>
        <pt x="496" y="604" on="0"/>
        <pt x="330" y="604" on="1"/>
        <pt x="258" y="604" on="0"/>
        <pt x="204" y="582" on="1"/>
        <pt x="158" y="486" on="0"/>
        <pt x="158" y="233" on="0"/>
        <pt x="234" y="94" on="0"/>
      </contour>
      <contour>
        <pt x="330" y="712" on="1"/>
        <pt x="497" y="712" on="0"/>
        <pt x="633" y="537" on="0"/>
        <pt x="633" y="357" on="1"/>
        <pt x="633" y="244" on="0"/>
        <pt x="575" y="84" on="0"/>
        <pt x="437" y="-12" on="0"/>
        <pt x="330" y="-12" on="1"/>
        <pt x="167" y="-12" on="0"/>
        <pt x="20" y="170" on="0"/>
        <pt x="20" y="344" on="1"/>
        <pt x="20" y="712" on="0"/>
      </contour>
      <contour>
        <pt x="208" y="889" on="1"/>
        <pt x="277" y="896" on="0"/>
        <pt x="382" y="896" on="0"/>
        <pt x="456" y="889" on="1"/>
        <pt x="458" y="880" on="0"/>
        <pt x="458" y="850" on="1"/>
        <pt x="455" y="802" on="1"/>
        <pt x="386" y="796" on="0"/>
        <pt x="342" y="796" on="1"/>
        <pt x="209" y="801" on="1"/>
        <pt x="204" y="824" on="0"/>
        <pt x="204" y="841" on="1"/>
      </contour>
    </TTGlyph>
    <TTGlyph name="Omega" xMin="65" yMin="0" xMax="672" yMax="712">
      <contour>
        <pt x="473" y="113" on="0"/>
        <pt x="541" y="239" on="0"/>
        <pt x="541" y="471" on="0"/>
        <pt x="457" y="604" on="0"/>
        <pt x="367" y="604" on="1"/>
        <pt x="310" y="604" on="0"/>
        <pt x="247" y="581" on="1"/>
        <pt x="242" y="572" on="0"/>
        <pt x="226" y="540" on="0"/>
        <pt x="199" y="428" on="0"/>
        <pt x="199" y="366" on="1"/>
        <pt x="199" y="251" on="0"/>
        <pt x="250" y="129" on="0"/>
        <pt x="324" y="96" on="1"/>
        <pt x="324" y="46" on="0"/>
        <pt x="307" y="0" on="1"/>
        <pt x="69" y="0" on="1"/>
        <pt x="66" y="67" on="1"/>
        <pt x="124" y="92" on="0"/>
        <pt x="165" y="100" on="1"/>
        <pt x="117" y="145" on="0"/>
        <pt x="65" y="291" on="0"/>
        <pt x="65" y="363" on="1"/>
        <pt x="65" y="526" on="0"/>
        <pt x="211" y="712" on="0"/>
        <pt x="532" y="712" on="0"/>
        <pt x="672" y="543" on="0"/>
        <pt x="672" y="373" on="1"/>
        <pt x="672" y="300" on="0"/>
        <pt x="609" y="144" on="0"/>
        <pt x="559" y="100" on="1"/>
        <pt x="670" y="67" on="1"/>
        <pt x="667" y="0" on="1"/>
        <pt x="421" y="0" on="1"/>
        <pt x="404" y="46" on="0"/>
        <pt x="404" y="96" on="1"/>
      </contour>
    </TTGlyph>
    <TTGlyph name="Oslash" xMin="20" yMin="-99" xMax="633" yMax="799">
      <contour>
        <pt x="330" y="712" on="1"/>
        <pt x="372" y="712" on="0"/>
        <pt x="407" y="706" on="1"/>
        <pt x="440" y="799" on="1"/>
        <pt x="471" y="796" on="0"/>
        <pt x="523" y="769" on="1"/>
        <pt x="491" y="682" on="1"/>
        <pt x="567" y="646" on="0"/>
        <pt x="633" y="485" on="0"/>
        <pt x="633" y="244" on="0"/>
        <pt x="575" y="84" on="0"/>
        <pt x="437" y="-12" on="0"/>
        <pt x="330" y="-12" on="1"/>
        <pt x="280" y="-12" on="0"/>
        <pt x="238" y="-3" on="1"/>
        <pt x="203" y="-99" on="1"/>
        <pt x="175" y="-96" on="0"/>
        <pt x="150" y="-86" on="0"/>
        <pt x="132" y="-72" on="1"/>
        <pt x="165" y="22" on="1"/>
        <pt x="20" y="97" on="0"/>
        <pt x="20" y="344" on="1"/>
        <pt x="20" y="712" on="0"/>
      </contour>
      <contour>
        <pt x="330" y="90" on="1"/>
        <pt x="500" y="90" on="0"/>
        <pt x="500" y="346" on="1"/>
        <pt x="500" y="492" on="0"/>
        <pt x="445" y="558" on="1"/>
        <pt x="275" y="97" on="1"/>
        <pt x="297" y="90" on="0"/>
      </contour>
      <contour>
        <pt x="200" y="582" on="1"/>
        <pt x="154" y="486" on="0"/>
        <pt x="154" y="205" on="0"/>
        <pt x="207" y="141" on="1"/>
        <pt x="371" y="603" on="1"/>
        <pt x="349" y="608" on="0"/>
        <pt x="330" y="608" on="1"/>
        <pt x="255" y="608" on="0"/>
      </contour>
    </TTGlyph>
    <TTGlyph name="Otilde" xMin="20" yMin="-12" xMax="633" yMax="904">
      <contour>
        <pt x="330" y="94" on="1"/>
        <pt x="496" y="94" on="0"/>
        <pt x="496" y="604" on="0"/>
        <pt x="330" y="604" on="1"/>
        <pt x="258" y="604" on="0"/>
        <pt x="204" y="582" on="1"/>
        <pt x="158" y="486" on="0"/>
        <pt x="158" y="233" on="0"/>
        <pt x="234" y="94" on="0"/>
      </contour>
      <contour>
        <pt x="330" y="712" on="1"/>
        <pt x="497" y="712" on="0"/>
        <pt x="633" y="537" on="0"/>
        <pt x="633" y="357" on="1"/>
        <pt x="633" y="244" on="0"/>
        <pt x="575" y="84" on="0"/>
        <pt x="437" y="-12" on="0"/>
        <pt x="330" y="-12" on="1"/>
        <pt x="167" y="-12" on="0"/>
        <pt x="20" y="170" on="0"/>
        <pt x="20" y="344" on="1"/>
        <pt x="20" y="712" on="0"/>
      </contour>
      <contour>
        <pt x="190" y="757" on="1"/>
        <pt x="171" y="782" on="0"/>
        <pt x="158" y="810" on="1"/>
        <pt x="176" y="835" on="0"/>
        <pt x="249" y="890" on="1"/>
        <pt x="268" y="904" on="0"/>
        <pt x="304" y="904" on="0"/>
        <pt x="394" y="864" on="0"/>
        <pt x="411" y="860" on="1"/>
        <pt x="499" y="902" on="0"/>
        <pt x="500" y="903" on="1"/>
        <pt x="524" y="869" on="0"/>
        <pt x="533" y="850" on="1"/>
        <pt x="505" y="809" on="0"/>
        <pt x="440" y="767" on="1"/>
        <pt x="420" y="753" on="0"/>
        <pt x="405" y="753" on="1"/>
        <pt x="382" y="760" on="0"/>
        <pt x="304" y="793" on="0"/>
        <pt x="284" y="798" on="1"/>
        <pt x="269" y="789" on="0"/>
        <pt x="205" y="764" on="0"/>
      </contour>
    </TTGlyph>
    <TTGlyph name="P" xMin="31" yMin="0" xMax="567" yMax="700">
      <contour>
        <pt x="316" y="700" on="1"/>
        <pt x="443" y="700" on="0"/>
        <pt x="567" y="612" on="0"/>
        <pt x="567" y="496" on="1"/>
        <pt x="567" y="399" on="0"/>
        <pt x="447" y="270" on="0"/>
        <pt x="315" y="270" on="1"/>
        <pt x="272" y="270" on="0"/>
        <pt x="247" y="271" on="1"/>
        <pt x="245" y="95" on="1"/>
        <pt x="318" y="87" on="1"/>
        <pt x="318" y="43" on="0"/>
        <pt x="295" y="0" on="1"/>
        <pt x="48" y="0" on="1"/>
        <pt x="39" y="55" on="1"/>
        <pt x="91" y="76" on="0"/>
        <pt x="123" y="84" on="1"/>
        <pt x="123" y="87" on="0"/>
        <pt x="114" y="613" on="1"/>
        <pt x="98" y="617" on="0"/>
        <pt x="31" y="639" on="1"/>
        <pt x="39" y="700" on="1"/>
      </contour>
      <contour>
        <pt x="361" y="366" on="0"/>
        <pt x="435" y="438" on="0"/>
        <pt x="435" y="552" on="0"/>
        <pt x="370" y="601" on="0"/>
        <pt x="301" y="601" on="1"/>
        <pt x="274" y="601" on="0"/>
        <pt x="250" y="600" on="1"/>
        <pt x="248" y="442" on="0"/>
        <pt x="248" y="364" on="1"/>
        <pt x="294" y="365" on="1"/>
      </contour>
    </TTGlyph>
    <TTGlyph name="Q" xMin="20" yMin="-221" xMax="637" yMax="712">
      <contour>
        <pt x="319" y="-34" on="0"/>
        <pt x="399" y="-56" on="0"/>
        <pt x="481" y="-91" on="0"/>
        <pt x="492" y="-94" on="1"/>
        <pt x="539" y="-109" on="0"/>
        <pt x="637" y="-109" on="1"/>
        <pt x="633" y="-147" on="0"/>
        <pt x="616" y="-203" on="0"/>
        <pt x="602" y="-221" on="1"/>
        <pt x="527" y="-217" on="0"/>
        <pt x="469" y="-195" on="1"/>
        <pt x="453" y="-189" on="0"/>
        <pt x="369" y="-152" on="0"/>
        <pt x="305" y="-133" on="0"/>
        <pt x="248" y="-133" on="0"/>
        <pt x="145" y="-158" on="0"/>
        <pt x="144" y="-158" on="1"/>
        <pt x="108" y="-127" on="0"/>
        <pt x="108" y="-89" on="1"/>
        <pt x="169" y="-61" on="0"/>
        <pt x="256" y="-34" on="0"/>
      </contour>
      <contour>
        <pt x="330" y="94" on="1"/>
        <pt x="496" y="94" on="0"/>
        <pt x="496" y="604" on="0"/>
        <pt x="330" y="604" on="1"/>
        <pt x="258" y="604" on="0"/>
        <pt x="204" y="582" on="1"/>
        <pt x="158" y="486" on="0"/>
        <pt x="158" y="233" on="0"/>
        <pt x="234" y="94" on="0"/>
      </contour>
      <contour>
        <pt x="330" y="712" on="1"/>
        <pt x="497" y="712" on="0"/>
        <pt x="633" y="537" on="0"/>
        <pt x="633" y="357" on="1"/>
        <pt x="633" y="244" on="0"/>
        <pt x="575" y="84" on="0"/>
        <pt x="437" y="-12" on="0"/>
        <pt x="330" y="-12" on="1"/>
        <pt x="167" y="-12" on="0"/>
        <pt x="20" y="170" on="0"/>
        <pt x="20" y="344" on="1"/>
        <pt x="20" y="712" on="0"/>
      </contour>
    </TTGlyph>
    <TTGlyph name="R" xMin="30" yMin="0" xMax="643" yMax="700">
      <contour>
        <pt x="281" y="700" on="1"/>
        <pt x="456" y="700" on="0"/>
        <pt x="513" y="650" on="1"/>
        <pt x="565" y="605" on="0"/>
        <pt x="565" y="511" on="1"/>
        <pt x="565" y="365" on="0"/>
        <pt x="413" y="312" on="1"/>
        <pt x="557" y="95" on="1"/>
        <pt x="643" y="86" on="1"/>
        <pt x="643" y="43" on="0"/>
        <pt x="620" y="0" on="1"/>
        <pt x="475" y="0" on="1"/>
        <pt x="279" y="299" on="1"/>
        <pt x="247" y="299" on="1"/>
        <pt x="244" y="95" on="1"/>
        <pt x="317" y="87" on="1"/>
        <pt x="317" y="46" on="0"/>
        <pt x="294" y="0" on="1"/>
        <pt x="47" y="0" on="1"/>
        <pt x="38" y="55" on="1"/>
        <pt x="98" y="79" on="0"/>
        <pt x="122" y="84" on="1"/>
        <pt x="120" y="207" on="0"/>
        <pt x="114" y="555" on="0"/>
        <pt x="113" y="614" on="1"/>
        <pt x="30" y="639" on="1"/>
        <pt x="31" y="662" on="0"/>
        <pt x="39" y="700" on="1"/>
      </contour>
      <contour>
        <pt x="360" y="593" on="1"/>
        <pt x="329" y="600" on="0"/>
        <pt x="277" y="600" on="1"/>
        <pt x="249" y="600" on="1"/>
        <pt x="247" y="462" on="0"/>
        <pt x="247" y="393" on="1"/>
        <pt x="296" y="394" on="1"/>
        <pt x="355" y="395" on="0"/>
        <pt x="424" y="442" on="0"/>
        <pt x="424" y="578" on="0"/>
      </contour>
    </TTGlyph>
    <TTGlyph name="Racute" xMin="30" yMin="0" xMax="643" yMax="939">
      <contour>
        <pt x="281" y="700" on="1"/>
        <pt x="456" y="700" on="0"/>
        <pt x="513" y="650" on="1"/>
        <pt x="565" y="605" on="0"/>
        <pt x="565" y="511" on="1"/>
        <pt x="565" y="365" on="0"/>
        <pt x="413" y="312" on="1"/>
        <pt x="557" y="95" on="1"/>
        <pt x="643" y="86" on="1"/>
        <pt x="643" y="43" on="0"/>
        <pt x="620" y="0" on="1"/>
        <pt x="475" y="0" on="1"/>
        <pt x="279" y="299" on="1"/>
        <pt x="247" y="299" on="1"/>
        <pt x="244" y="95" on="1"/>
        <pt x="317" y="87" on="1"/>
        <pt x="317" y="46" on="0"/>
        <pt x="294" y="0" on="1"/>
        <pt x="47" y="0" on="1"/>
        <pt x="38" y="55" on="1"/>
        <pt x="98" y="79" on="0"/>
        <pt x="122" y="84" on="1"/>
        <pt x="120" y="207" on="0"/>
        <pt x="114" y="555" on="0"/>
        <pt x="113" y="614" on="1"/>
        <pt x="30" y="639" on="1"/>
        <pt x="31" y="662" on="0"/>
        <pt x="39" y="700" on="1"/>
      </contour>
      <contour>
        <pt x="360" y="593" on="1"/>
        <pt x="329" y="600" on="0"/>
        <pt x="277" y="600" on="1"/>
        <pt x="249" y="600" on="1"/>
        <pt x="247" y="462" on="0"/>
        <pt x="247" y="393" on="1"/>
        <pt x="296" y="394" on="1"/>
        <pt x="355" y="395" on="0"/>
        <pt x="424" y="442" on="0"/>
        <pt x="424" y="578" on="0"/>
      </contour>
      <contour>
        <pt x="229" y="808" on="1"/>
        <pt x="387" y="939" on="1"/>
        <pt x="446" y="892" on="0"/>
        <pt x="450" y="852" on="1"/>
        <pt x="424" y="827" on="0"/>
        <pt x="345" y="773" on="0"/>
        <pt x="291" y="745" on="1"/>
        <pt x="259" y="769" on="0"/>
      </contour>
    </TTGlyph>
    <TTGlyph name="Rcommaaccent" xMin="30" yMin="-297" xMax="643" yMax="700">
      <contour>
        <pt x="385" y="-83" on="1"/>
        <pt x="393" y="-113" on="0"/>
        <pt x="393" y="-188" on="0"/>
        <pt x="327" y="-280" on="0"/>
        <pt x="299" y="-297" on="1"/>
        <pt x="268" y="-283" on="0"/>
        <pt x="248" y="-263" on="1"/>
        <pt x="259" y="-232" on="0"/>
        <pt x="292" y="-191" on="1"/>
        <pt x="275" y="-188" on="1"/>
        <pt x="268" y="-167" on="0"/>
        <pt x="268" y="-110" on="0"/>
        <pt x="270" y="-87" on="1"/>
        <pt x="310" y="-79" on="0"/>
        <pt x="351" y="-79" on="0"/>
      </contour>
      <contour>
        <pt x="281" y="700" on="1"/>
        <pt x="456" y="700" on="0"/>
        <pt x="513" y="650" on="1"/>
        <pt x="565" y="605" on="0"/>
        <pt x="565" y="511" on="1"/>
        <pt x="565" y="365" on="0"/>
        <pt x="413" y="312" on="1"/>
        <pt x="557" y="95" on="1"/>
        <pt x="643" y="86" on="1"/>
        <pt x="643" y="43" on="0"/>
        <pt x="620" y="0" on="1"/>
        <pt x="475" y="0" on="1"/>
        <pt x="279" y="299" on="1"/>
        <pt x="247" y="299" on="1"/>
        <pt x="244" y="95" on="1"/>
        <pt x="317" y="87" on="1"/>
        <pt x="317" y="46" on="0"/>
        <pt x="294" y="0" on="1"/>
        <pt x="47" y="0" on="1"/>
        <pt x="38" y="55" on="1"/>
        <pt x="98" y="79" on="0"/>
        <pt x="122" y="84" on="1"/>
        <pt x="120" y="207" on="0"/>
        <pt x="114" y="555" on="0"/>
        <pt x="113" y="614" on="1"/>
        <pt x="30" y="639" on="1"/>
        <pt x="31" y="662" on="0"/>
        <pt x="39" y="700" on="1"/>
      </contour>
      <contour>
        <pt x="360" y="593" on="1"/>
        <pt x="329" y="600" on="0"/>
        <pt x="277" y="600" on="1"/>
        <pt x="249" y="600" on="1"/>
        <pt x="247" y="462" on="0"/>
        <pt x="247" y="393" on="1"/>
        <pt x="296" y="394" on="1"/>
        <pt x="355" y="395" on="0"/>
        <pt x="424" y="442" on="0"/>
        <pt x="424" y="578" on="0"/>
      </contour>
    </TTGlyph>
    <TTGlyph name="S" xMin="45" yMin="-13" xMax="543" yMax="712">
      <contour>
        <pt x="294" y="96" on="1"/>
        <pt x="410" y="96" on="0"/>
        <pt x="410" y="195" on="1"/>
        <pt x="410" y="237" on="0"/>
        <pt x="366" y="266" on="1"/>
        <pt x="334" y="288" on="0"/>
        <pt x="223" y="339" on="0"/>
        <pt x="168" y="369" on="0"/>
        <pt x="132" y="396" on="1"/>
        <pt x="63" y="449" on="0"/>
        <pt x="63" y="607" on="0"/>
        <pt x="186" y="712" on="0"/>
        <pt x="396" y="712" on="0"/>
        <pt x="515" y="645" on="1"/>
        <pt x="515" y="573" on="0"/>
        <pt x="500" y="489" on="1"/>
        <pt x="468" y="479" on="0"/>
        <pt x="405" y="479" on="1"/>
        <pt x="376" y="598" on="1"/>
        <pt x="339" y="609" on="0"/>
        <pt x="251" y="609" on="0"/>
        <pt x="203" y="571" on="0"/>
        <pt x="203" y="496" on="0"/>
        <pt x="278" y="437" on="0"/>
        <pt x="384" y="388" on="0"/>
        <pt x="424" y="368" on="0"/>
        <pt x="486" y="328" on="0"/>
        <pt x="502" y="310" on="1"/>
        <pt x="543" y="262" on="0"/>
        <pt x="543" y="203" on="1"/>
        <pt x="543" y="99" on="0"/>
        <pt x="405" y="-13" on="0"/>
        <pt x="294" y="-13" on="1"/>
        <pt x="235" y="-13" on="0"/>
        <pt x="94" y="28" on="0"/>
        <pt x="45" y="60" on="1"/>
        <pt x="47" y="121" on="0"/>
        <pt x="61" y="225" on="1"/>
        <pt x="101" y="233" on="0"/>
        <pt x="157" y="233" on="1"/>
        <pt x="178" y="113" on="1"/>
        <pt x="233" y="96" on="0"/>
      </contour>
    </TTGlyph>
    <TTGlyph name="Scaron" xMin="45" yMin="-13" xMax="543" yMax="940">
      <component glyphName="S" x="0" y="0" flags="0x1004"/>
      <component glyphName="caron" x="68" y="194" flags="0x1004"/>
    </TTGlyph>
    <TTGlyph name="T" xMin="20" yMin="0" xMax="608" yMax="700">
      <contour>
        <pt x="36" y="518" on="1"/>
        <pt x="20" y="587" on="0"/>
        <pt x="20" y="667" on="0"/>
        <pt x="23" y="700" on="1"/>
        <pt x="604" y="700" on="1"/>
        <pt x="608" y="652" on="0"/>
        <pt x="608" y="635" on="1"/>
        <pt x="608" y="592" on="0"/>
        <pt x="592" y="518" on="1"/>
        <pt x="563" y="510" on="0"/>
        <pt x="497" y="510" on="1"/>
        <pt x="474" y="611" on="1"/>
        <pt x="389" y="611" on="1"/>
        <pt x="388" y="573" on="0"/>
        <pt x="380" y="96" on="1"/>
        <pt x="452" y="87" on="1"/>
        <pt x="452" y="41" on="0"/>
        <pt x="429" y="0" on="1"/>
        <pt x="186" y="0" on="1"/>
        <pt x="177" y="55" on="1"/>
        <pt x="246" y="81" on="0"/>
        <pt x="264" y="84" on="1"/>
        <pt x="264" y="88" on="0"/>
        <pt x="252" y="610" on="1"/>
        <pt x="153" y="610" on="1"/>
        <pt x="131" y="512" on="1"/>
        <pt x="72" y="512" on="0"/>
      </contour>
    </TTGlyph>
    <TTGlyph name="Thorn" xMin="20" yMin="0" xMax="553" yMax="703">
      <contour>
        <pt x="233" y="173" on="1"/>
        <pt x="231" y="96" on="1"/>
        <pt x="309" y="87" on="1"/>
        <pt x="309" y="48" on="0"/>
        <pt x="286" y="0" on="1"/>
        <pt x="37" y="0" on="1"/>
        <pt x="28" y="55" on="1"/>
        <pt x="84" y="76" on="0"/>
        <pt x="118" y="85" on="1"/>
        <pt x="99" y="600" on="1"/>
        <pt x="53" y="605" on="0"/>
        <pt x="20" y="615" on="1"/>
        <pt x="20" y="647" on="0"/>
        <pt x="28" y="687" on="1"/>
        <pt x="92" y="703" on="0"/>
        <pt x="222" y="703" on="1"/>
        <pt x="245" y="703" on="0"/>
        <pt x="253" y="702" on="1"/>
        <pt x="253" y="652" on="0"/>
        <pt x="240" y="611" on="1"/>
        <pt x="237" y="536" on="1"/>
        <pt x="309" y="568" on="0"/>
        <pt x="332" y="568" on="1"/>
        <pt x="441" y="568" on="0"/>
        <pt x="553" y="472" on="0"/>
        <pt x="553" y="349" on="1"/>
        <pt x="553" y="257" on="0"/>
        <pt x="442" y="138" on="0"/>
        <pt x="328" y="138" on="1"/>
        <pt x="294" y="138" on="0"/>
      </contour>
      <contour>
        <pt x="249" y="266" on="0"/>
        <pt x="304" y="236" on="0"/>
        <pt x="341" y="236" on="0"/>
        <pt x="368" y="241" on="0"/>
        <pt x="386" y="250" on="1"/>
        <pt x="425" y="269" on="0"/>
        <pt x="425" y="344" on="1"/>
        <pt x="425" y="423" on="0"/>
        <pt x="398" y="446" on="1"/>
        <pt x="378" y="464" on="0"/>
        <pt x="347" y="464" on="1"/>
        <pt x="292" y="464" on="0"/>
        <pt x="240" y="438" on="1"/>
        <pt x="235" y="306" on="0"/>
        <pt x="235" y="280" on="1"/>
      </contour>
    </TTGlyph>
    <TTGlyph name="U" xMin="24" yMin="-12" xMax="773" yMax="700">
      <contour>
        <pt x="574" y="363" on="1"/>
        <pt x="570" y="613" on="1"/>
        <pt x="487" y="639" on="1"/>
        <pt x="495" y="700" on="1"/>
        <pt x="755" y="700" on="1"/>
        <pt x="754" y="700" on="0"/>
        <pt x="757" y="696" on="0"/>
        <pt x="762" y="683" on="0"/>
        <pt x="765" y="674" on="1"/>
        <pt x="771" y="658" on="0"/>
        <pt x="773" y="621" on="1"/>
        <pt x="722" y="613" on="0"/>
        <pt x="706" y="611" on="1"/>
        <pt x="704" y="357" on="1"/>
        <pt x="702" y="166" on="0"/>
        <pt x="567" y="-12" on="0"/>
        <pt x="241" y="-12" on="0"/>
        <pt x="113" y="154" on="0"/>
        <pt x="109" y="525" on="0"/>
        <pt x="107" y="613" on="1"/>
        <pt x="24" y="639" on="1"/>
        <pt x="32" y="700" on="1"/>
        <pt x="292" y="700" on="1"/>
        <pt x="291" y="700" on="0"/>
        <pt x="294" y="696" on="0"/>
        <pt x="299" y="683" on="0"/>
        <pt x="302" y="674" on="1"/>
        <pt x="308" y="658" on="0"/>
        <pt x="310" y="621" on="1"/>
        <pt x="259" y="613" on="0"/>
        <pt x="243" y="611" on="1"/>
        <pt x="240" y="357" on="1"/>
        <pt x="240" y="246" on="0"/>
        <pt x="264" y="153" on="0"/>
        <pt x="282" y="134" on="1"/>
        <pt x="321" y="94" on="0"/>
        <pt x="406" y="94" on="1"/>
        <pt x="488" y="94" on="0"/>
        <pt x="530" y="140" on="1"/>
        <pt x="564" y="177" on="0"/>
        <pt x="571" y="270" on="1"/>
        <pt x="574" y="307" on="0"/>
      </contour>
    </TTGlyph>
    <TTGlyph name="Uacute" xMin="24" yMin="-12" xMax="773" yMax="939">
      <contour>
        <pt x="574" y="363" on="1"/>
        <pt x="570" y="613" on="1"/>
        <pt x="487" y="639" on="1"/>
        <pt x="495" y="700" on="1"/>
        <pt x="755" y="700" on="1"/>
        <pt x="754" y="700" on="0"/>
        <pt x="757" y="696" on="0"/>
        <pt x="762" y="683" on="0"/>
        <pt x="765" y="674" on="1"/>
        <pt x="771" y="658" on="0"/>
        <pt x="773" y="621" on="1"/>
        <pt x="722" y="613" on="0"/>
        <pt x="706" y="611" on="1"/>
        <pt x="704" y="357" on="1"/>
        <pt x="702" y="166" on="0"/>
        <pt x="567" y="-12" on="0"/>
        <pt x="241" y="-12" on="0"/>
        <pt x="113" y="154" on="0"/>
        <pt x="109" y="525" on="0"/>
        <pt x="107" y="613" on="1"/>
        <pt x="24" y="639" on="1"/>
        <pt x="32" y="700" on="1"/>
        <pt x="292" y="700" on="1"/>
        <pt x="291" y="700" on="0"/>
        <pt x="294" y="696" on="0"/>
        <pt x="299" y="683" on="0"/>
        <pt x="302" y="674" on="1"/>
        <pt x="308" y="658" on="0"/>
        <pt x="310" y="621" on="1"/>
        <pt x="259" y="613" on="0"/>
        <pt x="243" y="611" on="1"/>
        <pt x="240" y="357" on="1"/>
        <pt x="240" y="246" on="0"/>
        <pt x="264" y="153" on="0"/>
        <pt x="282" y="134" on="1"/>
        <pt x="321" y="94" on="0"/>
        <pt x="406" y="94" on="1"/>
        <pt x="488" y="94" on="0"/>
        <pt x="530" y="140" on="1"/>
        <pt x="564" y="177" on="0"/>
        <pt x="571" y="270" on="1"/>
        <pt x="574" y="307" on="0"/>
      </contour>
      <contour>
        <pt x="330" y="808" on="1"/>
        <pt x="488" y="939" on="1"/>
        <pt x="547" y="892" on="0"/>
        <pt x="551" y="852" on="1"/>
        <pt x="525" y="827" on="0"/>
        <pt x="446" y="773" on="0"/>
        <pt x="392" y="745" on="1"/>
        <pt x="360" y="769" on="0"/>
      </contour>
    </TTGlyph>
    <TTGlyph name="Ubreve" xMin="24" yMin="-12" xMax="773" yMax="928">
      <contour>
        <pt x="574" y="363" on="1"/>
        <pt x="570" y="613" on="1"/>
        <pt x="487" y="639" on="1"/>
        <pt x="495" y="700" on="1"/>
        <pt x="755" y="700" on="1"/>
        <pt x="754" y="700" on="0"/>
        <pt x="757" y="696" on="0"/>
        <pt x="762" y="683" on="0"/>
        <pt x="765" y="674" on="1"/>
        <pt x="771" y="658" on="0"/>
        <pt x="773" y="621" on="1"/>
        <pt x="722" y="613" on="0"/>
        <pt x="706" y="611" on="1"/>
        <pt x="704" y="357" on="1"/>
        <pt x="702" y="166" on="0"/>
        <pt x="567" y="-12" on="0"/>
        <pt x="241" y="-12" on="0"/>
        <pt x="113" y="154" on="0"/>
        <pt x="109" y="525" on="0"/>
        <pt x="107" y="613" on="1"/>
        <pt x="24" y="639" on="1"/>
        <pt x="32" y="700" on="1"/>
        <pt x="292" y="700" on="1"/>
        <pt x="291" y="700" on="0"/>
        <pt x="294" y="696" on="0"/>
        <pt x="299" y="683" on="0"/>
        <pt x="302" y="674" on="1"/>
        <pt x="308" y="658" on="0"/>
        <pt x="310" y="621" on="1"/>
        <pt x="259" y="613" on="0"/>
        <pt x="243" y="611" on="1"/>
        <pt x="240" y="357" on="1"/>
        <pt x="240" y="246" on="0"/>
        <pt x="264" y="153" on="0"/>
        <pt x="282" y="134" on="1"/>
        <pt x="321" y="94" on="0"/>
        <pt x="406" y="94" on="1"/>
        <pt x="488" y="94" on="0"/>
        <pt x="530" y="140" on="1"/>
        <pt x="564" y="177" on="0"/>
        <pt x="571" y="270" on="1"/>
        <pt x="574" y="307" on="0"/>
      </contour>
      <contour>
        <pt x="551" y="928" on="1"/>
        <pt x="551" y="864" on="0"/>
        <pt x="465" y="766" on="0"/>
        <pt x="322" y="766" on="0"/>
        <pt x="241" y="863" on="0"/>
        <pt x="241" y="928" on="1"/>
        <pt x="323" y="928" on="1"/>
        <pt x="323" y="900" on="0"/>
        <pt x="358" y="859" on="0"/>
        <pt x="395" y="859" on="1"/>
        <pt x="458" y="859" on="0"/>
        <pt x="458" y="928" on="1"/>
      </contour>
    </TTGlyph>
    <TTGlyph name="Ucircumflex" xMin="24" yMin="-12" xMax="773" yMax="938">
      <contour>
        <pt x="574" y="363" on="1"/>
        <pt x="570" y="613" on="1"/>
        <pt x="487" y="639" on="1"/>
        <pt x="495" y="700" on="1"/>
        <pt x="755" y="700" on="1"/>
        <pt x="754" y="700" on="0"/>
        <pt x="757" y="696" on="0"/>
        <pt x="762" y="683" on="0"/>
        <pt x="765" y="674" on="1"/>
        <pt x="771" y="658" on="0"/>
        <pt x="773" y="621" on="1"/>
        <pt x="722" y="613" on="0"/>
        <pt x="706" y="611" on="1"/>
        <pt x="704" y="357" on="1"/>
        <pt x="702" y="166" on="0"/>
        <pt x="567" y="-12" on="0"/>
        <pt x="241" y="-12" on="0"/>
        <pt x="113" y="154" on="0"/>
        <pt x="109" y="525" on="0"/>
        <pt x="107" y="613" on="1"/>
        <pt x="24" y="639" on="1"/>
        <pt x="32" y="700" on="1"/>
        <pt x="292" y="700" on="1"/>
        <pt x="291" y="700" on="0"/>
        <pt x="294" y="696" on="0"/>
        <pt x="299" y="683" on="0"/>
        <pt x="302" y="674" on="1"/>
        <pt x="308" y="658" on="0"/>
        <pt x="310" y="621" on="1"/>
        <pt x="259" y="613" on="0"/>
        <pt x="243" y="611" on="1"/>
        <pt x="240" y="357" on="1"/>
        <pt x="240" y="246" on="0"/>
        <pt x="264" y="153" on="0"/>
        <pt x="282" y="134" on="1"/>
        <pt x="321" y="94" on="0"/>
        <pt x="406" y="94" on="1"/>
        <pt x="488" y="94" on="0"/>
        <pt x="530" y="140" on="1"/>
        <pt x="564" y="177" on="0"/>
        <pt x="571" y="270" on="1"/>
        <pt x="574" y="307" on="0"/>
      </contour>
      <contour>
        <pt x="494" y="747" on="1"/>
        <pt x="421" y="784" on="0"/>
        <pt x="389" y="808" on="1"/>
        <pt x="371" y="794" on="0"/>
        <pt x="284" y="747" on="1"/>
        <pt x="246" y="783" on="0"/>
        <pt x="231" y="807" on="1"/>
        <pt x="389" y="938" on="1"/>
        <pt x="548" y="807" on="1"/>
        <pt x="534" y="785" on="0"/>
      </contour>
    </TTGlyph>
    <TTGlyph name="Udieresis" xMin="24" yMin="-12" xMax="773" yMax="878">
      <component glyphName="U" x="0" y="0" flags="0x1004"/>
      <component glyphName="dieresis" x="42" y="192" flags="0x1004"/>
    </TTGlyph>
    <TTGlyph name="Ugrave" xMin="24" yMin="-12" xMax="773" yMax="939">
      <component glyphName="U" x="0" y="0" flags="0x1004"/>
      <component glyphName="grave" x="176" y="192" flags="0x1004"/>
    </TTGlyph>
    <TTGlyph name="Umacron" xMin="24" yMin="-12" xMax="773" yMax="896">
      <contour>
        <pt x="574" y="363" on="1"/>
        <pt x="570" y="613" on="1"/>
        <pt x="487" y="639" on="1"/>
        <pt x="495" y="700" on="1"/>
        <pt x="755" y="700" on="1"/>
        <pt x="754" y="700" on="0"/>
        <pt x="757" y="696" on="0"/>
        <pt x="762" y="683" on="0"/>
        <pt x="765" y="674" on="1"/>
        <pt x="771" y="658" on="0"/>
        <pt x="773" y="621" on="1"/>
        <pt x="722" y="613" on="0"/>
        <pt x="706" y="611" on="1"/>
        <pt x="704" y="357" on="1"/>
        <pt x="702" y="166" on="0"/>
        <pt x="567" y="-12" on="0"/>
        <pt x="241" y="-12" on="0"/>
        <pt x="113" y="154" on="0"/>
        <pt x="109" y="525" on="0"/>
        <pt x="107" y="613" on="1"/>
        <pt x="24" y="639" on="1"/>
        <pt x="32" y="700" on="1"/>
        <pt x="292" y="700" on="1"/>
        <pt x="291" y="700" on="0"/>
        <pt x="294" y="696" on="0"/>
        <pt x="299" y="683" on="0"/>
        <pt x="302" y="674" on="1"/>
        <pt x="308" y="658" on="0"/>
        <pt x="310" y="621" on="1"/>
        <pt x="259" y="613" on="0"/>
        <pt x="243" y="611" on="1"/>
        <pt x="240" y="357" on="1"/>
        <pt x="240" y="246" on="0"/>
        <pt x="264" y="153" on="0"/>
        <pt x="282" y="134" on="1"/>
        <pt x="321" y="94" on="0"/>
        <pt x="406" y="94" on="1"/>
        <pt x="488" y="94" on="0"/>
        <pt x="530" y="140" on="1"/>
        <pt x="564" y="177" on="0"/>
        <pt x="571" y="270" on="1"/>
        <pt x="574" y="307" on="0"/>
      </contour>
      <contour>
        <pt x="297" y="889" on="1"/>
        <pt x="366" y="896" on="0"/>
        <pt x="472" y="896" on="0"/>
        <pt x="545" y="889" on="1"/>
        <pt x="547" y="880" on="0"/>
        <pt x="547" y="850" on="1"/>
        <pt x="544" y="802" on="1"/>
        <pt x="475" y="796" on="0"/>
        <pt x="431" y="796" on="1"/>
        <pt x="298" y="801" on="1"/>
        <pt x="293" y="824" on="0"/>
        <pt x="293" y="841" on="1"/>
      </contour>
    </TTGlyph>
    <TTGlyph name="Uring" xMin="24" yMin="-12" xMax="773" yMax="982">
      <component glyphName="U" x="0" y="0" flags="0x1004"/>
      <component glyphName="ring" x="158" y="179" flags="0x1004"/>
    </TTGlyph>
    <TTGlyph name="V" xMin="6" yMin="0" xMax="704" yMax="700">
      <contour>
        <pt x="373" y="187" on="1"/>
        <pt x="391" y="249" on="0"/>
        <pt x="507" y="612" on="1"/>
        <pt x="418" y="639" on="1"/>
        <pt x="426" y="700" on="1"/>
        <pt x="685" y="700" on="1"/>
        <pt x="703" y="664" on="0"/>
        <pt x="704" y="621" on="1"/>
        <pt x="642" y="612" on="1"/>
        <pt x="443" y="0" on="1"/>
        <pt x="310" y="0" on="1"/>
        <pt x="95" y="612" on="1"/>
        <pt x="6" y="639" on="1"/>
        <pt x="14" y="700" on="1"/>
        <pt x="273" y="700" on="1"/>
        <pt x="291" y="664" on="0"/>
        <pt x="292" y="621" on="1"/>
        <pt x="249" y="614" on="0"/>
        <pt x="233" y="612" on="1"/>
      </contour>
    </TTGlyph>
    <TTGlyph name="W" xMin="6" yMin="0" xMax="1057" yMax="700">
      <contour>
        <pt x="682" y="0" on="1"/>
        <pt x="550" y="545" on="1"/>
        <pt x="540" y="545" on="1"/>
        <pt x="406" y="0" on="1"/>
        <pt x="250" y="0" on="1"/>
        <pt x="90" y="616" on="1"/>
        <pt x="59" y="624" on="0"/>
        <pt x="6" y="645" on="1"/>
        <pt x="15" y="700" on="1"/>
        <pt x="258" y="700" on="1"/>
        <pt x="281" y="654" on="0"/>
        <pt x="281" y="613" on="1"/>
        <pt x="251" y="607" on="0"/>
        <pt x="212" y="604" on="1"/>
        <pt x="317" y="162" on="1"/>
        <pt x="475" y="700" on="1"/>
        <pt x="627" y="700" on="1"/>
        <pt x="758" y="168" on="1"/>
        <pt x="866" y="616" on="1"/>
        <pt x="835" y="624" on="0"/>
        <pt x="782" y="645" on="1"/>
        <pt x="791" y="700" on="1"/>
        <pt x="1034" y="700" on="1"/>
        <pt x="1057" y="654" on="0"/>
        <pt x="1057" y="613" on="1"/>
        <pt x="1027" y="607" on="0"/>
        <pt x="988" y="604" on="1"/>
        <pt x="826" y="0" on="1"/>
      </contour>
    </TTGlyph>
    <TTGlyph name="X" xMin="10" yMin="0" xMax="682" yMax="700">
      <contour>
        <pt x="443" y="611" on="1"/>
        <pt x="402" y="616" on="0"/>
        <pt x="380" y="621" on="1"/>
        <pt x="380" y="651" on="0"/>
        <pt x="398" y="700" on="1"/>
        <pt x="658" y="700" on="1"/>
        <pt x="664" y="664" on="0"/>
        <pt x="666" y="639" on="1"/>
        <pt x="613" y="619" on="0"/>
        <pt x="583" y="613" on="1"/>
        <pt x="403" y="360" on="1"/>
        <pt x="593" y="97" on="1"/>
        <pt x="682" y="88" on="1"/>
        <pt x="682" y="46" on="0"/>
        <pt x="659" y="0" on="1"/>
        <pt x="415" y="0" on="1"/>
        <pt x="406" y="55" on="1"/>
        <pt x="425" y="62" on="0"/>
        <pt x="462" y="78" on="1"/>
        <pt x="327" y="263" on="1"/>
        <pt x="216" y="96" on="1"/>
        <pt x="285" y="87" on="1"/>
        <pt x="285" y="45" on="0"/>
        <pt x="261" y="0" on="1"/>
        <pt x="19" y="0" on="1"/>
        <pt x="10" y="55" on="1"/>
        <pt x="53" y="75" on="0"/>
        <pt x="94" y="84" on="1"/>
        <pt x="258" y="360" on="1"/>
        <pt x="76" y="613" on="1"/>
        <pt x="15" y="621" on="1"/>
        <pt x="19" y="675" on="0"/>
        <pt x="33" y="700" on="1"/>
        <pt x="303" y="700" on="1"/>
        <pt x="311" y="657" on="0"/>
        <pt x="311" y="639" on="1"/>
        <pt x="254" y="618" on="0"/>
        <pt x="228" y="613" on="1"/>
        <pt x="244" y="589" on="0"/>
        <pt x="316" y="488" on="0"/>
        <pt x="339" y="453" on="1"/>
      </contour>
    </TTGlyph>
    <TTGlyph name="Y" xMin="6" yMin="0" xMax="666" yMax="700">
      <contour>
        <pt x="408" y="262" on="1"/>
        <pt x="407" y="96" on="1"/>
        <pt x="476" y="87" on="1"/>
        <pt x="476" y="46" on="0"/>
        <pt x="453" y="0" on="1"/>
        <pt x="210" y="0" on="1"/>
        <pt x="201" y="55" on="1"/>
        <pt x="270" y="82" on="0"/>
        <pt x="285" y="84" on="1"/>
        <pt x="285" y="143" on="0"/>
        <pt x="283" y="261" on="1"/>
        <pt x="94" y="612" on="1"/>
        <pt x="6" y="639" on="1"/>
        <pt x="14" y="700" on="1"/>
        <pt x="274" y="700" on="1"/>
        <pt x="292" y="667" on="0"/>
        <pt x="292" y="621" on="1"/>
        <pt x="269" y="617" on="0"/>
        <pt x="233" y="612" on="1"/>
        <pt x="340" y="371" on="1"/>
        <pt x="349" y="371" on="1"/>
        <pt x="463" y="613" on="1"/>
        <pt x="429" y="620" on="0"/>
        <pt x="380" y="639" on="1"/>
        <pt x="387" y="700" on="1"/>
        <pt x="648" y="700" on="1"/>
        <pt x="665" y="675" on="0"/>
        <pt x="666" y="621" on="1"/>
        <pt x="627" y="613" on="0"/>
        <pt x="588" y="610" on="1"/>
      </contour>
    </TTGlyph>
    <TTGlyph name="Yacute" xMin="6" yMin="0" xMax="666" yMax="939">
      <component glyphName="Y" x="0" y="0" flags="0x1004"/>
      <component glyphName="acute" x="217" y="192" flags="0x1004"/>
    </TTGlyph>
    <TTGlyph name="Ydieresis" xMin="6" yMin="0" xMax="666" yMax="878">
      <component glyphName="Y" x="0" y="0" flags="0x1004"/>
      <component glyphName="dieresis" x="-7" y="192" flags="0x1004"/>
    </TTGlyph>
    <TTGlyph name="Z" xMin="45" yMin="0" xMax="570" yMax="700">
      <contour>
        <pt x="182" y="494" on="1"/>
        <pt x="151" y="493" on="1"/>
        <pt x="123" y="493" on="0"/>
        <pt x="93" y="505" on="1"/>
        <pt x="75" y="583" on="0"/>
        <pt x="75" y="671" on="0"/>
        <pt x="79" y="700" on="1"/>
        <pt x="538" y="700" on="1"/>
        <pt x="562" y="668" on="0"/>
        <pt x="570" y="621" on="1"/>
        <pt x="218" y="96" on="1"/>
        <pt x="435" y="96" on="1"/>
        <pt x="457" y="203" on="1"/>
        <pt x="489" y="204" on="1"/>
        <pt x="517" y="204" on="0"/>
        <pt x="547" y="192" on="1"/>
        <pt x="564" y="117" on="0"/>
        <pt x="564" y="31" on="0"/>
        <pt x="560" y="0" on="1"/>
        <pt x="77" y="0" on="1"/>
        <pt x="52" y="32" on="0"/>
        <pt x="45" y="77" on="1"/>
        <pt x="396" y="601" on="1"/>
        <pt x="206" y="601" on="1"/>
      </contour>
    </TTGlyph>
    <TTGlyph name="Zcaron" xMin="45" yMin="0" xMax="570" yMax="938">
      <contour>
        <pt x="182" y="494" on="1"/>
        <pt x="151" y="493" on="1"/>
        <pt x="123" y="493" on="0"/>
        <pt x="93" y="505" on="1"/>
        <pt x="75" y="583" on="0"/>
        <pt x="75" y="671" on="0"/>
        <pt x="79" y="700" on="1"/>
        <pt x="538" y="700" on="1"/>
        <pt x="562" y="668" on="0"/>
        <pt x="570" y="621" on="1"/>
        <pt x="218" y="96" on="1"/>
        <pt x="435" y="96" on="1"/>
        <pt x="457" y="203" on="1"/>
        <pt x="489" y="204" on="1"/>
        <pt x="517" y="204" on="0"/>
        <pt x="547" y="192" on="1"/>
        <pt x="564" y="117" on="0"/>
        <pt x="564" y="31" on="0"/>
        <pt x="560" y="0" on="1"/>
        <pt x="77" y="0" on="1"/>
        <pt x="52" y="32" on="0"/>
        <pt x="45" y="77" on="1"/>
        <pt x="396" y="601" on="1"/>
        <pt x="206" y="601" on="1"/>
      </contour>
      <contour>
        <pt x="229" y="938" on="1"/>
        <pt x="302" y="901" on="0"/>
        <pt x="334" y="877" on="1"/>
        <pt x="352" y="891" on="0"/>
        <pt x="439" y="938" on="1"/>
        <pt x="477" y="902" on="0"/>
        <pt x="492" y="878" on="1"/>
        <pt x="334" y="747" on="1"/>
        <pt x="175" y="878" on="1"/>
        <pt x="189" y="900" on="0"/>
      </contour>
    </TTGlyph>
    <TTGlyph name="a" xMin="41" yMin="-12" xMax="559" yMax="520">
      <contour>
        <pt x="219" y="-12" on="1"/>
        <pt x="134" y="-12" on="0"/>
        <pt x="41" y="58" on="0"/>
        <pt x="41" y="141" on="1"/>
        <pt x="41" y="220" on="0"/>
        <pt x="96" y="270" on="1"/>
        <pt x="128" y="299" on="0"/>
        <pt x="242" y="309" on="0"/>
        <pt x="342" y="309" on="1"/>
        <pt x="342" y="325" on="1"/>
        <pt x="342" y="386" on="0"/>
        <pt x="303" y="443" on="0"/>
        <pt x="254" y="443" on="1"/>
        <pt x="229" y="443" on="0"/>
        <pt x="209" y="433" on="1"/>
        <pt x="185" y="346" on="1"/>
        <pt x="111" y="348" on="1"/>
        <pt x="86" y="386" on="0"/>
        <pt x="84" y="469" on="1"/>
        <pt x="104" y="479" on="0"/>
        <pt x="252" y="520" on="0"/>
        <pt x="273" y="520" on="1"/>
        <pt x="381" y="520" on="0"/>
        <pt x="479" y="431" on="0"/>
        <pt x="479" y="238" on="0"/>
        <pt x="470" y="80" on="1"/>
        <pt x="527" y="75" on="0"/>
        <pt x="558" y="63" on="1"/>
        <pt x="559" y="51" on="0"/>
        <pt x="559" y="34" on="1"/>
        <pt x="558" y="12" on="1"/>
        <pt x="486" y="-12" on="0"/>
        <pt x="413" y="-12" on="1"/>
        <pt x="394" y="-12" on="0"/>
        <pt x="385" y="-11" on="1"/>
        <pt x="370" y="19" on="0"/>
        <pt x="367" y="61" on="1"/>
        <pt x="362" y="61" on="1"/>
        <pt x="343" y="43" on="0"/>
        <pt x="248" y="-12" on="0"/>
      </contour>
      <contour>
        <pt x="169" y="102" on="0"/>
        <pt x="210" y="71" on="0"/>
        <pt x="262" y="71" on="0"/>
        <pt x="334" y="118" on="0"/>
        <pt x="356" y="137" on="1"/>
        <pt x="351" y="229" on="1"/>
        <pt x="272" y="225" on="0"/>
        <pt x="232" y="214" on="1"/>
        <pt x="169" y="201" on="0"/>
        <pt x="169" y="135" on="1"/>
      </contour>
    </TTGlyph>
    <TTGlyph name="aacute" xMin="41" yMin="-12" xMax="559" yMax="747">
      <contour>
        <pt x="219" y="-12" on="1"/>
        <pt x="134" y="-12" on="0"/>
        <pt x="41" y="58" on="0"/>
        <pt x="41" y="141" on="1"/>
        <pt x="41" y="220" on="0"/>
        <pt x="96" y="270" on="1"/>
        <pt x="128" y="299" on="0"/>
        <pt x="242" y="309" on="0"/>
        <pt x="342" y="309" on="1"/>
        <pt x="342" y="325" on="1"/>
        <pt x="342" y="386" on="0"/>
        <pt x="303" y="443" on="0"/>
        <pt x="254" y="443" on="1"/>
        <pt x="229" y="443" on="0"/>
        <pt x="209" y="433" on="1"/>
        <pt x="185" y="346" on="1"/>
        <pt x="111" y="348" on="1"/>
        <pt x="86" y="386" on="0"/>
        <pt x="84" y="469" on="1"/>
        <pt x="104" y="479" on="0"/>
        <pt x="252" y="520" on="0"/>
        <pt x="273" y="520" on="1"/>
        <pt x="381" y="520" on="0"/>
        <pt x="479" y="431" on="0"/>
        <pt x="479" y="238" on="0"/>
        <pt x="470" y="80" on="1"/>
        <pt x="527" y="75" on="0"/>
        <pt x="558" y="63" on="1"/>
        <pt x="559" y="51" on="0"/>
        <pt x="559" y="34" on="1"/>
        <pt x="558" y="12" on="1"/>
        <pt x="486" y="-12" on="0"/>
        <pt x="413" y="-12" on="1"/>
        <pt x="394" y="-12" on="0"/>
        <pt x="385" y="-11" on="1"/>
        <pt x="370" y="19" on="0"/>
        <pt x="367" y="61" on="1"/>
        <pt x="362" y="61" on="1"/>
        <pt x="343" y="43" on="0"/>
        <pt x="248" y="-12" on="0"/>
      </contour>
      <contour>
        <pt x="169" y="102" on="0"/>
        <pt x="210" y="71" on="0"/>
        <pt x="262" y="71" on="0"/>
        <pt x="334" y="118" on="0"/>
        <pt x="356" y="137" on="1"/>
        <pt x="351" y="229" on="1"/>
        <pt x="272" y="225" on="0"/>
        <pt x="232" y="214" on="1"/>
        <pt x="169" y="201" on="0"/>
        <pt x="169" y="135" on="1"/>
      </contour>
      <contour>
        <pt x="205" y="616" on="1"/>
        <pt x="363" y="747" on="1"/>
        <pt x="422" y="700" on="0"/>
        <pt x="426" y="660" on="1"/>
        <pt x="400" y="635" on="0"/>
        <pt x="321" y="581" on="0"/>
        <pt x="267" y="553" on="1"/>
        <pt x="235" y="577" on="0"/>
      </contour>
    </TTGlyph>
    <TTGlyph name="abreve" xMin="41" yMin="-12" xMax="559" yMax="737">
      <contour>
        <pt x="219" y="-12" on="1"/>
        <pt x="134" y="-12" on="0"/>
        <pt x="41" y="58" on="0"/>
        <pt x="41" y="141" on="1"/>
        <pt x="41" y="220" on="0"/>
        <pt x="96" y="270" on="1"/>
        <pt x="128" y="299" on="0"/>
        <pt x="242" y="309" on="0"/>
        <pt x="342" y="309" on="1"/>
        <pt x="342" y="325" on="1"/>
        <pt x="342" y="386" on="0"/>
        <pt x="303" y="443" on="0"/>
        <pt x="254" y="443" on="1"/>
        <pt x="229" y="443" on="0"/>
        <pt x="209" y="433" on="1"/>
        <pt x="185" y="346" on="1"/>
        <pt x="111" y="348" on="1"/>
        <pt x="86" y="386" on="0"/>
        <pt x="84" y="469" on="1"/>
        <pt x="104" y="479" on="0"/>
        <pt x="252" y="520" on="0"/>
        <pt x="273" y="520" on="1"/>
        <pt x="381" y="520" on="0"/>
        <pt x="479" y="431" on="0"/>
        <pt x="479" y="238" on="0"/>
        <pt x="470" y="80" on="1"/>
        <pt x="527" y="75" on="0"/>
        <pt x="558" y="63" on="1"/>
        <pt x="559" y="51" on="0"/>
        <pt x="559" y="34" on="1"/>
        <pt x="558" y="12" on="1"/>
        <pt x="486" y="-12" on="0"/>
        <pt x="413" y="-12" on="1"/>
        <pt x="394" y="-12" on="0"/>
        <pt x="385" y="-11" on="1"/>
        <pt x="370" y="19" on="0"/>
        <pt x="367" y="61" on="1"/>
        <pt x="362" y="61" on="1"/>
        <pt x="343" y="43" on="0"/>
        <pt x="248" y="-12" on="0"/>
      </contour>
      <contour>
        <pt x="169" y="102" on="0"/>
        <pt x="210" y="71" on="0"/>
        <pt x="262" y="71" on="0"/>
        <pt x="334" y="118" on="0"/>
        <pt x="356" y="137" on="1"/>
        <pt x="351" y="229" on="1"/>
        <pt x="272" y="225" on="0"/>
        <pt x="232" y="214" on="1"/>
        <pt x="169" y="201" on="0"/>
        <pt x="169" y="135" on="1"/>
      </contour>
      <contour>
        <pt x="425" y="737" on="1"/>
        <pt x="425" y="673" on="0"/>
        <pt x="339" y="575" on="0"/>
        <pt x="196" y="575" on="0"/>
        <pt x="115" y="672" on="0"/>
        <pt x="115" y="737" on="1"/>
        <pt x="197" y="737" on="1"/>
        <pt x="197" y="709" on="0"/>
        <pt x="232" y="668" on="0"/>
        <pt x="269" y="668" on="1"/>
        <pt x="332" y="668" on="0"/>
        <pt x="332" y="737" on="1"/>
      </contour>
    </TTGlyph>
    <TTGlyph name="acircumflex" xMin="41" yMin="-12" xMax="559" yMax="746">
      <component glyphName="a" x="0" y="0" flags="0x1004"/>
      <component glyphName="circumflex" x="33" y="0" flags="0x1004"/>
    </TTGlyph>
    <TTGlyph name="acute" xMin="64" yMin="553" xMax="285" yMax="747">
      <contour>
        <pt x="64" y="616" on="1"/>
        <pt x="222" y="747" on="1"/>
        <pt x="281" y="700" on="0"/>
        <pt x="285" y="660" on="1"/>
        <pt x="259" y="635" on="0"/>
        <pt x="180" y="581" on="0"/>
        <pt x="126" y="553" on="1"/>
        <pt x="94" y="577" on="0"/>
      </contour>
    </TTGlyph>
    <TTGlyph name="adieresis" xMin="41" yMin="-12" xMax="559" yMax="686">
      <component glyphName="a" x="0" y="0" flags="0x1004"/>
      <component glyphName="dieresis" x="-58" y="0" flags="0x1004"/>
    </TTGlyph>
    <TTGlyph name="ae" xMin="45" yMin="-12" xMax="781" yMax="528">
      <contour>
        <pt x="584" y="-12" on="1"/>
        <pt x="456" y="-12" on="0"/>
        <pt x="391" y="74" on="1"/>
        <pt x="367" y="50" on="0"/>
        <pt x="251" y="-12" on="0"/>
        <pt x="219" y="-12" on="1"/>
        <pt x="45" y="-12" on="0"/>
        <pt x="45" y="141" on="1"/>
        <pt x="45" y="223" on="0"/>
        <pt x="98" y="270" on="1"/>
        <pt x="129" y="297" on="0"/>
        <pt x="225" y="309" on="0"/>
        <pt x="346" y="309" on="1"/>
        <pt x="346" y="330" on="1"/>
        <pt x="346" y="388" on="0"/>
        <pt x="304" y="443" on="0"/>
        <pt x="258" y="443" on="1"/>
        <pt x="235" y="443" on="0"/>
        <pt x="213" y="433" on="1"/>
        <pt x="189" y="347" on="1"/>
        <pt x="130" y="347" on="0"/>
        <pt x="115" y="348" on="1"/>
        <pt x="89" y="387" on="0"/>
        <pt x="88" y="469" on="1"/>
        <pt x="109" y="479" on="0"/>
        <pt x="251" y="520" on="0"/>
        <pt x="271" y="520" on="1"/>
        <pt x="381" y="520" on="0"/>
        <pt x="419" y="478" on="1"/>
        <pt x="478" y="528" on="0"/>
        <pt x="676" y="528" on="0"/>
        <pt x="781" y="397" on="0"/>
        <pt x="781" y="294" on="1"/>
        <pt x="781" y="281" on="0"/>
        <pt x="780" y="276" on="1"/>
        <pt x="771" y="259" on="0"/>
        <pt x="758" y="245" on="1"/>
        <pt x="565" y="249" on="0"/>
        <pt x="471" y="250" on="1"/>
        <pt x="473" y="180" on="0"/>
        <pt x="525" y="85" on="0"/>
        <pt x="633" y="85" on="0"/>
        <pt x="733" y="133" on="1"/>
        <pt x="752" y="109" on="0"/>
        <pt x="766" y="59" on="1"/>
        <pt x="640" y="-12" on="0"/>
      </contour>
      <contour>
        <pt x="173" y="102" on="0"/>
        <pt x="214" y="71" on="0"/>
        <pt x="266" y="71" on="0"/>
        <pt x="338" y="118" on="0"/>
        <pt x="360" y="137" on="1"/>
        <pt x="355" y="229" on="1"/>
        <pt x="276" y="225" on="0"/>
        <pt x="236" y="214" on="1"/>
        <pt x="173" y="201" on="0"/>
        <pt x="173" y="135" on="1"/>
      </contour>
      <contour>
        <pt x="575" y="437" on="1"/>
        <pt x="537" y="437" on="0"/>
        <pt x="504" y="422" on="1"/>
        <pt x="481" y="374" on="0"/>
        <pt x="475" y="333" on="1"/>
        <pt x="553" y="336" on="0"/>
        <pt x="652" y="337" on="1"/>
        <pt x="647" y="437" on="0"/>
      </contour>
    </TTGlyph>
    <TTGlyph name="agrave" xMin="41" yMin="-12" xMax="559" yMax="747">
      <component glyphName="a" x="0" y="0" flags="0x1004"/>
      <component glyphName="grave" x="-46" y="0" flags="0x1004"/>
    </TTGlyph>
    <TTGlyph name="alternateE" xMin="10" yMin="-7" xMax="534" yMax="699">
      <contour>
        <pt x="238" y="601" on="1"/>
        <pt x="235" y="499" on="0"/>
        <pt x="233" y="465" on="1"/>
        <pt x="331" y="465" on="1"/>
        <pt x="339" y="512" on="1"/>
        <pt x="377" y="512" on="0"/>
        <pt x="419" y="495" on="1"/>
        <pt x="419" y="320" on="1"/>
        <pt x="354" y="312" on="1"/>
        <pt x="338" y="346" on="0"/>
        <pt x="334" y="369" on="1"/>
        <pt x="233" y="369" on="1"/>
        <pt x="229" y="267" on="0"/>
        <pt x="229" y="243" on="1"/>
        <pt x="434" y="243" on="1"/>
        <pt x="446" y="296" on="1"/>
        <pt x="520" y="293" on="1"/>
        <pt x="534" y="259" on="0"/>
        <pt x="534" y="158" on="0"/>
        <pt x="532" y="146" on="1"/>
        <pt x="26" y="146" on="1"/>
        <pt x="23" y="211" on="1"/>
        <pt x="67" y="227" on="0"/>
        <pt x="108" y="234" on="1"/>
        <pt x="104" y="420" on="0"/>
        <pt x="98" y="608" on="1"/>
        <pt x="76" y="610" on="0"/>
        <pt x="10" y="632" on="1"/>
        <pt x="15" y="699" on="1"/>
        <pt x="517" y="699" on="1"/>
        <pt x="519" y="686" on="0"/>
        <pt x="519" y="660" on="1"/>
        <pt x="519" y="606" on="0"/>
        <pt x="505" y="540" on="1"/>
        <pt x="490" y="540" on="0"/>
        <pt x="427" y="537" on="1"/>
        <pt x="411" y="601" on="1"/>
      </contour>
      <contour>
        <pt x="526" y="94" on="1"/>
        <pt x="533" y="68" on="0"/>
        <pt x="533" y="53" on="1"/>
        <pt x="528" y="1" on="1"/>
        <pt x="435" y="-7" on="0"/>
        <pt x="370" y="-7" on="1"/>
        <pt x="26" y="0" on="1"/>
        <pt x="21" y="35" on="0"/>
        <pt x="21" y="48" on="1"/>
        <pt x="26" y="91" on="1"/>
        <pt x="119" y="100" on="0"/>
        <pt x="184" y="100" on="1"/>
      </contour>
    </TTGlyph>
    <TTGlyph name="alternateQ" xMin="20" yMin="-287" xMax="1013" yMax="712">
      <contour>
        <pt x="892" y="-282" on="1"/>
        <pt x="867" y="-287" on="0"/>
        <pt x="765" y="-287" on="0"/>
        <pt x="601" y="-239" on="0"/>
        <pt x="537" y="-210" on="1"/>
        <pt x="367" y="-133" on="0"/>
        <pt x="274" y="-133" on="1"/>
        <pt x="250" y="-133" on="0"/>
        <pt x="120" y="-164" on="0"/>
        <pt x="115" y="-164" on="1"/>
        <pt x="100" y="-152" on="0"/>
        <pt x="83" y="-119" on="0"/>
        <pt x="81" y="-98" on="1"/>
        <pt x="204" y="-39" on="0"/>
        <pt x="314" y="-39" on="0"/>
        <pt x="491" y="-94" on="0"/>
        <pt x="691" y="-150" on="0"/>
        <pt x="763" y="-150" on="1"/>
        <pt x="856" y="-150" on="0"/>
        <pt x="960" y="-69" on="1"/>
        <pt x="1012" y="-88" on="0"/>
        <pt x="1012" y="-121" on="1"/>
        <pt x="1012" y="-126" on="0"/>
        <pt x="984" y="-180" on="0"/>
        <pt x="924" y="-258" on="0"/>
      </contour>
      <contour>
        <pt x="330" y="94" on="1"/>
        <pt x="496" y="94" on="0"/>
        <pt x="496" y="604" on="0"/>
        <pt x="330" y="604" on="1"/>
        <pt x="258" y="604" on="0"/>
        <pt x="204" y="582" on="1"/>
        <pt x="158" y="486" on="0"/>
        <pt x="158" y="233" on="0"/>
        <pt x="234" y="94" on="0"/>
      </contour>
      <contour>
        <pt x="330" y="712" on="1"/>
        <pt x="497" y="712" on="0"/>
        <pt x="633" y="537" on="0"/>
        <pt x="633" y="357" on="1"/>
        <pt x="633" y="244" on="0"/>
        <pt x="575" y="84" on="0"/>
        <pt x="437" y="-12" on="0"/>
        <pt x="330" y="-12" on="1"/>
        <pt x="167" y="-12" on="0"/>
        <pt x="20" y="170" on="0"/>
        <pt x="20" y="344" on="1"/>
        <pt x="20" y="712" on="0"/>
      </contour>
    </TTGlyph>
    <TTGlyph name="alternatedagger" xMin="21" yMin="-32" xMax="436" yMax="734">
      <contour>
        <pt x="172" y="420" on="1"/>
        <pt x="30" y="402" on="1"/>
        <pt x="24" y="402" on="1"/>
        <pt x="21" y="491" on="0"/>
        <pt x="21" y="529" on="1"/>
        <pt x="21" y="540" on="1"/>
        <pt x="34" y="540" on="1"/>
        <pt x="68" y="540" on="0"/>
        <pt x="169" y="529" on="1"/>
        <pt x="145" y="706" on="0"/>
        <pt x="145" y="731" on="1"/>
        <pt x="246" y="734" on="0"/>
        <pt x="291" y="734" on="1"/>
        <pt x="303" y="734" on="1"/>
        <pt x="304" y="713" on="1"/>
        <pt x="304" y="696" on="0"/>
        <pt x="287" y="529" on="1"/>
        <pt x="436" y="540" on="1"/>
        <pt x="433" y="402" on="1"/>
        <pt x="409" y="402" on="0"/>
        <pt x="285" y="419" on="1"/>
        <pt x="305" y="-30" on="1"/>
        <pt x="261" y="-32" on="0"/>
        <pt x="182" y="-32" on="0"/>
        <pt x="152" y="-27" on="1"/>
      </contour>
    </TTGlyph>
    <TTGlyph name="amacron" xMin="41" yMin="-12" xMax="559" yMax="704">
      <component glyphName="a" x="0" y="0" flags="0x1004"/>
      <component glyphName="macron" x="118" y="0" flags="0x1004"/>
    </TTGlyph>
    <TTGlyph name="ampersand" xMin="40" yMin="-18" xMax="748" yMax="712">
      <contour>
        <pt x="320" y="623" on="1"/>
        <pt x="280" y="623" on="0"/>
        <pt x="246" y="576" on="0"/>
        <pt x="246" y="526" on="0"/>
        <pt x="267" y="482" on="0"/>
        <pt x="292" y="453" on="0"/>
        <pt x="342" y="402" on="0"/>
        <pt x="367" y="374" on="1"/>
        <pt x="496" y="224" on="1"/>
        <pt x="506" y="234" on="0"/>
        <pt x="516" y="252" on="0"/>
        <pt x="529" y="274" on="0"/>
        <pt x="537" y="301" on="0"/>
        <pt x="542" y="320" on="1"/>
        <pt x="550" y="355" on="0"/>
        <pt x="552" y="418" on="1"/>
        <pt x="473" y="428" on="1"/>
        <pt x="473" y="471" on="0"/>
        <pt x="496" y="515" on="1"/>
        <pt x="748" y="515" on="1"/>
        <pt x="744" y="458" on="1"/>
        <pt x="709" y="437" on="0"/>
        <pt x="666" y="429" on="1"/>
        <pt x="666" y="345" on="0"/>
        <pt x="593" y="193" on="0"/>
        <pt x="562" y="163" on="1"/>
        <pt x="683" y="28" on="1"/>
        <pt x="661" y="-18" on="0"/>
        <pt x="609" y="-18" on="1"/>
        <pt x="500" y="78" on="1"/>
        <pt x="460" y="41" on="0"/>
        <pt x="345" y="-12" on="0"/>
        <pt x="300" y="-12" on="1"/>
        <pt x="190" y="-12" on="0"/>
        <pt x="40" y="101" on="0"/>
        <pt x="40" y="205" on="1"/>
        <pt x="40" y="267" on="0"/>
        <pt x="113" y="366" on="0"/>
        <pt x="165" y="395" on="1"/>
        <pt x="107" y="463" on="0"/>
        <pt x="107" y="616" on="0"/>
        <pt x="217" y="712" on="0"/>
        <pt x="313" y="712" on="1"/>
        <pt x="364" y="712" on="0"/>
        <pt x="462" y="664" on="0"/>
        <pt x="491" y="635" on="1"/>
        <pt x="473" y="527" on="1"/>
        <pt x="451" y="516" on="0"/>
        <pt x="400" y="516" on="0"/>
        <pt x="388" y="518" on="1"/>
        <pt x="364" y="619" on="1"/>
        <pt x="336" y="623" on="0"/>
      </contour>
      <contour>
        <pt x="212" y="302" on="0"/>
        <pt x="174" y="241" on="0"/>
        <pt x="174" y="173" on="0"/>
        <pt x="202" y="120" on="0"/>
        <pt x="224" y="107" on="1"/>
        <pt x="266" y="82" on="0"/>
        <pt x="303" y="82" on="1"/>
        <pt x="380" y="82" on="0"/>
        <pt x="436" y="143" on="1"/>
        <pt x="245" y="321" on="1"/>
      </contour>
    </TTGlyph>
    <TTGlyph name="approxequal" xMin="60" yMin="97" xMax="535" yMax="427">
      <contour>
        <pt x="87" y="286" on="1"/>
        <pt x="71" y="313" on="0"/>
        <pt x="60" y="345" on="1"/>
        <pt x="73" y="363" on="0"/>
        <pt x="178" y="427" on="0"/>
        <pt x="201" y="427" on="1"/>
        <pt x="404" y="377" on="1"/>
        <pt x="422" y="387" on="0"/>
        <pt x="508" y="413" on="1"/>
        <pt x="524" y="386" on="0"/>
        <pt x="535" y="354" on="1"/>
        <pt x="523" y="337" on="0"/>
        <pt x="417" y="272" on="0"/>
        <pt x="395" y="272" on="1"/>
        <pt x="191" y="322" on="1"/>
        <pt x="173" y="312" on="0"/>
      </contour>
      <contour>
        <pt x="87" y="111" on="1"/>
        <pt x="70" y="140" on="0"/>
        <pt x="60" y="170" on="1"/>
        <pt x="73" y="188" on="0"/>
        <pt x="178" y="252" on="0"/>
        <pt x="201" y="252" on="1"/>
        <pt x="404" y="202" on="1"/>
        <pt x="422" y="212" on="0"/>
        <pt x="508" y="238" on="1"/>
        <pt x="524" y="211" on="0"/>
        <pt x="535" y="179" on="1"/>
        <pt x="523" y="162" on="0"/>
        <pt x="417" y="97" on="0"/>
        <pt x="395" y="97" on="1"/>
        <pt x="191" y="147" on="1"/>
        <pt x="173" y="137" on="0"/>
      </contour>
    </TTGlyph>
    <TTGlyph name="aring" xMin="41" yMin="-12" xMax="559" yMax="803">
      <contour>
        <pt x="219" y="-12" on="1"/>
        <pt x="134" y="-12" on="0"/>
        <pt x="41" y="58" on="0"/>
        <pt x="41" y="141" on="1"/>
        <pt x="41" y="220" on="0"/>
        <pt x="96" y="270" on="1"/>
        <pt x="128" y="299" on="0"/>
        <pt x="242" y="309" on="0"/>
        <pt x="342" y="309" on="1"/>
        <pt x="342" y="325" on="1"/>
        <pt x="342" y="386" on="0"/>
        <pt x="303" y="443" on="0"/>
        <pt x="254" y="443" on="1"/>
        <pt x="229" y="443" on="0"/>
        <pt x="209" y="433" on="1"/>
        <pt x="185" y="346" on="1"/>
        <pt x="111" y="348" on="1"/>
        <pt x="86" y="386" on="0"/>
        <pt x="84" y="469" on="1"/>
        <pt x="104" y="479" on="0"/>
        <pt x="252" y="520" on="0"/>
        <pt x="273" y="520" on="1"/>
        <pt x="381" y="520" on="0"/>
        <pt x="479" y="431" on="0"/>
        <pt x="479" y="238" on="0"/>
        <pt x="470" y="80" on="1"/>
        <pt x="527" y="75" on="0"/>
        <pt x="558" y="63" on="1"/>
        <pt x="559" y="51" on="0"/>
        <pt x="559" y="34" on="1"/>
        <pt x="558" y="12" on="1"/>
        <pt x="486" y="-12" on="0"/>
        <pt x="413" y="-12" on="1"/>
        <pt x="394" y="-12" on="0"/>
        <pt x="385" y="-11" on="1"/>
        <pt x="370" y="19" on="0"/>
        <pt x="367" y="61" on="1"/>
        <pt x="362" y="61" on="1"/>
        <pt x="343" y="43" on="0"/>
        <pt x="248" y="-12" on="0"/>
      </contour>
      <contour>
        <pt x="169" y="102" on="0"/>
        <pt x="210" y="71" on="0"/>
        <pt x="262" y="71" on="0"/>
        <pt x="334" y="118" on="0"/>
        <pt x="356" y="137" on="1"/>
        <pt x="351" y="229" on="1"/>
        <pt x="272" y="225" on="0"/>
        <pt x="232" y="214" on="1"/>
        <pt x="169" y="201" on="0"/>
        <pt x="169" y="135" on="1"/>
      </contour>
      <contour>
        <pt x="257" y="732" on="0"/>
        <pt x="235" y="707" on="0"/>
        <pt x="235" y="664" on="0"/>
        <pt x="257" y="640" on="0"/>
        <pt x="294" y="640" on="0"/>
        <pt x="316" y="664" on="0"/>
        <pt x="316" y="707" on="0"/>
        <pt x="294" y="732" on="0"/>
      </contour>
      <contour>
        <pt x="329" y="803" on="0"/>
        <pt x="406" y="739" on="0"/>
        <pt x="406" y="630" on="0"/>
        <pt x="330" y="571" on="0"/>
        <pt x="222" y="571" on="0"/>
        <pt x="144" y="631" on="0"/>
        <pt x="144" y="739" on="0"/>
        <pt x="223" y="803" on="0"/>
      </contour>
    </TTGlyph>
    <TTGlyph name="asciicircum" xMin="60" yMin="377" xMax="452" yMax="702">
      <contour>
        <pt x="223" y="700" on="1"/>
        <pt x="227" y="702" on="0"/>
        <pt x="285" y="702" on="0"/>
        <pt x="294" y="699" on="1"/>
        <pt x="452" y="396" on="1"/>
        <pt x="447" y="390" on="0"/>
        <pt x="413" y="377" on="0"/>
        <pt x="406" y="377" on="1"/>
        <pt x="336" y="428" on="0"/>
        <pt x="310" y="476" on="1"/>
        <pt x="304" y="486" on="0"/>
        <pt x="273" y="554" on="0"/>
        <pt x="256" y="588" on="1"/>
        <pt x="239" y="554" on="0"/>
        <pt x="208" y="486" on="0"/>
        <pt x="190" y="455" on="0"/>
        <pt x="142" y="405" on="0"/>
        <pt x="106" y="377" on="1"/>
        <pt x="99" y="377" on="0"/>
        <pt x="65" y="390" on="0"/>
        <pt x="60" y="396" on="1"/>
        <pt x="217" y="695" on="0"/>
      </contour>
    </TTGlyph>
    <TTGlyph name="asciitilde" xMin="50" yMin="186" xMax="533" yMax="359">
      <contour>
        <pt x="81" y="215" on="1"/>
        <pt x="60" y="242" on="0"/>
        <pt x="50" y="265" on="1"/>
        <pt x="64" y="285" on="0"/>
        <pt x="176" y="359" on="0"/>
        <pt x="202" y="359" on="1"/>
        <pt x="394" y="293" on="1"/>
        <pt x="412" y="302" on="0"/>
        <pt x="503" y="331" on="1"/>
        <pt x="521" y="307" on="0"/>
        <pt x="533" y="281" on="1"/>
        <pt x="521" y="261" on="0"/>
        <pt x="408" y="186" on="0"/>
        <pt x="383" y="186" on="1"/>
        <pt x="190" y="252" on="1"/>
        <pt x="125" y="223" on="0"/>
      </contour>
    </TTGlyph>
    <TTGlyph name="asterisk" xMin="26" yMin="399" xMax="399" yMax="745">
      <contour>
        <pt x="193" y="640" on="1"/>
        <pt x="190" y="721" on="1"/>
        <pt x="190" y="732" on="0"/>
        <pt x="191" y="735" on="1"/>
        <pt x="221" y="745" on="0"/>
        <pt x="270" y="745" on="0"/>
        <pt x="293" y="739" on="1"/>
        <pt x="305" y="729" on="0"/>
        <pt x="311" y="701" on="1"/>
        <pt x="308" y="691" on="0"/>
        <pt x="260" y="622" on="0"/>
        <pt x="258" y="617" on="1"/>
        <pt x="261" y="619" on="0"/>
        <pt x="336" y="665" on="0"/>
        <pt x="347" y="668" on="1"/>
        <pt x="390" y="623" on="0"/>
        <pt x="399" y="591" on="1"/>
        <pt x="399" y="577" on="0"/>
        <pt x="372" y="556" on="1"/>
        <pt x="360" y="554" on="0"/>
        <pt x="334" y="554" on="0"/>
        <pt x="278" y="557" on="0"/>
        <pt x="268" y="557" on="1"/>
        <pt x="274" y="553" on="0"/>
        <pt x="298" y="540" on="1"/>
        <pt x="355" y="510" on="0"/>
        <pt x="364" y="501" on="1"/>
        <pt x="351" y="451" on="0"/>
        <pt x="324" y="424" on="1"/>
        <pt x="316" y="422" on="0"/>
        <pt x="287" y="422" on="0"/>
        <pt x="268" y="429" on="1"/>
        <pt x="256" y="443" on="0"/>
        <pt x="232" y="504" on="1"/>
        <pt x="235" y="423" on="1"/>
        <pt x="235" y="412" on="0"/>
        <pt x="234" y="409" on="1"/>
        <pt x="202" y="399" on="0"/>
        <pt x="153" y="399" on="0"/>
        <pt x="132" y="405" on="1"/>
        <pt x="119" y="414" on="0"/>
        <pt x="113" y="442" on="1"/>
        <pt x="117" y="453" on="0"/>
        <pt x="161" y="520" on="0"/>
        <pt x="164" y="526" on="1"/>
        <pt x="161" y="524" on="0"/>
        <pt x="86" y="478" on="0"/>
        <pt x="76" y="476" on="1"/>
        <pt x="34" y="521" on="0"/>
        <pt x="26" y="553" on="1"/>
        <pt x="26" y="566" on="0"/>
        <pt x="52" y="588" on="1"/>
        <pt x="64" y="590" on="0"/>
        <pt x="90" y="590" on="0"/>
        <pt x="144" y="587" on="0"/>
        <pt x="153" y="587" on="1"/>
        <pt x="147" y="591" on="0"/>
        <pt x="124" y="604" on="1"/>
        <pt x="68" y="635" on="0"/>
        <pt x="60" y="643" on="1"/>
        <pt x="74" y="693" on="0"/>
        <pt x="100" y="720" on="1"/>
        <pt x="110" y="722" on="0"/>
        <pt x="133" y="722" on="0"/>
        <pt x="157" y="714" on="1"/>
        <pt x="162" y="708" on="0"/>
        <pt x="191" y="643" on="0"/>
      </contour>
    </TTGlyph>
    <TTGlyph name="at" xMin="70" yMin="-190" xMax="923" yMax="665">
      <contour>
        <pt x="477" y="64" on="1"/>
        <pt x="494" y="64" on="0"/>
        <pt x="578" y="116" on="1"/>
        <pt x="578" y="117" on="0"/>
        <pt x="575" y="210" on="1"/>
        <pt x="499" y="203" on="1"/>
        <pt x="418" y="195" on="0"/>
        <pt x="418" y="128" on="1"/>
        <pt x="418" y="64" on="0"/>
      </contour>
      <contour>
        <pt x="703" y="306" on="1"/>
        <pt x="699" y="76" on="1"/>
        <pt x="735" y="71" on="0"/>
        <pt x="779" y="58" on="1"/>
        <pt x="823" y="146" on="0"/>
        <pt x="823" y="260" on="1"/>
        <pt x="823" y="413" on="0"/>
        <pt x="647" y="577" on="0"/>
        <pt x="346" y="577" on="0"/>
        <pt x="170" y="413" on="0"/>
        <pt x="170" y="100" on="0"/>
        <pt x="362" y="-104" on="0"/>
        <pt x="494" y="-104" on="1"/>
        <pt x="572" y="-104" on="0"/>
        <pt x="790" y="-62" on="0"/>
        <pt x="826" y="-41" on="1"/>
        <pt x="836" y="-51" on="0"/>
        <pt x="855" y="-100" on="0"/>
        <pt x="857" y="-120" on="1"/>
        <pt x="818" y="-146" on="0"/>
        <pt x="587" y="-190" on="0"/>
        <pt x="495" y="-190" on="1"/>
        <pt x="310" y="-190" on="0"/>
        <pt x="70" y="62" on="0"/>
        <pt x="70" y="449" on="0"/>
        <pt x="291" y="665" on="0"/>
        <pt x="702" y="665" on="0"/>
        <pt x="923" y="460" on="0"/>
        <pt x="923" y="275" on="1"/>
        <pt x="923" y="196" on="0"/>
        <pt x="829" y="30" on="0"/>
        <pt x="776" y="5" on="1"/>
        <pt x="754" y="-5" on="0"/>
        <pt x="656" y="-28" on="0"/>
        <pt x="608" y="-28" on="1"/>
        <pt x="601" y="-14" on="0"/>
        <pt x="589" y="22" on="1"/>
        <pt x="500" y="-34" on="0"/>
        <pt x="456" y="-34" on="1"/>
        <pt x="379" y="-34" on="0"/>
        <pt x="286" y="47" on="0"/>
        <pt x="286" y="120" on="1"/>
        <pt x="286" y="284" on="0"/>
        <pt x="488" y="291" on="1"/>
        <pt x="539" y="291" on="0"/>
        <pt x="571" y="293" on="1"/>
        <pt x="570" y="309" on="1"/>
        <pt x="568" y="365" on="0"/>
        <pt x="533" y="417" on="0"/>
        <pt x="489" y="417" on="1"/>
        <pt x="457" y="411" on="1"/>
        <pt x="434" y="310" on="1"/>
        <pt x="398" y="309" on="1"/>
        <pt x="341" y="316" on="1"/>
        <pt x="322" y="368" on="0"/>
        <pt x="321" y="450" on="1"/>
        <pt x="342" y="461" on="0"/>
        <pt x="487" y="507" on="0"/>
        <pt x="506" y="507" on="1"/>
        <pt x="614" y="507" on="0"/>
        <pt x="703" y="412" on="0"/>
      </contour>
    </TTGlyph>
    <TTGlyph name="atilde" xMin="41" yMin="-12" xMax="559" yMax="712">
      <component glyphName="a" x="0" y="0" flags="0x1004"/>
      <component glyphName="tilde" x="-27" y="0" flags="0x1004"/>
    </TTGlyph>
    <TTGlyph name="b" xMin="7" yMin="-12" xMax="546" yMax="743">
      <contour>
        <pt x="209" y="743" on="1"/>
        <pt x="233" y="743" on="0"/>
        <pt x="240" y="742" on="1"/>
        <pt x="240" y="690" on="0"/>
        <pt x="227" y="651" on="1"/>
        <pt x="224" y="483" on="1"/>
        <pt x="317" y="520" on="0"/>
        <pt x="352" y="520" on="1"/>
        <pt x="451" y="520" on="0"/>
        <pt x="546" y="373" on="0"/>
        <pt x="546" y="139" on="0"/>
        <pt x="440" y="-12" on="0"/>
        <pt x="339" y="-12" on="1"/>
        <pt x="273" y="-12" on="0"/>
        <pt x="200" y="38" on="1"/>
        <pt x="196" y="15" on="0"/>
        <pt x="188" y="-4" on="1"/>
        <pt x="170" y="-6" on="0"/>
        <pt x="134" y="-6" on="0"/>
        <pt x="107" y="0" on="1"/>
        <pt x="86" y="640" on="1"/>
        <pt x="39" y="645" on="0"/>
        <pt x="7" y="655" on="1"/>
        <pt x="7" y="692" on="0"/>
        <pt x="14" y="727" on="1"/>
        <pt x="72" y="743" on="0"/>
      </contour>
      <contour>
        <pt x="335" y="415" on="1"/>
        <pt x="270" y="415" on="0"/>
        <pt x="223" y="392" on="1"/>
        <pt x="221" y="224" on="0"/>
        <pt x="219" y="138" on="1"/>
        <pt x="243" y="118" on="0"/>
        <pt x="305" y="86" on="0"/>
        <pt x="327" y="86" on="1"/>
        <pt x="414" y="86" on="0"/>
        <pt x="414" y="246" on="1"/>
        <pt x="414" y="314" on="0"/>
        <pt x="377" y="415" on="0"/>
      </contour>
    </TTGlyph>
    <TTGlyph name="backslash" xMin="30" yMin="-4" xMax="411" yMax="703">
      <contour>
        <pt x="411" y="-1" on="1"/>
        <pt x="391" y="-4" on="0"/>
        <pt x="317" y="-4" on="0"/>
        <pt x="296" y="1" on="1"/>
        <pt x="30" y="694" on="1"/>
        <pt x="81" y="703" on="0"/>
        <pt x="133" y="703" on="0"/>
        <pt x="159" y="699" on="1"/>
      </contour>
    </TTGlyph>
    <TTGlyph name="bar" xMin="100" yMin="-209" xMax="238" yMax="749">
      <contour>
        <pt x="228" y="-199" on="1"/>
        <pt x="204" y="-209" on="0"/>
        <pt x="142" y="-209" on="0"/>
        <pt x="112" y="-201" on="1"/>
        <pt x="110" y="47" on="0"/>
        <pt x="101" y="636" on="0"/>
        <pt x="100" y="741" on="1"/>
        <pt x="134" y="749" on="0"/>
        <pt x="208" y="749" on="0"/>
        <pt x="238" y="743" on="1"/>
      </contour>
    </TTGlyph>
    <TTGlyph name="braceleft" xMin="31" yMin="-166" xMax="377" yMax="771">
      <contour>
        <pt x="260" y="174" on="1"/>
        <pt x="256" y="9" on="1"/>
        <pt x="256" y="-28" on="1"/>
        <pt x="358" y="-83" on="0"/>
        <pt x="377" y="-98" on="1"/>
        <pt x="368" y="-125" on="0"/>
        <pt x="347" y="-166" on="1"/>
        <pt x="303" y="-161" on="0"/>
        <pt x="153" y="-112" on="1"/>
        <pt x="143" y="-105" on="0"/>
        <pt x="119" y="-52" on="0"/>
        <pt x="119" y="-42" on="1"/>
        <pt x="151" y="160" on="1"/>
        <pt x="122" y="190" on="0"/>
        <pt x="44" y="260" on="1"/>
        <pt x="38" y="265" on="1"/>
        <pt x="31" y="280" on="0"/>
        <pt x="31" y="306" on="1"/>
        <pt x="37" y="340" on="1"/>
        <pt x="54" y="354" on="0"/>
        <pt x="139" y="432" on="0"/>
        <pt x="151" y="445" on="1"/>
        <pt x="129" y="579" on="0"/>
        <pt x="119" y="647" on="1"/>
        <pt x="119" y="656" on="0"/>
        <pt x="143" y="709" on="0"/>
        <pt x="153" y="717" on="1"/>
        <pt x="303" y="766" on="0"/>
        <pt x="347" y="771" on="1"/>
        <pt x="367" y="732" on="0"/>
        <pt x="377" y="702" on="1"/>
        <pt x="353" y="684" on="0"/>
        <pt x="256" y="633" on="1"/>
        <pt x="256" y="595" on="1"/>
        <pt x="260" y="430" on="1"/>
        <pt x="260" y="364" on="0"/>
        <pt x="128" y="308" on="1"/>
        <pt x="128" y="297" on="1"/>
        <pt x="260" y="241" on="0"/>
      </contour>
    </TTGlyph>
    <TTGlyph name="braceright" xMin="29" yMin="-166" xMax="375" yMax="771">
      <contour>
        <pt x="146" y="430" on="1"/>
        <pt x="150" y="595" on="1"/>
        <pt x="150" y="633" on="1"/>
        <pt x="53" y="684" on="0"/>
        <pt x="29" y="702" on="1"/>
        <pt x="39" y="732" on="0"/>
        <pt x="59" y="771" on="1"/>
        <pt x="103" y="766" on="0"/>
        <pt x="253" y="717" on="1"/>
        <pt x="263" y="709" on="0"/>
        <pt x="287" y="656" on="0"/>
        <pt x="287" y="647" on="1"/>
        <pt x="277" y="579" on="0"/>
        <pt x="255" y="445" on="1"/>
        <pt x="267" y="432" on="0"/>
        <pt x="352" y="354" on="0"/>
        <pt x="369" y="340" on="1"/>
        <pt x="375" y="321" on="0"/>
        <pt x="375" y="308" on="1"/>
        <pt x="375" y="281" on="0"/>
        <pt x="368" y="265" on="1"/>
        <pt x="362" y="260" on="1"/>
        <pt x="284" y="190" on="0"/>
        <pt x="255" y="160" on="1"/>
        <pt x="287" y="-42" on="1"/>
        <pt x="287" y="-52" on="0"/>
        <pt x="263" y="-105" on="0"/>
        <pt x="253" y="-112" on="1"/>
        <pt x="103" y="-161" on="0"/>
        <pt x="59" y="-166" on="1"/>
        <pt x="38" y="-125" on="0"/>
        <pt x="29" y="-98" on="1"/>
        <pt x="48" y="-83" on="0"/>
        <pt x="150" y="-28" on="1"/>
        <pt x="150" y="9" on="1"/>
        <pt x="146" y="174" on="1"/>
        <pt x="146" y="241" on="0"/>
        <pt x="278" y="297" on="1"/>
        <pt x="278" y="308" on="1"/>
        <pt x="146" y="364" on="0"/>
      </contour>
    </TTGlyph>
    <TTGlyph name="bracketleft" xMin="85" yMin="-206" xMax="333" yMax="773">
      <contour>
        <pt x="218" y="667" on="1"/>
        <pt x="214" y="-108" on="1"/>
        <pt x="333" y="-116" on="1"/>
        <pt x="333" y="-167" on="0"/>
        <pt x="329" y="-188" on="1"/>
        <pt x="313" y="-193" on="0"/>
        <pt x="152" y="-206" on="0"/>
        <pt x="119" y="-206" on="1"/>
        <pt x="115" y="-202" on="0"/>
        <pt x="100" y="-158" on="0"/>
        <pt x="99" y="-142" on="1"/>
        <pt x="95" y="137" on="0"/>
        <pt x="85" y="709" on="1"/>
        <pt x="86" y="725" on="0"/>
        <pt x="102" y="770" on="0"/>
        <pt x="105" y="773" on="1"/>
        <pt x="139" y="773" on="0"/>
        <pt x="313" y="760" on="0"/>
        <pt x="329" y="755" on="1"/>
        <pt x="332" y="731" on="0"/>
        <pt x="332" y="683" on="1"/>
        <pt x="316" y="678" on="0"/>
      </contour>
    </TTGlyph>
    <TTGlyph name="bracketright" xMin="40" yMin="-206" xMax="288" yMax="773">
      <contour>
        <pt x="159" y="-108" on="1"/>
        <pt x="155" y="667" on="1"/>
        <pt x="57" y="678" on="0"/>
        <pt x="41" y="683" on="1"/>
        <pt x="41" y="731" on="0"/>
        <pt x="44" y="755" on="1"/>
        <pt x="60" y="760" on="0"/>
        <pt x="234" y="773" on="0"/>
        <pt x="268" y="773" on="1"/>
        <pt x="271" y="770" on="0"/>
        <pt x="287" y="725" on="0"/>
        <pt x="288" y="709" on="1"/>
        <pt x="278" y="137" on="0"/>
        <pt x="274" y="-142" on="1"/>
        <pt x="273" y="-158" on="0"/>
        <pt x="258" y="-202" on="0"/>
        <pt x="254" y="-206" on="1"/>
        <pt x="221" y="-206" on="0"/>
        <pt x="60" y="-193" on="0"/>
        <pt x="44" y="-188" on="1"/>
        <pt x="40" y="-167" on="0"/>
        <pt x="40" y="-116" on="1"/>
        <pt x="108" y="-110" on="0"/>
      </contour>
    </TTGlyph>
    <TTGlyph name="breve" xMin="45" yMin="575" xMax="355" yMax="737">
      <contour>
        <pt x="355" y="737" on="1"/>
        <pt x="355" y="673" on="0"/>
        <pt x="269" y="575" on="0"/>
        <pt x="126" y="575" on="0"/>
        <pt x="45" y="672" on="0"/>
        <pt x="45" y="737" on="1"/>
        <pt x="127" y="737" on="1"/>
        <pt x="127" y="709" on="0"/>
        <pt x="162" y="668" on="0"/>
        <pt x="199" y="668" on="1"/>
        <pt x="262" y="668" on="0"/>
        <pt x="262" y="737" on="1"/>
      </contour>
    </TTGlyph>
    <TTGlyph name="brokenbar" xMin="100" yMin="-220" xMax="238" yMax="753">
      <contour>
        <pt x="238" y="747" on="1"/>
        <pt x="234" y="382" on="1"/>
        <pt x="105" y="381" on="1"/>
        <pt x="104" y="504" on="0"/>
        <pt x="100" y="745" on="1"/>
        <pt x="134" y="753" on="0"/>
        <pt x="208" y="753" on="0"/>
      </contour>
      <contour>
        <pt x="112" y="-212" on="1"/>
        <pt x="110" y="14" on="0"/>
        <pt x="108" y="127" on="1"/>
        <pt x="232" y="128" on="1"/>
        <pt x="230" y="14" on="0"/>
        <pt x="228" y="-210" on="1"/>
        <pt x="204" y="-220" on="0"/>
        <pt x="142" y="-220" on="0"/>
      </contour>
    </TTGlyph>
    <TTGlyph name="bullet" xMin="91" yMin="164" xMax="339" yMax="402">
      <contour>
        <pt x="333" y="177" on="1"/>
        <pt x="290" y="164" on="0"/>
        <pt x="177" y="164" on="0"/>
        <pt x="107" y="172" on="1"/>
        <pt x="91" y="234" on="0"/>
        <pt x="91" y="347" on="0"/>
        <pt x="97" y="390" on="1"/>
        <pt x="159" y="402" on="0"/>
        <pt x="276" y="402" on="0"/>
        <pt x="326" y="395" on="1"/>
        <pt x="339" y="328" on="0"/>
        <pt x="339" y="224" on="0"/>
      </contour>
    </TTGlyph>
    <TTGlyph name="c" xMin="36" yMin="-13" xMax="463" yMax="520">
      <contour>
        <pt x="307" y="437" on="1"/>
        <pt x="291" y="438" on="1"/>
        <pt x="235" y="438" on="0"/>
        <pt x="168" y="361" on="0"/>
        <pt x="168" y="180" on="0"/>
        <pt x="219" y="86" on="0"/>
        <pt x="292" y="86" on="1"/>
        <pt x="326" y="86" on="0"/>
        <pt x="436" y="132" on="1"/>
        <pt x="461" y="97" on="0"/>
        <pt x="463" y="59" on="1"/>
        <pt x="408" y="25" on="0"/>
        <pt x="303" y="-13" on="0"/>
        <pt x="281" y="-13" on="1"/>
        <pt x="158" y="-13" on="0"/>
        <pt x="36" y="122" on="0"/>
        <pt x="36" y="244" on="1"/>
        <pt x="36" y="520" on="0"/>
        <pt x="285" y="520" on="1"/>
        <pt x="328" y="520" on="0"/>
        <pt x="419" y="499" on="0"/>
        <pt x="445" y="483" on="1"/>
        <pt x="442" y="383" on="0"/>
        <pt x="423" y="338" on="1"/>
        <pt x="390" y="330" on="0"/>
        <pt x="330" y="330" on="1"/>
      </contour>
    </TTGlyph>
    <TTGlyph name="caron" xMin="81" yMin="555" xMax="398" yMax="746">
      <contour>
        <pt x="135" y="746" on="1"/>
        <pt x="208" y="709" on="0"/>
        <pt x="240" y="685" on="1"/>
        <pt x="258" y="699" on="0"/>
        <pt x="345" y="746" on="1"/>
        <pt x="383" y="710" on="0"/>
        <pt x="398" y="686" on="1"/>
        <pt x="240" y="555" on="1"/>
        <pt x="81" y="686" on="1"/>
        <pt x="95" y="708" on="0"/>
      </contour>
    </TTGlyph>
    <TTGlyph name="ccedilla" xMin="36" yMin="-213" xMax="463" yMax="520">
      <contour>
        <pt x="307" y="437" on="1"/>
        <pt x="291" y="438" on="1"/>
        <pt x="235" y="438" on="0"/>
        <pt x="168" y="361" on="0"/>
        <pt x="168" y="180" on="0"/>
        <pt x="219" y="86" on="0"/>
        <pt x="292" y="86" on="1"/>
        <pt x="326" y="86" on="0"/>
        <pt x="436" y="132" on="1"/>
        <pt x="461" y="97" on="0"/>
        <pt x="463" y="59" on="1"/>
        <pt x="375" y="5" on="0"/>
        <pt x="302" y="-10" on="1"/>
        <pt x="298" y="-26" on="1"/>
        <pt x="369" y="-64" on="0"/>
        <pt x="369" y="-124" on="0"/>
        <pt x="299" y="-197" on="0"/>
        <pt x="254" y="-213" on="1"/>
        <pt x="228" y="-182" on="1"/>
        <pt x="230" y="-177" on="0"/>
        <pt x="240" y="-158" on="1"/>
        <pt x="264" y="-114" on="0"/>
        <pt x="264" y="-101" on="1"/>
        <pt x="264" y="-95" on="0"/>
        <pt x="206" y="-72" on="1"/>
        <pt x="206" y="-49" on="0"/>
        <pt x="219" y="-8" on="1"/>
        <pt x="36" y="24" on="0"/>
        <pt x="36" y="244" on="1"/>
        <pt x="36" y="520" on="0"/>
        <pt x="285" y="520" on="1"/>
        <pt x="328" y="520" on="0"/>
        <pt x="419" y="499" on="0"/>
        <pt x="445" y="483" on="1"/>
        <pt x="442" y="383" on="0"/>
        <pt x="423" y="338" on="1"/>
        <pt x="390" y="330" on="0"/>
        <pt x="330" y="330" on="1"/>
      </contour>
    </TTGlyph>
    <TTGlyph name="cedilla" xMin="171" yMin="-213" xMax="334" yMax="51">
      <contour>
        <pt x="229" y="-101" on="1"/>
        <pt x="229" y="-95" on="0"/>
        <pt x="171" y="-72" on="1"/>
        <pt x="171" y="-34" on="0"/>
        <pt x="207" y="48" on="1"/>
        <pt x="224" y="51" on="0"/>
        <pt x="246" y="51" on="0"/>
        <pt x="273" y="42" on="1"/>
        <pt x="270" y="-7" on="0"/>
        <pt x="263" y="-26" on="1"/>
        <pt x="334" y="-64" on="0"/>
        <pt x="334" y="-124" on="0"/>
        <pt x="264" y="-197" on="0"/>
        <pt x="219" y="-213" on="1"/>
        <pt x="193" y="-182" on="1"/>
        <pt x="195" y="-177" on="0"/>
        <pt x="205" y="-158" on="1"/>
        <pt x="229" y="-114" on="0"/>
      </contour>
    </TTGlyph>
    <TTGlyph name="cent" xMin="50" yMin="-123" xMax="497" yMax="680">
      <contour>
        <pt x="344" y="-8" on="1"/>
        <pt x="343" y="-115" on="1"/>
        <pt x="322" y="-123" on="0"/>
        <pt x="280" y="-123" on="0"/>
        <pt x="253" y="-116" on="1"/>
        <pt x="252" y="-8" on="1"/>
        <pt x="50" y="21" on="0"/>
        <pt x="50" y="521" on="0"/>
        <pt x="246" y="554" on="1"/>
        <pt x="245" y="671" on="1"/>
        <pt x="272" y="680" on="0"/>
        <pt x="328" y="680" on="0"/>
        <pt x="352" y="672" on="1"/>
        <pt x="350" y="594" on="0"/>
        <pt x="350" y="556" on="1"/>
        <pt x="422" y="546" on="0"/>
        <pt x="478" y="513" on="1"/>
        <pt x="475" y="411" on="0"/>
        <pt x="455" y="357" on="1"/>
        <pt x="424" y="351" on="0"/>
        <pt x="395" y="351" on="1"/>
        <pt x="358" y="352" on="1"/>
        <pt x="334" y="467" on="1"/>
        <pt x="328" y="468" on="0"/>
        <pt x="316" y="468" on="1"/>
        <pt x="256" y="468" on="0"/>
        <pt x="184" y="384" on="0"/>
        <pt x="184" y="189" on="0"/>
        <pt x="239" y="80" on="0"/>
        <pt x="317" y="80" on="1"/>
        <pt x="328" y="80" on="0"/>
        <pt x="411" y="106" on="0"/>
        <pt x="460" y="129" on="1"/>
        <pt x="494" y="87" on="0"/>
        <pt x="497" y="53" on="1"/>
        <pt x="419" y="5" on="0"/>
      </contour>
    </TTGlyph>
    <TTGlyph name="circumflex" xMin="96" yMin="555" xMax="413" yMax="746">
      <contour>
        <pt x="359" y="555" on="1"/>
        <pt x="286" y="592" on="0"/>
        <pt x="254" y="616" on="1"/>
        <pt x="236" y="602" on="0"/>
        <pt x="149" y="555" on="1"/>
        <pt x="111" y="591" on="0"/>
        <pt x="96" y="615" on="1"/>
        <pt x="254" y="746" on="1"/>
        <pt x="413" y="615" on="1"/>
        <pt x="399" y="593" on="0"/>
      </contour>
    </TTGlyph>
    <TTGlyph name="colon" xMin="66" yMin="-1" xMax="212" yMax="454">
      <contour>
        <pt x="203" y="127" on="1"/>
        <pt x="212" y="91" on="0"/>
        <pt x="212" y="40" on="0"/>
        <pt x="209" y="8" on="1"/>
        <pt x="174" y="-1" on="0"/>
        <pt x="114" y="-1" on="0"/>
        <pt x="76" y="2" on="1"/>
        <pt x="66" y="42" on="0"/>
        <pt x="66" y="79" on="0"/>
        <pt x="70" y="121" on="1"/>
        <pt x="103" y="130" on="0"/>
        <pt x="164" y="130" on="0"/>
      </contour>
      <contour>
        <pt x="203" y="451" on="1"/>
        <pt x="212" y="415" on="0"/>
        <pt x="212" y="364" on="0"/>
        <pt x="209" y="332" on="1"/>
        <pt x="174" y="323" on="0"/>
        <pt x="114" y="323" on="0"/>
        <pt x="76" y="326" on="1"/>
        <pt x="66" y="366" on="0"/>
        <pt x="66" y="403" on="0"/>
        <pt x="70" y="445" on="1"/>
        <pt x="103" y="454" on="0"/>
        <pt x="164" y="454" on="0"/>
      </contour>
    </TTGlyph>
    <TTGlyph name="comma" xMin="25" yMin="-132" xMax="194" yMax="132">
      <contour>
        <pt x="185" y="128" on="1"/>
        <pt x="194" y="92" on="0"/>
        <pt x="194" y="0" on="0"/>
        <pt x="116" y="-111" on="0"/>
        <pt x="82" y="-132" on="1"/>
        <pt x="47" y="-117" on="0"/>
        <pt x="25" y="-92" on="1"/>
        <pt x="38" y="-53" on="0"/>
        <pt x="82" y="-1" on="1"/>
        <pt x="57" y="2" on="1"/>
        <pt x="48" y="33" on="0"/>
        <pt x="48" y="98" on="0"/>
        <pt x="51" y="123" on="1"/>
        <pt x="92" y="132" on="0"/>
        <pt x="133" y="132" on="0"/>
      </contour>
    </TTGlyph>
    <TTGlyph name="copyright" xMin="19" yMin="-12" xMax="799" yMax="749">
      <contour>
        <pt x="81" y="120" on="0"/>
        <pt x="19" y="270" on="0"/>
        <pt x="19" y="467" on="0"/>
        <pt x="81" y="616" on="0"/>
        <pt x="136" y="660" on="1"/>
        <pt x="244" y="749" on="0"/>
        <pt x="409" y="749" on="1"/>
        <pt x="572" y="749" on="0"/>
        <pt x="682" y="657" on="1"/>
        <pt x="736" y="612" on="0"/>
        <pt x="799" y="464" on="0"/>
        <pt x="799" y="270" on="0"/>
        <pt x="737" y="120" on="0"/>
        <pt x="627" y="32" on="0"/>
        <pt x="490" y="-12" on="0"/>
        <pt x="328" y="-12" on="0"/>
        <pt x="190" y="32" on="0"/>
      </contour>
      <contour>
        <pt x="279" y="657" on="0"/>
        <pt x="150" y="505" on="0"/>
        <pt x="150" y="238" on="0"/>
        <pt x="282" y="74" on="0"/>
        <pt x="531" y="74" on="0"/>
        <pt x="669" y="240" on="0"/>
        <pt x="669" y="506" on="0"/>
        <pt x="539" y="657" on="0"/>
      </contour>
      <contour>
        <pt x="468" y="517" on="1"/>
        <pt x="421" y="521" on="1"/>
        <pt x="396" y="521" on="0"/>
        <pt x="348" y="508" on="1"/>
        <pt x="323" y="462" on="0"/>
        <pt x="323" y="380" on="1"/>
        <pt x="323" y="219" on="0"/>
        <pt x="412" y="219" on="1"/>
        <pt x="448" y="219" on="0"/>
        <pt x="472" y="229" on="1"/>
        <pt x="485" y="307" on="1"/>
        <pt x="514" y="308" on="1"/>
        <pt x="561" y="302" on="1"/>
        <pt x="571" y="226" on="0"/>
        <pt x="571" y="181" on="1"/>
        <pt x="556" y="169" on="0"/>
        <pt x="459" y="139" on="0"/>
        <pt x="414" y="139" on="1"/>
        <pt x="321" y="139" on="0"/>
        <pt x="207" y="251" on="0"/>
        <pt x="207" y="483" on="0"/>
        <pt x="313" y="601" on="0"/>
        <pt x="417" y="601" on="1"/>
        <pt x="457" y="601" on="0"/>
        <pt x="533" y="575" on="0"/>
        <pt x="552" y="562" on="1"/>
        <pt x="570" y="549" on="1"/>
        <pt x="570" y="537" on="1"/>
        <pt x="570" y="504" on="0"/>
        <pt x="560" y="446" on="1"/>
        <pt x="533" y="440" on="0"/>
        <pt x="514" y="440" on="1"/>
        <pt x="486" y="441" on="1"/>
      </contour>
    </TTGlyph>
    <TTGlyph name="cuatro" xMin="15" yMin="-3" xMax="526" yMax="670">
      <contour>
        <pt x="525" y="248" on="1"/>
        <pt x="526" y="225" on="1"/>
        <pt x="526" y="186" on="0"/>
        <pt x="509" y="157" on="1"/>
        <pt x="423" y="157" on="1"/>
        <pt x="416" y="1" on="1"/>
        <pt x="399" y="-3" on="0"/>
        <pt x="341" y="-3" on="0"/>
        <pt x="317" y="0" on="1"/>
        <pt x="310" y="157" on="1"/>
        <pt x="35" y="157" on="1"/>
        <pt x="15" y="186" on="0"/>
        <pt x="15" y="218" on="1"/>
        <pt x="15" y="226" on="0"/>
        <pt x="17" y="230" on="1"/>
        <pt x="272" y="670" on="1"/>
        <pt x="434" y="670" on="1"/>
        <pt x="434" y="666" on="0"/>
        <pt x="425" y="249" on="1"/>
      </contour>
      <contour>
        <pt x="308" y="250" on="1"/>
        <pt x="301" y="501" on="1"/>
        <pt x="152" y="248" on="1"/>
        <pt x="204" y="248" on="0"/>
      </contour>
    </TTGlyph>
    <TTGlyph name="currency" xMin="30" yMin="78" xMax="588" yMax="613">
      <contour>
        <pt x="192" y="533" on="1"/>
        <pt x="239" y="562" on="0"/>
        <pt x="380" y="562" on="0"/>
        <pt x="427" y="535" on="1"/>
        <pt x="485" y="595" on="0"/>
        <pt x="513" y="613" on="1"/>
        <pt x="569" y="581" on="0"/>
        <pt x="587" y="549" on="1"/>
        <pt x="587" y="538" on="0"/>
        <pt x="573" y="512" on="1"/>
        <pt x="543" y="497" on="0"/>
        <pt x="494" y="463" on="1"/>
        <pt x="516" y="416" on="0"/>
        <pt x="516" y="290" on="0"/>
        <pt x="485" y="236" on="1"/>
        <pt x="490" y="232" on="1"/>
        <pt x="545" y="194" on="0"/>
        <pt x="574" y="180" on="1"/>
        <pt x="588" y="155" on="0"/>
        <pt x="588" y="142" on="1"/>
        <pt x="573" y="116" on="0"/>
        <pt x="514" y="79" on="1"/>
        <pt x="478" y="101" on="0"/>
        <pt x="415" y="169" on="1"/>
        <pt x="371" y="144" on="0"/>
        <pt x="252" y="144" on="0"/>
        <pt x="209" y="164" on="1"/>
        <pt x="206" y="162" on="1"/>
        <pt x="145" y="99" on="0"/>
        <pt x="115" y="78" on="1"/>
        <pt x="59" y="111" on="0"/>
        <pt x="40" y="142" on="1"/>
        <pt x="40" y="154" on="0"/>
        <pt x="54" y="180" on="1"/>
        <pt x="75" y="189" on="0"/>
        <pt x="132" y="228" on="1"/>
        <pt x="99" y="280" on="0"/>
        <pt x="99" y="412" on="0"/>
        <pt x="125" y="461" on="1"/>
        <pt x="73" y="497" on="0"/>
        <pt x="44" y="512" on="1"/>
        <pt x="30" y="536" on="0"/>
        <pt x="30" y="549" on="1"/>
        <pt x="45" y="576" on="0"/>
        <pt x="105" y="613" on="1"/>
        <pt x="131" y="597" on="0"/>
      </contour>
      <contour>
        <pt x="310" y="234" on="1"/>
        <pt x="385" y="234" on="0"/>
        <pt x="385" y="350" on="1"/>
        <pt x="385" y="411" on="0"/>
        <pt x="354" y="472" on="0"/>
        <pt x="279" y="472" on="0"/>
        <pt x="255" y="462" on="1"/>
        <pt x="230" y="413" on="0"/>
        <pt x="230" y="357" on="1"/>
        <pt x="230" y="234" on="0"/>
      </contour>
    </TTGlyph>
    <TTGlyph name="d" xMin="36" yMin="-12" xMax="561" yMax="743">
      <contour>
        <pt x="479" y="743" on="1"/>
        <pt x="498" y="743" on="0"/>
        <pt x="503" y="742" on="1"/>
        <pt x="503" y="690" on="0"/>
        <pt x="490" y="651" on="1"/>
        <pt x="486" y="543" on="0"/>
        <pt x="475" y="144" on="0"/>
        <pt x="473" y="80" on="1"/>
        <pt x="532" y="72" on="0"/>
        <pt x="561" y="63" on="1"/>
        <pt x="561" y="15" on="1"/>
        <pt x="498" y="-12" on="0"/>
        <pt x="388" y="-12" on="1"/>
        <pt x="382" y="-1" on="0"/>
        <pt x="372" y="42" on="1"/>
        <pt x="280" y="-8" on="0"/>
        <pt x="239" y="-12" on="1"/>
        <pt x="137" y="-12" on="0"/>
        <pt x="36" y="136" on="0"/>
        <pt x="36" y="369" on="0"/>
        <pt x="138" y="528" on="0"/>
        <pt x="238" y="528" on="1"/>
        <pt x="293" y="528" on="0"/>
        <pt x="354" y="494" on="1"/>
        <pt x="349" y="640" on="1"/>
        <pt x="302" y="645" on="0"/>
        <pt x="270" y="655" on="1"/>
        <pt x="270" y="680" on="0"/>
        <pt x="277" y="727" on="1"/>
        <pt x="336" y="743" on="0"/>
      </contour>
      <contour>
        <pt x="254" y="430" on="1"/>
        <pt x="168" y="430" on="0"/>
        <pt x="168" y="264" on="1"/>
        <pt x="168" y="169" on="0"/>
        <pt x="202" y="121" on="1"/>
        <pt x="221" y="93" on="0"/>
        <pt x="251" y="93" on="1"/>
        <pt x="302" y="93" on="0"/>
        <pt x="366" y="128" on="1"/>
        <pt x="357" y="386" on="1"/>
        <pt x="300" y="430" on="0"/>
      </contour>
    </TTGlyph>
    <TTGlyph name="dagger" xMin="30" yMin="-229" xMax="483" yMax="716">
      <contour>
        <pt x="290" y="716" on="1"/>
        <pt x="309" y="714" on="0"/>
        <pt x="336" y="691" on="1"/>
        <pt x="331" y="650" on="0"/>
        <pt x="295" y="525" on="1"/>
        <pt x="381" y="549" on="0"/>
        <pt x="458" y="563" on="1"/>
        <pt x="480" y="555" on="0"/>
        <pt x="483" y="547" on="1"/>
        <pt x="483" y="493" on="0"/>
        <pt x="457" y="405" on="1"/>
        <pt x="424" y="405" on="0"/>
        <pt x="293" y="444" on="1"/>
        <pt x="295" y="439" on="0"/>
        <pt x="311" y="409" on="1"/>
        <pt x="354" y="328" on="0"/>
        <pt x="354" y="320" on="1"/>
        <pt x="283" y="-229" on="1"/>
        <pt x="248" y="-229" on="0"/>
        <pt x="228" y="-215" on="1"/>
        <pt x="161" y="321" on="1"/>
        <pt x="162" y="336" on="0"/>
        <pt x="201" y="419" on="0"/>
        <pt x="215" y="443" on="1"/>
        <pt x="82" y="405" on="0"/>
        <pt x="56" y="405" on="1"/>
        <pt x="30" y="487" on="0"/>
        <pt x="30" y="547" on="1"/>
        <pt x="32" y="555" on="0"/>
        <pt x="55" y="563" on="1"/>
        <pt x="140" y="548" on="0"/>
        <pt x="219" y="524" on="1"/>
        <pt x="178" y="669" on="0"/>
        <pt x="178" y="685" on="1"/>
        <pt x="242" y="716" on="0"/>
      </contour>
    </TTGlyph>
    <TTGlyph name="daggerdbl" xMin="30" yMin="-43" xMax="483" yMax="716">
      <contour>
        <pt x="290" y="716" on="1"/>
        <pt x="309" y="714" on="0"/>
        <pt x="336" y="691" on="1"/>
        <pt x="331" y="650" on="0"/>
        <pt x="295" y="525" on="1"/>
        <pt x="381" y="549" on="0"/>
        <pt x="458" y="563" on="1"/>
        <pt x="480" y="555" on="0"/>
        <pt x="483" y="547" on="1"/>
        <pt x="483" y="493" on="0"/>
        <pt x="457" y="405" on="1"/>
        <pt x="424" y="405" on="0"/>
        <pt x="293" y="444" on="1"/>
        <pt x="295" y="440" on="0"/>
        <pt x="312" y="414" on="1"/>
        <pt x="354" y="345" on="0"/>
        <pt x="354" y="335" on="1"/>
        <pt x="353" y="315" on="0"/>
        <pt x="298" y="230" on="1"/>
        <pt x="431" y="268" on="0"/>
        <pt x="457" y="268" on="1"/>
        <pt x="483" y="186" on="0"/>
        <pt x="483" y="126" on="1"/>
        <pt x="481" y="118" on="0"/>
        <pt x="458" y="110" on="1"/>
        <pt x="373" y="125" on="0"/>
        <pt x="294" y="149" on="1"/>
        <pt x="335" y="4" on="0"/>
        <pt x="335" y="-12" on="1"/>
        <pt x="271" y="-43" on="0"/>
        <pt x="223" y="-43" on="1"/>
        <pt x="204" y="-41" on="0"/>
        <pt x="177" y="-18" on="1"/>
        <pt x="182" y="23" on="0"/>
        <pt x="218" y="148" on="1"/>
        <pt x="132" y="124" on="0"/>
        <pt x="55" y="110" on="1"/>
        <pt x="33" y="118" on="0"/>
        <pt x="30" y="126" on="1"/>
        <pt x="30" y="180" on="0"/>
        <pt x="56" y="268" on="1"/>
        <pt x="89" y="268" on="0"/>
        <pt x="220" y="229" on="1"/>
        <pt x="218" y="233" on="0"/>
        <pt x="202" y="260" on="1"/>
        <pt x="159" y="328" on="0"/>
        <pt x="159" y="338" on="1"/>
        <pt x="160" y="363" on="0"/>
        <pt x="215" y="443" on="1"/>
        <pt x="82" y="405" on="0"/>
        <pt x="56" y="405" on="1"/>
        <pt x="30" y="487" on="0"/>
        <pt x="30" y="547" on="1"/>
        <pt x="32" y="555" on="0"/>
        <pt x="55" y="563" on="1"/>
        <pt x="140" y="548" on="0"/>
        <pt x="219" y="524" on="1"/>
        <pt x="178" y="669" on="0"/>
        <pt x="178" y="685" on="1"/>
        <pt x="242" y="716" on="0"/>
      </contour>
    </TTGlyph>
    <TTGlyph name="degree" xMin="95" yMin="487" xMax="352" yMax="746">
      <contour>
        <pt x="95" y="684" on="0"/>
        <pt x="165" y="746" on="0"/>
        <pt x="284" y="746" on="0"/>
        <pt x="352" y="683" on="0"/>
        <pt x="352" y="558" on="0"/>
        <pt x="284" y="487" on="0"/>
        <pt x="225" y="487" on="1"/>
        <pt x="95" y="487" on="0"/>
        <pt x="95" y="625" on="1"/>
      </contour>
      <contour>
        <pt x="224" y="556" on="1"/>
        <pt x="255" y="556" on="0"/>
        <pt x="255" y="672" on="0"/>
        <pt x="224" y="672" on="1"/>
        <pt x="188" y="672" on="0"/>
        <pt x="188" y="556" on="0"/>
      </contour>
    </TTGlyph>
    <TTGlyph name="dieresis" xMin="208" yMin="573" xMax="496" yMax="686">
      <contour>
        <pt x="325" y="683" on="1"/>
        <pt x="333" y="649" on="0"/>
        <pt x="333" y="608" on="0"/>
        <pt x="330" y="581" on="1"/>
        <pt x="300" y="573" on="0"/>
        <pt x="249" y="573" on="0"/>
        <pt x="216" y="576" on="1"/>
        <pt x="208" y="610" on="0"/>
        <pt x="208" y="651" on="0"/>
        <pt x="211" y="678" on="1"/>
        <pt x="241" y="686" on="0"/>
        <pt x="292" y="686" on="0"/>
      </contour>
      <contour>
        <pt x="488" y="683" on="1"/>
        <pt x="496" y="649" on="0"/>
        <pt x="496" y="608" on="0"/>
        <pt x="493" y="581" on="1"/>
        <pt x="463" y="573" on="0"/>
        <pt x="412" y="573" on="0"/>
        <pt x="379" y="576" on="1"/>
        <pt x="371" y="610" on="0"/>
        <pt x="371" y="651" on="0"/>
        <pt x="374" y="678" on="1"/>
        <pt x="404" y="686" on="0"/>
        <pt x="455" y="686" on="0"/>
      </contour>
    </TTGlyph>
    <TTGlyph name="dinbat1" xMin="10" yMin="-13" xMax="564" yMax="514">
      <contour>
        <pt x="132" y="139" on="1"/>
        <pt x="135" y="36" on="1"/>
        <pt x="135" y="-10" on="0"/>
        <pt x="120" y="-13" on="1"/>
        <pt x="99" y="-13" on="0"/>
        <pt x="90" y="-4" on="1"/>
        <pt x="62" y="24" on="0"/>
        <pt x="10" y="127" on="0"/>
        <pt x="10" y="246" on="0"/>
        <pt x="48" y="294" on="0"/>
        <pt x="112" y="294" on="0"/>
        <pt x="137" y="269" on="1"/>
        <pt x="148" y="258" on="0"/>
        <pt x="154" y="258" on="1"/>
        <pt x="182" y="258" on="0"/>
        <pt x="238" y="298" on="0"/>
        <pt x="238" y="322" on="1"/>
        <pt x="238" y="328" on="0"/>
        <pt x="167" y="328" on="0"/>
        <pt x="122" y="374" on="0"/>
        <pt x="122" y="436" on="0"/>
        <pt x="141" y="470" on="0"/>
        <pt x="156" y="477" on="1"/>
        <pt x="180" y="489" on="0"/>
        <pt x="228" y="489" on="0"/>
        <pt x="264" y="457" on="0"/>
        <pt x="274" y="457" on="1"/>
        <pt x="300" y="457" on="0"/>
        <pt x="328" y="473" on="1"/>
        <pt x="397" y="514" on="0"/>
        <pt x="467" y="514" on="0"/>
        <pt x="501" y="466" on="0"/>
        <pt x="501" y="404" on="0"/>
        <pt x="479" y="359" on="0"/>
        <pt x="460" y="344" on="0"/>
        <pt x="453" y="340" on="1"/>
        <pt x="442" y="356" on="0"/>
        <pt x="405" y="378" on="0"/>
        <pt x="391" y="378" on="1"/>
        <pt x="336" y="378" on="0"/>
        <pt x="336" y="323" on="1"/>
        <pt x="336" y="298" on="0"/>
        <pt x="391" y="258" on="0"/>
        <pt x="420" y="258" on="1"/>
        <pt x="428" y="258" on="0"/>
        <pt x="462" y="294" on="0"/>
        <pt x="494" y="294" on="1"/>
        <pt x="564" y="294" on="0"/>
        <pt x="564" y="188" on="1"/>
        <pt x="564" y="127" on="0"/>
        <pt x="512" y="24" on="0"/>
        <pt x="484" y="-4" on="1"/>
        <pt x="475" y="-13" on="0"/>
        <pt x="454" y="-13" on="1"/>
        <pt x="449" y="-8" on="0"/>
        <pt x="449" y="42" on="1"/>
        <pt x="451" y="139" on="1"/>
        <pt x="448" y="139" on="0"/>
        <pt x="420" y="119" on="0"/>
        <pt x="399" y="119" on="0"/>
        <pt x="384" y="125" on="0"/>
        <pt x="376" y="133" on="0"/>
        <pt x="358" y="149" on="0"/>
        <pt x="353" y="154" on="1"/>
        <pt x="338" y="134" on="0"/>
        <pt x="327" y="112" on="1"/>
        <pt x="386" y="76" on="0"/>
        <pt x="396" y="57" on="1"/>
        <pt x="396" y="51" on="0"/>
        <pt x="336" y="-12" on="0"/>
        <pt x="327" y="-12" on="1"/>
        <pt x="309" y="-12" on="0"/>
        <pt x="286" y="23" on="1"/>
        <pt x="255" y="-8" on="0"/>
        <pt x="252" y="-13" on="1"/>
        <pt x="240" y="-11" on="0"/>
        <pt x="178" y="42" on="0"/>
        <pt x="178" y="62" on="0"/>
        <pt x="248" y="109" on="0"/>
        <pt x="248" y="111" on="1"/>
        <pt x="248" y="123" on="0"/>
        <pt x="222" y="153" on="1"/>
        <pt x="196" y="119" on="0"/>
        <pt x="148" y="119" on="0"/>
      </contour>
      <contour>
        <pt x="191" y="430" on="0"/>
        <pt x="179" y="417" on="0"/>
        <pt x="179" y="399" on="0"/>
        <pt x="191" y="388" on="0"/>
        <pt x="208" y="388" on="0"/>
        <pt x="221" y="399" on="0"/>
        <pt x="221" y="417" on="0"/>
        <pt x="208" y="430" on="0"/>
      </contour>
    </TTGlyph>
    <TTGlyph name="dingbat2" xMin="0" yMin="-15" xMax="1142" yMax="525">
      <contour>
        <pt x="736" y="67" on="1"/>
        <pt x="873" y="70" on="1"/>
        <pt x="896" y="70" on="0"/>
        <pt x="896" y="47" on="1"/>
        <pt x="896" y="19" on="0"/>
        <pt x="765" y="-15" on="0"/>
        <pt x="531" y="-15" on="0"/>
        <pt x="382" y="65" on="0"/>
        <pt x="382" y="109" on="1"/>
        <pt x="382" y="124" on="0"/>
        <pt x="392" y="160" on="0"/>
        <pt x="392" y="174" on="0"/>
        <pt x="368" y="184" on="0"/>
        <pt x="307" y="192" on="0"/>
        <pt x="266" y="203" on="0"/>
        <pt x="188" y="251" on="0"/>
        <pt x="180" y="251" on="1"/>
        <pt x="164" y="251" on="0"/>
        <pt x="132" y="134" on="0"/>
        <pt x="132" y="62" on="0"/>
        <pt x="138" y="37" on="0"/>
        <pt x="143" y="23" on="0"/>
        <pt x="143" y="21" on="1"/>
        <pt x="143" y="6" on="0"/>
        <pt x="121" y="6" on="1"/>
        <pt x="65" y="6" on="0"/>
        <pt x="0" y="86" on="0"/>
        <pt x="0" y="207" on="0"/>
        <pt x="28" y="286" on="0"/>
        <pt x="60" y="321" on="0"/>
        <pt x="88" y="347" on="0"/>
        <pt x="88" y="352" on="1"/>
        <pt x="86" y="368" on="0"/>
        <pt x="86" y="381" on="1"/>
        <pt x="86" y="427" on="0"/>
        <pt x="160" y="506" on="0"/>
        <pt x="259" y="506" on="0"/>
        <pt x="337" y="463" on="0"/>
        <pt x="337" y="419" on="1"/>
        <pt x="337" y="389" on="0"/>
        <pt x="315" y="346" on="0"/>
        <pt x="315" y="342" on="1"/>
        <pt x="323" y="330" on="0"/>
        <pt x="380" y="330" on="0"/>
        <pt x="380" y="335" on="1"/>
        <pt x="368" y="363" on="0"/>
        <pt x="368" y="379" on="1"/>
        <pt x="368" y="450" on="0"/>
        <pt x="496" y="525" on="0"/>
        <pt x="656" y="525" on="0"/>
        <pt x="858" y="444" on="0"/>
        <pt x="858" y="420" on="1"/>
        <pt x="855" y="403" on="0"/>
        <pt x="833" y="403" on="1"/>
        <pt x="824" y="403" on="0"/>
        <pt x="648" y="433" on="0"/>
        <pt x="613" y="433" on="1"/>
        <pt x="549" y="433" on="0"/>
        <pt x="549" y="400" on="1"/>
        <pt x="549" y="385" on="0"/>
        <pt x="580" y="378" on="1"/>
        <pt x="616" y="369" on="0"/>
        <pt x="694" y="360" on="0"/>
        <pt x="730" y="354" on="1"/>
        <pt x="818" y="338" on="0"/>
        <pt x="828" y="338" on="0"/>
        <pt x="832" y="339" on="0"/>
        <pt x="836" y="343" on="0"/>
        <pt x="838" y="348" on="0"/>
        <pt x="847" y="366" on="1"/>
        <pt x="866" y="394" on="0"/>
        <pt x="972" y="422" on="0"/>
        <pt x="1068" y="422" on="0"/>
        <pt x="1142" y="401" on="0"/>
        <pt x="1142" y="371" on="0"/>
        <pt x="1103" y="358" on="0"/>
        <pt x="1048" y="350" on="0"/>
        <pt x="992" y="334" on="0"/>
        <pt x="953" y="285" on="0"/>
        <pt x="953" y="206" on="0"/>
        <pt x="1005" y="144" on="0"/>
        <pt x="1067" y="114" on="0"/>
        <pt x="1119" y="84" on="0"/>
        <pt x="1119" y="73" on="1"/>
        <pt x="1119" y="42" on="0"/>
        <pt x="1084" y="42" on="1"/>
        <pt x="1009" y="42" on="0"/>
        <pt x="899" y="96" on="0"/>
        <pt x="835" y="166" on="1"/>
        <pt x="787" y="162" on="0"/>
        <pt x="598" y="127" on="0"/>
        <pt x="598" y="117" on="1"/>
        <pt x="598" y="98" on="0"/>
        <pt x="701" y="67" on="0"/>
      </contour>
      <contour>
        <pt x="180" y="410" on="0"/>
        <pt x="180" y="388" on="0"/>
        <pt x="195" y="372" on="0"/>
        <pt x="218" y="372" on="0"/>
        <pt x="234" y="388" on="0"/>
        <pt x="234" y="410" on="0"/>
        <pt x="218" y="426" on="0"/>
        <pt x="195" y="426" on="0"/>
      </contour>
    </TTGlyph>
    <TTGlyph name="divide" xMin="45" yMin="-1" xMax="535" yMax="515">
      <contour>
        <pt x="354" y="127" on="1"/>
        <pt x="363" y="91" on="0"/>
        <pt x="363" y="40" on="0"/>
        <pt x="360" y="8" on="1"/>
        <pt x="326" y="-1" on="0"/>
        <pt x="264" y="-1" on="0"/>
        <pt x="227" y="2" on="1"/>
        <pt x="217" y="42" on="0"/>
        <pt x="217" y="79" on="0"/>
        <pt x="221" y="121" on="1"/>
        <pt x="254" y="130" on="0"/>
        <pt x="315" y="130" on="0"/>
      </contour>
      <contour>
        <pt x="354" y="512" on="1"/>
        <pt x="363" y="476" on="0"/>
        <pt x="363" y="424" on="0"/>
        <pt x="360" y="393" on="1"/>
        <pt x="326" y="384" on="0"/>
        <pt x="264" y="384" on="0"/>
        <pt x="227" y="387" on="1"/>
        <pt x="217" y="427" on="0"/>
        <pt x="217" y="464" on="0"/>
        <pt x="221" y="506" on="1"/>
        <pt x="254" y="515" on="0"/>
        <pt x="315" y="515" on="0"/>
      </contour>
      <contour>
        <pt x="50" y="301" on="1"/>
        <pt x="128" y="315" on="0"/>
        <pt x="215" y="315" on="0"/>
        <pt x="514" y="309" on="0"/>
        <pt x="530" y="308" on="1"/>
        <pt x="535" y="288" on="0"/>
        <pt x="535" y="265" on="1"/>
        <pt x="531" y="223" on="1"/>
        <pt x="453" y="208" on="0"/>
        <pt x="398" y="208" on="1"/>
        <pt x="51" y="215" on="1"/>
        <pt x="45" y="245" on="0"/>
        <pt x="45" y="257" on="1"/>
      </contour>
    </TTGlyph>
    <TTGlyph name="dollar" xMin="60" yMin="-123" xMax="468" yMax="680">
      <contour>
        <pt x="145" y="198" on="1"/>
        <pt x="178" y="196" on="1"/>
        <pt x="190" y="92" on="1"/>
        <pt x="228" y="78" on="0"/>
        <pt x="293" y="78" on="0"/>
        <pt x="338" y="113" on="0"/>
        <pt x="338" y="161" on="0"/>
        <pt x="306" y="193" on="0"/>
        <pt x="272" y="212" on="0"/>
        <pt x="203" y="245" on="0"/>
        <pt x="160" y="269" on="0"/>
        <pt x="132" y="290" on="1"/>
        <pt x="79" y="331" on="0"/>
        <pt x="79" y="459" on="0"/>
        <pt x="151" y="542" on="0"/>
        <pt x="214" y="554" on="1"/>
        <pt x="213" y="671" on="1"/>
        <pt x="240" y="680" on="0"/>
        <pt x="296" y="680" on="0"/>
        <pt x="320" y="672" on="1"/>
        <pt x="318" y="594" on="0"/>
        <pt x="318" y="555" on="1"/>
        <pt x="384" y="545" on="0"/>
        <pt x="445" y="514" on="1"/>
        <pt x="447" y="495" on="0"/>
        <pt x="447" y="414" on="0"/>
        <pt x="436" y="365" on="1"/>
        <pt x="428" y="362" on="0"/>
        <pt x="356" y="352" on="0"/>
        <pt x="340" y="352" on="1"/>
        <pt x="306" y="463" on="1"/>
        <pt x="291" y="468" on="0"/>
        <pt x="241" y="468" on="0"/>
        <pt x="207" y="435" on="0"/>
        <pt x="207" y="386" on="0"/>
        <pt x="256" y="350" on="0"/>
        <pt x="336" y="312" on="0"/>
        <pt x="370" y="294" on="0"/>
        <pt x="420" y="261" on="0"/>
        <pt x="434" y="245" on="1"/>
        <pt x="468" y="204" on="0"/>
        <pt x="468" y="158" on="1"/>
        <pt x="468" y="90" on="0"/>
        <pt x="382" y="5" on="0"/>
        <pt x="312" y="-8" on="1"/>
        <pt x="311" y="-115" on="1"/>
        <pt x="290" y="-123" on="0"/>
        <pt x="247" y="-123" on="0"/>
        <pt x="222" y="-116" on="1"/>
        <pt x="222" y="-80" on="0"/>
        <pt x="220" y="-10" on="1"/>
        <pt x="124" y="2" on="0"/>
        <pt x="60" y="50" on="1"/>
        <pt x="60" y="121" on="0"/>
        <pt x="75" y="192" on="1"/>
        <pt x="123" y="198" on="0"/>
      </contour>
    </TTGlyph>
    <TTGlyph name="dos" xMin="16" yMin="0" xMax="459" yMax="680">
      <contour>
        <pt x="167" y="469" on="1"/>
        <pt x="131" y="468" on="1"/>
        <pt x="113" y="468" on="0"/>
        <pt x="73" y="475" on="1"/>
        <pt x="54" y="527" on="0"/>
        <pt x="53" y="606" on="1"/>
        <pt x="80" y="633" on="0"/>
        <pt x="181" y="680" on="0"/>
        <pt x="226" y="680" on="1"/>
        <pt x="318" y="680" on="0"/>
        <pt x="431" y="566" on="0"/>
        <pt x="431" y="427" on="0"/>
        <pt x="379" y="331" on="0"/>
        <pt x="308" y="248" on="1"/>
        <pt x="173" y="89" on="1"/>
        <pt x="342" y="89" on="1"/>
        <pt x="353" y="168" on="0"/>
        <pt x="356" y="178" on="1"/>
        <pt x="368" y="180" on="0"/>
        <pt x="418" y="180" on="0"/>
        <pt x="445" y="169" on="1"/>
        <pt x="459" y="99" on="0"/>
        <pt x="459" y="35" on="1"/>
        <pt x="458" y="0" on="1"/>
        <pt x="33" y="0" on="1"/>
        <pt x="16" y="36" on="0"/>
        <pt x="16" y="77" on="1"/>
        <pt x="156" y="237" on="0"/>
        <pt x="272" y="376" on="0"/>
        <pt x="299" y="436" on="0"/>
        <pt x="299" y="526" on="0"/>
        <pt x="259" y="591" on="0"/>
        <pt x="218" y="591" on="1"/>
        <pt x="199" y="591" on="0"/>
        <pt x="190" y="590" on="1"/>
        <pt x="185" y="568" on="0"/>
        <pt x="169" y="479" on="0"/>
      </contour>
    </TTGlyph>
    <TTGlyph name="dotaccent" xMin="4" yMin="601" xMax="151" yMax="734">
      <contour>
        <pt x="142" y="731" on="1"/>
        <pt x="151" y="686" on="0"/>
        <pt x="151" y="639" on="0"/>
        <pt x="147" y="610" on="1"/>
        <pt x="107" y="601" on="0"/>
        <pt x="52" y="601" on="0"/>
        <pt x="13" y="604" on="1"/>
        <pt x="4" y="649" on="0"/>
        <pt x="4" y="696" on="0"/>
        <pt x="8" y="725" on="1"/>
        <pt x="48" y="734" on="0"/>
        <pt x="103" y="734" on="0"/>
      </contour>
    </TTGlyph>
    <TTGlyph name="dotlessi" xMin="30" yMin="0" xMax="319" yMax="512">
      <contour>
        <pt x="239" y="512" on="1"/>
        <pt x="258" y="512" on="0"/>
        <pt x="263" y="511" on="1"/>
        <pt x="263" y="462" on="0"/>
        <pt x="246" y="420" on="1"/>
        <pt x="242" y="204" on="0"/>
        <pt x="241" y="96" on="1"/>
        <pt x="319" y="87" on="1"/>
        <pt x="319" y="46" on="0"/>
        <pt x="296" y="0" on="1"/>
        <pt x="47" y="0" on="1"/>
        <pt x="38" y="55" on="1"/>
        <pt x="100" y="78" on="0"/>
        <pt x="128" y="85" on="1"/>
        <pt x="117" y="409" on="1"/>
        <pt x="58" y="415" on="0"/>
        <pt x="30" y="424" on="1"/>
        <pt x="30" y="449" on="0"/>
        <pt x="37" y="496" on="1"/>
        <pt x="96" y="512" on="0"/>
      </contour>
    </TTGlyph>
    <TTGlyph name="e" xMin="40" yMin="-12" xMax="485" yMax="520">
      <contour>
        <pt x="297" y="86" on="1"/>
        <pt x="331" y="86" on="0"/>
        <pt x="435" y="133" on="1"/>
        <pt x="457" y="101" on="0"/>
        <pt x="468" y="59" on="1"/>
        <pt x="413" y="25" on="0"/>
        <pt x="308" y="-12" on="0"/>
        <pt x="286" y="-12" on="1"/>
        <pt x="165" y="-12" on="0"/>
        <pt x="40" y="122" on="0"/>
        <pt x="40" y="369" on="0"/>
        <pt x="164" y="520" on="0"/>
        <pt x="286" y="520" on="1"/>
        <pt x="383" y="520" on="0"/>
        <pt x="485" y="394" on="0"/>
        <pt x="485" y="293" on="1"/>
        <pt x="485" y="272" on="0"/>
        <pt x="461" y="245" on="1"/>
        <pt x="173" y="250" on="1"/>
        <pt x="175" y="170" on="0"/>
        <pt x="231" y="86" on="0"/>
      </contour>
      <contour>
        <pt x="277" y="437" on="1"/>
        <pt x="239" y="437" on="0"/>
        <pt x="206" y="422" on="1"/>
        <pt x="183" y="374" on="0"/>
        <pt x="177" y="333" on="1"/>
        <pt x="255" y="336" on="0"/>
        <pt x="354" y="337" on="1"/>
        <pt x="349" y="437" on="0"/>
      </contour>
    </TTGlyph>
    <TTGlyph name="eacute" xMin="40" yMin="-12" xMax="485" yMax="747">
      <contour>
        <pt x="297" y="86" on="1"/>
        <pt x="331" y="86" on="0"/>
        <pt x="435" y="133" on="1"/>
        <pt x="457" y="101" on="0"/>
        <pt x="468" y="59" on="1"/>
        <pt x="413" y="25" on="0"/>
        <pt x="308" y="-12" on="0"/>
        <pt x="286" y="-12" on="1"/>
        <pt x="165" y="-12" on="0"/>
        <pt x="40" y="122" on="0"/>
        <pt x="40" y="369" on="0"/>
        <pt x="164" y="520" on="0"/>
        <pt x="286" y="520" on="1"/>
        <pt x="383" y="520" on="0"/>
        <pt x="485" y="394" on="0"/>
        <pt x="485" y="293" on="1"/>
        <pt x="485" y="272" on="0"/>
        <pt x="461" y="245" on="1"/>
        <pt x="173" y="250" on="1"/>
        <pt x="175" y="170" on="0"/>
        <pt x="231" y="86" on="0"/>
      </contour>
      <contour>
        <pt x="277" y="437" on="1"/>
        <pt x="239" y="437" on="0"/>
        <pt x="206" y="422" on="1"/>
        <pt x="183" y="374" on="0"/>
        <pt x="177" y="333" on="1"/>
        <pt x="255" y="336" on="0"/>
        <pt x="354" y="337" on="1"/>
        <pt x="349" y="437" on="0"/>
      </contour>
      <contour>
        <pt x="184" y="616" on="1"/>
        <pt x="342" y="747" on="1"/>
        <pt x="401" y="700" on="0"/>
        <pt x="405" y="660" on="1"/>
        <pt x="379" y="635" on="0"/>
        <pt x="300" y="581" on="0"/>
        <pt x="246" y="553" on="1"/>
        <pt x="214" y="577" on="0"/>
      </contour>
    </TTGlyph>
    <TTGlyph name="ebreve" xMin="40" yMin="-12" xMax="485" yMax="737">
      <contour>
        <pt x="297" y="86" on="1"/>
        <pt x="331" y="86" on="0"/>
        <pt x="435" y="133" on="1"/>
        <pt x="457" y="101" on="0"/>
        <pt x="468" y="59" on="1"/>
        <pt x="413" y="25" on="0"/>
        <pt x="308" y="-12" on="0"/>
        <pt x="286" y="-12" on="1"/>
        <pt x="165" y="-12" on="0"/>
        <pt x="40" y="122" on="0"/>
        <pt x="40" y="369" on="0"/>
        <pt x="164" y="520" on="0"/>
        <pt x="286" y="520" on="1"/>
        <pt x="383" y="520" on="0"/>
        <pt x="485" y="394" on="0"/>
        <pt x="485" y="293" on="1"/>
        <pt x="485" y="272" on="0"/>
        <pt x="461" y="245" on="1"/>
        <pt x="173" y="250" on="1"/>
        <pt x="175" y="170" on="0"/>
        <pt x="231" y="86" on="0"/>
      </contour>
      <contour>
        <pt x="277" y="437" on="1"/>
        <pt x="239" y="437" on="0"/>
        <pt x="206" y="422" on="1"/>
        <pt x="183" y="374" on="0"/>
        <pt x="177" y="333" on="1"/>
        <pt x="255" y="336" on="0"/>
        <pt x="354" y="337" on="1"/>
        <pt x="349" y="437" on="0"/>
      </contour>
      <contour>
        <pt x="418" y="737" on="1"/>
        <pt x="418" y="673" on="0"/>
        <pt x="332" y="575" on="0"/>
        <pt x="189" y="575" on="0"/>
        <pt x="108" y="672" on="0"/>
        <pt x="108" y="737" on="1"/>
        <pt x="190" y="737" on="1"/>
        <pt x="190" y="709" on="0"/>
        <pt x="225" y="668" on="0"/>
        <pt x="262" y="668" on="1"/>
        <pt x="325" y="668" on="0"/>
        <pt x="325" y="737" on="1"/>
      </contour>
    </TTGlyph>
    <TTGlyph name="ecircumflex" xMin="40" yMin="-12" xMax="485" yMax="746">
      <contour>
        <pt x="297" y="86" on="1"/>
        <pt x="331" y="86" on="0"/>
        <pt x="435" y="133" on="1"/>
        <pt x="457" y="101" on="0"/>
        <pt x="468" y="59" on="1"/>
        <pt x="413" y="25" on="0"/>
        <pt x="308" y="-12" on="0"/>
        <pt x="286" y="-12" on="1"/>
        <pt x="165" y="-12" on="0"/>
        <pt x="40" y="122" on="0"/>
        <pt x="40" y="369" on="0"/>
        <pt x="164" y="520" on="0"/>
        <pt x="286" y="520" on="1"/>
        <pt x="383" y="520" on="0"/>
        <pt x="485" y="394" on="0"/>
        <pt x="485" y="293" on="1"/>
        <pt x="485" y="272" on="0"/>
        <pt x="461" y="245" on="1"/>
        <pt x="173" y="250" on="1"/>
        <pt x="175" y="170" on="0"/>
        <pt x="231" y="86" on="0"/>
      </contour>
      <contour>
        <pt x="277" y="437" on="1"/>
        <pt x="239" y="437" on="0"/>
        <pt x="206" y="422" on="1"/>
        <pt x="183" y="374" on="0"/>
        <pt x="177" y="333" on="1"/>
        <pt x="255" y="336" on="0"/>
        <pt x="354" y="337" on="1"/>
        <pt x="349" y="437" on="0"/>
      </contour>
      <contour>
        <pt x="366" y="555" on="1"/>
        <pt x="293" y="592" on="0"/>
        <pt x="261" y="616" on="1"/>
        <pt x="243" y="602" on="0"/>
        <pt x="156" y="555" on="1"/>
        <pt x="118" y="591" on="0"/>
        <pt x="103" y="615" on="1"/>
        <pt x="261" y="746" on="1"/>
        <pt x="420" y="615" on="1"/>
        <pt x="406" y="593" on="0"/>
      </contour>
    </TTGlyph>
    <TTGlyph name="edieresis" xMin="40" yMin="-12" xMax="485" yMax="686">
      <contour>
        <pt x="297" y="86" on="1"/>
        <pt x="331" y="86" on="0"/>
        <pt x="435" y="133" on="1"/>
        <pt x="457" y="101" on="0"/>
        <pt x="468" y="59" on="1"/>
        <pt x="413" y="25" on="0"/>
        <pt x="308" y="-12" on="0"/>
        <pt x="286" y="-12" on="1"/>
        <pt x="165" y="-12" on="0"/>
        <pt x="40" y="122" on="0"/>
        <pt x="40" y="369" on="0"/>
        <pt x="164" y="520" on="0"/>
        <pt x="286" y="520" on="1"/>
        <pt x="383" y="520" on="0"/>
        <pt x="485" y="394" on="0"/>
        <pt x="485" y="293" on="1"/>
        <pt x="485" y="272" on="0"/>
        <pt x="461" y="245" on="1"/>
        <pt x="173" y="250" on="1"/>
        <pt x="175" y="170" on="0"/>
        <pt x="231" y="86" on="0"/>
      </contour>
      <contour>
        <pt x="277" y="437" on="1"/>
        <pt x="239" y="437" on="0"/>
        <pt x="206" y="422" on="1"/>
        <pt x="183" y="374" on="0"/>
        <pt x="177" y="333" on="1"/>
        <pt x="255" y="336" on="0"/>
        <pt x="354" y="337" on="1"/>
        <pt x="349" y="437" on="0"/>
      </contour>
      <contour>
        <pt x="232" y="683" on="1"/>
        <pt x="240" y="649" on="0"/>
        <pt x="240" y="608" on="0"/>
        <pt x="237" y="581" on="1"/>
        <pt x="207" y="573" on="0"/>
        <pt x="156" y="573" on="0"/>
        <pt x="123" y="576" on="1"/>
        <pt x="115" y="610" on="0"/>
        <pt x="115" y="651" on="0"/>
        <pt x="118" y="678" on="1"/>
        <pt x="148" y="686" on="0"/>
        <pt x="199" y="686" on="0"/>
      </contour>
      <contour>
        <pt x="395" y="683" on="1"/>
        <pt x="403" y="649" on="0"/>
        <pt x="403" y="608" on="0"/>
        <pt x="400" y="581" on="1"/>
        <pt x="370" y="573" on="0"/>
        <pt x="319" y="573" on="0"/>
        <pt x="286" y="576" on="1"/>
        <pt x="278" y="610" on="0"/>
        <pt x="278" y="651" on="0"/>
        <pt x="281" y="678" on="1"/>
        <pt x="311" y="686" on="0"/>
        <pt x="362" y="686" on="0"/>
      </contour>
    </TTGlyph>
    <TTGlyph name="egrave" xMin="40" yMin="-12" xMax="485" yMax="747">
      <contour>
        <pt x="297" y="86" on="1"/>
        <pt x="331" y="86" on="0"/>
        <pt x="435" y="133" on="1"/>
        <pt x="457" y="101" on="0"/>
        <pt x="468" y="59" on="1"/>
        <pt x="413" y="25" on="0"/>
        <pt x="308" y="-12" on="0"/>
        <pt x="286" y="-12" on="1"/>
        <pt x="165" y="-12" on="0"/>
        <pt x="40" y="122" on="0"/>
        <pt x="40" y="369" on="0"/>
        <pt x="164" y="520" on="0"/>
        <pt x="286" y="520" on="1"/>
        <pt x="383" y="520" on="0"/>
        <pt x="485" y="394" on="0"/>
        <pt x="485" y="293" on="1"/>
        <pt x="485" y="272" on="0"/>
        <pt x="461" y="245" on="1"/>
        <pt x="173" y="250" on="1"/>
        <pt x="175" y="170" on="0"/>
        <pt x="231" y="86" on="0"/>
      </contour>
      <contour>
        <pt x="277" y="437" on="1"/>
        <pt x="239" y="437" on="0"/>
        <pt x="206" y="422" on="1"/>
        <pt x="183" y="374" on="0"/>
        <pt x="177" y="333" on="1"/>
        <pt x="255" y="336" on="0"/>
        <pt x="354" y="337" on="1"/>
        <pt x="349" y="437" on="0"/>
      </contour>
      <contour>
        <pt x="189" y="747" on="1"/>
        <pt x="347" y="616" on="1"/>
        <pt x="319" y="580" on="0"/>
        <pt x="285" y="553" on="1"/>
        <pt x="184" y="603" on="0"/>
        <pt x="126" y="660" on="1"/>
        <pt x="128" y="678" on="0"/>
        <pt x="159" y="721" on="0"/>
      </contour>
    </TTGlyph>
    <TTGlyph name="eight" xMin="45" yMin="-12" xMax="498" yMax="722">
      <contour>
        <pt x="498" y="189" on="1"/>
        <pt x="498" y="103" on="0"/>
        <pt x="389" y="-12" on="0"/>
        <pt x="276" y="-12" on="1"/>
        <pt x="196" y="-12" on="0"/>
        <pt x="126" y="30" on="1"/>
        <pt x="90" y="52" on="0"/>
        <pt x="45" y="130" on="0"/>
        <pt x="45" y="237" on="0"/>
        <pt x="107" y="325" on="0"/>
        <pt x="159" y="366" on="1"/>
        <pt x="60" y="421" on="0"/>
        <pt x="60" y="539" on="1"/>
        <pt x="60" y="624" on="0"/>
        <pt x="176" y="722" on="0"/>
        <pt x="379" y="722" on="0"/>
        <pt x="494" y="620" on="0"/>
        <pt x="494" y="485" on="0"/>
        <pt x="432" y="385" on="0"/>
        <pt x="383" y="354" on="1"/>
        <pt x="453" y="306" on="0"/>
        <pt x="498" y="228" on="0"/>
      </contour>
      <contour>
        <pt x="371" y="172" on="1"/>
        <pt x="371" y="221" on="0"/>
        <pt x="315" y="284" on="0"/>
        <pt x="245" y="322" on="1"/>
        <pt x="177" y="266" on="0"/>
        <pt x="177" y="184" on="1"/>
        <pt x="177" y="138" on="0"/>
        <pt x="244" y="76" on="0"/>
        <pt x="277" y="76" on="1"/>
        <pt x="371" y="76" on="0"/>
      </contour>
      <contour>
        <pt x="362" y="545" on="1"/>
        <pt x="362" y="631" on="0"/>
        <pt x="276" y="631" on="1"/>
        <pt x="247" y="631" on="0"/>
        <pt x="211" y="621" on="1"/>
        <pt x="192" y="583" on="0"/>
        <pt x="192" y="544" on="1"/>
        <pt x="192" y="450" on="0"/>
        <pt x="279" y="411" on="1"/>
        <pt x="283" y="410" on="0"/>
        <pt x="296" y="403" on="0"/>
        <pt x="299" y="402" on="1"/>
        <pt x="362" y="449" on="0"/>
      </contour>
    </TTGlyph>
    <TTGlyph name="ellipsis" xMin="51" yMin="-1" xMax="637" yMax="130">
      <contour>
        <pt x="188" y="127" on="1"/>
        <pt x="197" y="91" on="0"/>
        <pt x="197" y="40" on="0"/>
        <pt x="194" y="8" on="1"/>
        <pt x="160" y="-1" on="0"/>
        <pt x="98" y="-1" on="0"/>
        <pt x="61" y="2" on="1"/>
        <pt x="51" y="42" on="0"/>
        <pt x="51" y="79" on="0"/>
        <pt x="55" y="121" on="1"/>
        <pt x="88" y="130" on="0"/>
        <pt x="149" y="130" on="0"/>
      </contour>
      <contour>
        <pt x="408" y="127" on="1"/>
        <pt x="417" y="91" on="0"/>
        <pt x="417" y="40" on="0"/>
        <pt x="414" y="8" on="1"/>
        <pt x="380" y="-1" on="0"/>
        <pt x="318" y="-1" on="0"/>
        <pt x="281" y="2" on="1"/>
        <pt x="271" y="42" on="0"/>
        <pt x="271" y="79" on="0"/>
        <pt x="275" y="121" on="1"/>
        <pt x="308" y="130" on="0"/>
        <pt x="369" y="130" on="0"/>
      </contour>
      <contour>
        <pt x="628" y="127" on="1"/>
        <pt x="637" y="91" on="0"/>
        <pt x="637" y="40" on="0"/>
        <pt x="634" y="8" on="1"/>
        <pt x="600" y="-1" on="0"/>
        <pt x="538" y="-1" on="0"/>
        <pt x="501" y="2" on="1"/>
        <pt x="491" y="42" on="0"/>
        <pt x="491" y="79" on="0"/>
        <pt x="495" y="121" on="1"/>
        <pt x="528" y="130" on="0"/>
        <pt x="589" y="130" on="0"/>
      </contour>
    </TTGlyph>
    <TTGlyph name="emacron" xMin="40" yMin="-12" xMax="485" yMax="704">
      <contour>
        <pt x="297" y="86" on="1"/>
        <pt x="331" y="86" on="0"/>
        <pt x="435" y="133" on="1"/>
        <pt x="457" y="101" on="0"/>
        <pt x="468" y="59" on="1"/>
        <pt x="413" y="25" on="0"/>
        <pt x="308" y="-12" on="0"/>
        <pt x="286" y="-12" on="1"/>
        <pt x="165" y="-12" on="0"/>
        <pt x="40" y="122" on="0"/>
        <pt x="40" y="369" on="0"/>
        <pt x="164" y="520" on="0"/>
        <pt x="286" y="520" on="1"/>
        <pt x="383" y="520" on="0"/>
        <pt x="485" y="394" on="0"/>
        <pt x="485" y="293" on="1"/>
        <pt x="485" y="272" on="0"/>
        <pt x="461" y="245" on="1"/>
        <pt x="173" y="250" on="1"/>
        <pt x="175" y="170" on="0"/>
        <pt x="231" y="86" on="0"/>
      </contour>
      <contour>
        <pt x="277" y="437" on="1"/>
        <pt x="239" y="437" on="0"/>
        <pt x="206" y="422" on="1"/>
        <pt x="183" y="374" on="0"/>
        <pt x="177" y="333" on="1"/>
        <pt x="255" y="336" on="0"/>
        <pt x="354" y="337" on="1"/>
        <pt x="349" y="437" on="0"/>
      </contour>
      <contour>
        <pt x="132" y="697" on="1"/>
        <pt x="201" y="704" on="0"/>
        <pt x="306" y="704" on="0"/>
        <pt x="380" y="697" on="1"/>
        <pt x="382" y="688" on="0"/>
        <pt x="382" y="658" on="1"/>
        <pt x="379" y="610" on="1"/>
        <pt x="310" y="604" on="0"/>
        <pt x="266" y="604" on="1"/>
        <pt x="133" y="609" on="1"/>
        <pt x="128" y="632" on="0"/>
        <pt x="128" y="649" on="1"/>
      </contour>
    </TTGlyph>
    <TTGlyph name="emdash" xMin="1" yMin="233" xMax="980" yMax="350">
      <contour>
        <pt x="970" y="343" on="1"/>
        <pt x="980" y="314" on="0"/>
        <pt x="980" y="293" on="1"/>
        <pt x="975" y="241" on="1"/>
        <pt x="882" y="233" on="0"/>
        <pt x="817" y="233" on="1"/>
        <pt x="6" y="240" on="1"/>
        <pt x="1" y="273" on="0"/>
        <pt x="1" y="288" on="1"/>
        <pt x="6" y="341" on="1"/>
        <pt x="99" y="350" on="0"/>
        <pt x="164" y="350" on="1"/>
      </contour>
    </TTGlyph>
    <TTGlyph name="endash" xMin="1" yMin="233" xMax="513" yMax="350">
      <contour>
        <pt x="506" y="344" on="1"/>
        <pt x="513" y="313" on="0"/>
        <pt x="513" y="293" on="1"/>
        <pt x="508" y="241" on="1"/>
        <pt x="415" y="233" on="0"/>
        <pt x="350" y="233" on="1"/>
        <pt x="6" y="240" on="1"/>
        <pt x="1" y="275" on="0"/>
        <pt x="1" y="288" on="1"/>
        <pt x="6" y="341" on="1"/>
        <pt x="99" y="350" on="0"/>
        <pt x="164" y="350" on="1"/>
      </contour>
    </TTGlyph>
</ttFont>
